<svg width="346" height="180" viewBox="0 0 346 180" fill="none" xmlns="http://www.w3.org/2000/svg">
<g clip-path="url(#clip0_856_102)">
<path d="M0.5 10C0.5 4.47716 4.97715 0 10.5 0H335.5C341.023 0 345.5 4.47715 345.5 10V180H0.5V10Z" fill="#D9E8E1"/>
<g opacity="0.5">
<path d="M3.10791 179.351C3.10926 177.53 3.81453 175.784 5.0687 174.497C6.32287 173.209 8.02331 172.486 9.7963 172.486C11.5693 172.486 13.2697 173.209 14.5239 174.497C15.7781 175.784 16.4833 177.53 16.4847 179.351" fill="#E8F6E9"/>
<path d="M9.79513 179.355C9.74729 179.355 9.70141 179.336 9.66758 179.301C9.63375 179.266 9.61475 179.219 9.61475 179.17V175.549C9.61475 175.5 9.63375 175.452 9.66758 175.418C9.70141 175.383 9.74729 175.363 9.79513 175.363C9.84297 175.363 9.88886 175.383 9.92269 175.418C9.95652 175.452 9.97552 175.5 9.97552 175.549V179.17C9.97551 179.219 9.9565 179.266 9.92267 179.301C9.88885 179.336 9.84297 179.355 9.79513 179.355V179.355Z" fill="#F9F9F9"/>
<path d="M9.79705 178.113C9.75386 178.113 9.71209 178.097 9.67937 178.068L7.51017 176.156C7.49189 176.14 7.47685 176.121 7.4659 176.099C7.45495 176.077 7.44832 176.053 7.44639 176.029C7.44446 176.004 7.44727 175.98 7.45466 175.956C7.46204 175.933 7.47385 175.911 7.48941 175.893C7.50497 175.874 7.52397 175.859 7.54531 175.848C7.56664 175.837 7.5899 175.83 7.61373 175.829C7.63756 175.827 7.66148 175.83 7.68413 175.838C7.70677 175.846 7.72769 175.858 7.74566 175.874L9.91486 177.786C9.94289 177.811 9.96288 177.844 9.97214 177.881C9.9814 177.918 9.97948 177.956 9.96664 177.992C9.95381 178.027 9.93067 178.058 9.90034 178.08C9.87002 178.102 9.83397 178.113 9.79703 178.113L9.79705 178.113Z" fill="#F9F9F9"/>
<path d="M248.622 67.2748C255.723 67.2748 261.48 61.3615 261.48 54.0671C261.48 46.7727 255.723 40.8594 248.622 40.8594C241.521 40.8594 235.764 46.7727 235.764 54.0671C235.764 61.3615 241.521 67.2748 248.622 67.2748Z" fill="#E8F6E9"/>
<path d="M7.49972 76.2875C10.5654 66.4543 18.0513 58.8283 26.9289 54.2926C37.4622 48.9111 49.5661 48.3018 61.0031 50.3963C73.3493 52.6573 84.8884 57.8696 96.0577 63.5577C107.013 69.137 117.792 75.0283 129.186 79.639C151.932 88.8306 176.041 93.9602 200.47 94.8061C222.458 95.5595 245.967 93.0848 264.794 80.3904C282.045 68.7589 293.022 49.5702 298.739 29.568C299.471 27.0073 300.121 24.4246 300.691 21.8198C300.857 21.0674 299.73 20.7461 299.564 21.5006C294.952 42.3879 285.118 63.0317 268.315 76.3463C250.142 90.7468 226.29 94.0758 203.97 93.6948C179.274 93.2519 154.84 88.4086 131.757 79.3808C120.07 74.8108 109.042 68.8765 97.8734 63.1474C86.95 57.5442 75.7198 52.299 63.7082 49.7148C52.7399 47.355 40.9967 47.2112 30.4217 51.4103C21.7139 54.868 13.7742 61.0311 9.12782 69.4619C7.99487 71.528 7.07159 73.7083 6.37254 75.9683C6.14257 76.7059 7.27081 77.0217 7.49972 76.2875V76.2875Z" fill="#E8F6E9"/>
<path d="M55.5486 151.43C55.5486 144.361 49.9662 127.588 43.08 127.588C36.1937 127.588 30.6113 144.361 30.6113 151.43C30.6113 154.827 31.925 158.084 34.2633 160.486C36.6016 162.888 39.7731 164.237 43.08 164.237C46.3869 164.237 49.5583 162.888 51.8966 160.486C54.235 158.084 55.5486 154.827 55.5486 151.43H55.5486Z" fill="#F9F9F9"/>
<path d="M52.4319 151.43C52.4319 144.361 46.8495 127.588 39.9633 127.588C33.077 127.588 27.4946 144.361 27.4946 151.43C27.4946 154.827 28.8083 158.084 31.1466 160.486C33.4849 162.888 36.6564 164.237 39.9633 164.237C43.2702 164.237 46.4416 162.888 48.7799 160.486C51.1183 158.084 52.4319 154.827 52.4319 151.43H52.4319Z" fill="#E8F6E9"/>
<path d="M40.3535 180.069C40.2502 180.069 40.1511 180.027 40.078 179.952C40.0049 179.877 39.9639 179.775 39.9639 179.669V143.992C39.9639 143.886 40.0049 143.784 40.078 143.709C40.1511 143.634 40.2502 143.592 40.3535 143.592C40.4569 143.592 40.556 143.634 40.629 143.709C40.7021 143.784 40.7432 143.886 40.7432 143.992V179.669C40.7432 179.775 40.7021 179.877 40.629 179.952C40.556 180.027 40.4569 180.069 40.3535 180.069Z" fill="#F9F9F9"/>
<path d="M40.3534 149.839C40.2764 149.839 40.2011 149.816 40.137 149.772C40.0729 149.728 40.023 149.665 39.9935 149.592C39.964 149.519 39.9563 149.439 39.9713 149.361C39.9864 149.284 40.0235 149.212 40.078 149.156L45.1736 143.922C45.2467 143.847 45.3457 143.805 45.4491 143.805C45.5524 143.805 45.6515 143.847 45.7246 143.922C45.7976 143.997 45.8387 144.099 45.8387 144.205C45.8387 144.311 45.7976 144.413 45.7246 144.488L40.6289 149.722C40.5928 149.759 40.5499 149.789 40.5026 149.809C40.4553 149.829 40.4046 149.839 40.3534 149.839V149.839Z" fill="#F9F9F9"/>
<path d="M161.511 180.069C161.407 180.069 161.308 180.027 161.235 179.952C161.162 179.877 161.121 179.775 161.121 179.669V143.992C161.121 143.886 161.162 143.784 161.235 143.709C161.308 143.634 161.407 143.592 161.511 143.592C161.614 143.592 161.713 143.634 161.786 143.709C161.859 143.784 161.9 143.886 161.9 143.992V179.669C161.9 179.775 161.859 179.877 161.786 179.952C161.713 180.027 161.614 180.069 161.511 180.069Z" fill="#3F3D56"/>
<path d="M203.203 151.43C203.203 144.361 197.621 127.588 190.735 127.588C183.849 127.588 178.266 144.361 178.266 151.43C178.266 154.827 179.58 158.084 181.918 160.486C184.256 162.888 187.428 164.237 190.735 164.237C194.042 164.237 197.213 162.888 199.551 160.486C201.89 158.084 203.203 154.827 203.203 151.43H203.203Z" fill="#F9F9F9"/>
<path d="M200.086 151.43C200.086 144.361 194.503 127.588 187.617 127.588C180.731 127.588 175.148 144.361 175.148 151.43C175.148 154.827 176.462 158.084 178.8 160.486C181.139 162.888 184.31 164.237 187.617 164.237C190.924 164.237 194.095 162.888 196.434 160.486C198.772 158.084 200.086 154.827 200.086 151.43H200.086Z" fill="#E8F6E9"/>
<path d="M188.008 180.069C187.905 180.069 187.806 180.027 187.733 179.952C187.66 179.877 187.619 179.775 187.619 179.669V143.992C187.619 143.886 187.66 143.784 187.733 143.709C187.806 143.634 187.905 143.592 188.008 143.592C188.112 143.592 188.211 143.634 188.284 143.709C188.357 143.784 188.398 143.886 188.398 143.992V179.669C188.398 179.775 188.357 179.877 188.284 179.952C188.211 180.027 188.112 180.069 188.008 180.069Z" fill="#F9F9F9"/>
<path d="M188.008 149.839C187.931 149.839 187.856 149.816 187.792 149.772C187.728 149.728 187.678 149.665 187.648 149.592C187.619 149.519 187.611 149.439 187.626 149.361C187.641 149.284 187.678 149.212 187.733 149.156L192.828 143.922C192.901 143.847 193.001 143.805 193.104 143.805C193.207 143.805 193.306 143.847 193.379 143.922C193.452 143.997 193.493 144.099 193.493 144.205C193.493 144.311 193.452 144.413 193.379 144.488L188.284 149.722C188.248 149.759 188.205 149.789 188.157 149.809C188.11 149.829 188.059 149.839 188.008 149.839Z" fill="#F9F9F9"/>
<path d="M81.6562 41.8053H75.4219C74.957 41.8048 74.5113 41.6148 74.1826 41.2772C73.8539 40.9395 73.669 40.4818 73.6685 40.0042V25.1956C73.669 24.7181 73.8539 24.2603 74.1826 23.9226C74.5113 23.585 74.957 23.3951 75.4219 23.3945H81.6562C82.121 23.3951 82.5667 23.585 82.8954 23.9226C83.2242 24.2603 83.4091 24.7181 83.4096 25.1956V40.0042C83.4091 40.4818 83.2242 40.9395 82.8954 41.2772C82.5667 41.6148 82.121 41.8048 81.6562 41.8053V41.8053Z" fill="#F9F9F9"/>
<path d="M106.203 179.889H74.2524C73.3743 179.888 72.5325 179.529 71.9116 178.891C71.2907 178.254 70.9414 177.389 70.9404 176.487V44.0094C70.9414 43.1075 71.2907 42.2427 71.9116 41.605C72.5325 40.9672 73.3743 40.6084 74.2524 40.6074H106.203C107.081 40.6084 107.923 40.9672 108.544 41.605C109.165 42.2427 109.514 43.1075 109.515 44.0094V176.487C109.514 177.389 109.165 178.254 108.544 178.891C107.923 179.529 107.081 179.888 106.203 179.889V179.889Z" fill="#F9F9F9"/>
<path d="M87.1095 179.889H55.1587C54.2806 179.888 53.4387 179.529 52.8178 178.891C52.1969 178.254 51.8477 177.389 51.8467 176.487V44.0094C51.8477 43.1075 52.1969 42.2427 52.8178 41.605C53.4387 40.9672 54.2806 40.6084 55.1587 40.6074H87.1095C87.9876 40.6084 88.8294 40.9672 89.4503 41.605C90.0713 42.2427 90.4205 43.1075 90.4215 44.0094V176.487C90.4205 177.389 90.0713 178.254 89.4503 178.891C88.8294 179.529 87.9876 179.888 87.1095 179.889V179.889Z" fill="#E8F6E9"/>
<path d="M75.8114 41.8053H69.5771C69.1123 41.8048 68.6666 41.6148 68.3379 41.2772C68.0091 40.9395 67.8242 40.4818 67.8237 40.0042V25.1956C67.8242 24.7181 68.0091 24.2603 68.3379 23.9226C68.6666 23.585 69.1123 23.3951 69.5771 23.3945H75.8114C76.2763 23.3951 76.722 23.585 77.0507 23.9226C77.3794 24.2603 77.5643 24.7181 77.5648 25.1956V40.0042C77.5643 40.4818 77.3794 40.9395 77.0507 41.2772C76.722 41.6148 76.2763 41.8048 75.8114 41.8053V41.8053Z" fill="#E8F6E9"/>
<path d="M67.6283 70.6216H60.2251C59.9668 70.6213 59.7192 70.5158 59.5366 70.3282C59.354 70.1407 59.2513 69.8863 59.251 69.6211V58.0143C59.2513 57.749 59.354 57.4946 59.5366 57.3071C59.7192 57.1195 59.9668 57.014 60.2251 57.0137H67.6283C67.8866 57.014 68.1342 57.1195 68.3168 57.3071C68.4994 57.4946 68.6022 57.749 68.6025 58.0143V69.6211C68.6022 69.8863 68.4994 70.1407 68.3168 70.3282C68.1342 70.5158 67.8866 70.6213 67.6283 70.6216V70.6216Z" fill="#F9F9F9"/>
<path d="M82.0458 70.6216H74.6426C74.3843 70.6213 74.1367 70.5158 73.9541 70.3282C73.7715 70.1407 73.6688 69.8863 73.6685 69.6211V58.0143C73.6688 57.749 73.7715 57.4946 73.9541 57.3071C74.1367 57.1195 74.3843 57.014 74.6426 57.0137H82.0458C82.3041 57.014 82.5517 57.1195 82.7343 57.3071C82.9169 57.4946 83.0196 57.749 83.0199 58.0143V69.6211C83.0196 69.8863 82.9169 70.1407 82.7343 70.3282C82.5517 70.5158 82.3041 70.6213 82.0458 70.6216V70.6216Z" fill="#F9F9F9"/>
<path d="M67.6283 91.8365H60.2251C59.9668 91.8362 59.7192 91.7307 59.5366 91.5431C59.354 91.3555 59.2513 91.1012 59.251 90.8359V79.2291C59.2513 78.9638 59.354 78.7095 59.5366 78.5219C59.7192 78.3343 59.9668 78.2288 60.2251 78.2285H67.6283C67.8866 78.2288 68.1342 78.3343 68.3168 78.5219C68.4994 78.7095 68.6022 78.9638 68.6025 79.2291V90.8359C68.6022 91.1012 68.4994 91.3555 68.3168 91.5431C68.1342 91.7307 67.8866 91.8362 67.6283 91.8365V91.8365Z" fill="#F9F9F9"/>
<path d="M82.0458 91.8365H74.6426C74.3843 91.8362 74.1367 91.7307 73.9541 91.5431C73.7715 91.3555 73.6688 91.1012 73.6685 90.8359V79.2291C73.6688 78.9638 73.7715 78.7095 73.9541 78.5219C74.1367 78.3343 74.3843 78.2288 74.6426 78.2285H82.0458C82.3041 78.2288 82.5517 78.3343 82.7343 78.5219C82.9169 78.7095 83.0196 78.9638 83.0199 79.2291V90.8359C83.0196 91.1012 82.9169 91.3555 82.7343 91.5431C82.5517 91.7307 82.3041 91.8362 82.0458 91.8365V91.8365Z" fill="#F9F9F9"/>
<path d="M67.6283 113.051H60.2251C59.9668 113.051 59.7192 112.945 59.5366 112.758C59.354 112.57 59.2513 112.316 59.251 112.051V100.444C59.2513 100.179 59.354 99.9243 59.5366 99.7368C59.7192 99.5492 59.9668 99.4437 60.2251 99.4434H67.6283C67.8866 99.4437 68.1342 99.5492 68.3168 99.7368C68.4994 99.9243 68.6022 100.179 68.6025 100.444V112.051C68.6022 112.316 68.4994 112.57 68.3168 112.758C68.1342 112.945 67.8866 113.051 67.6283 113.051V113.051Z" fill="#F9F9F9"/>
<path d="M82.0458 113.051H74.6426C74.3843 113.051 74.1367 112.945 73.9541 112.758C73.7715 112.57 73.6688 112.316 73.6685 112.051V100.444C73.6688 100.179 73.7715 99.9243 73.9541 99.7368C74.1367 99.5492 74.3843 99.4437 74.6426 99.4434H82.0458C82.3041 99.4437 82.5517 99.5492 82.7343 99.7368C82.9169 99.9243 83.0196 100.179 83.0199 100.444V112.051C83.0196 112.316 82.9169 112.57 82.7343 112.758C82.5517 112.945 82.3041 113.051 82.0458 113.051V113.051Z" fill="#F9F9F9"/>
<path d="M67.6283 134.26H60.2251C59.9668 134.26 59.7192 134.154 59.5366 133.967C59.354 133.779 59.2513 133.525 59.251 133.26V121.653C59.2513 121.388 59.354 121.133 59.5366 120.946C59.7192 120.758 59.9668 120.653 60.2251 120.652H67.6283C67.8866 120.653 68.1342 120.758 68.3168 120.946C68.4994 121.133 68.6022 121.388 68.6025 121.653V133.26C68.6022 133.525 68.4994 133.779 68.3168 133.967C68.1342 134.154 67.8866 134.26 67.6283 134.26V134.26Z" fill="#F9F9F9"/>
<path d="M82.0458 134.26H74.6426C74.3843 134.26 74.1367 134.154 73.9541 133.967C73.7715 133.779 73.6688 133.525 73.6685 133.26V121.653C73.6688 121.388 73.7715 121.133 73.9541 120.946C74.1367 120.758 74.3843 120.653 74.6426 120.652H82.0458C82.3041 120.653 82.5517 120.758 82.7343 120.946C82.9169 121.133 83.0196 121.388 83.0199 121.653V133.26C83.0196 133.525 82.9169 133.779 82.7343 133.967C82.5517 134.154 82.3041 134.26 82.0458 134.26V134.26Z" fill="#F9F9F9"/>
<path d="M67.6283 155.475H60.2251C59.9668 155.475 59.7192 155.369 59.5366 155.182C59.354 154.994 59.2513 154.74 59.251 154.475V142.868C59.2513 142.602 59.354 142.348 59.5366 142.161C59.7192 141.973 59.9668 141.867 60.2251 141.867H67.6283C67.8866 141.867 68.1342 141.973 68.3168 142.161C68.4994 142.348 68.6022 142.602 68.6025 142.868V154.475C68.6022 154.74 68.4994 154.994 68.3168 155.182C68.1342 155.369 67.8866 155.475 67.6283 155.475V155.475Z" fill="#F9F9F9"/>
<path d="M82.0458 155.475H74.6426C74.3843 155.475 74.1367 155.369 73.9541 155.182C73.7715 154.994 73.6688 154.74 73.6685 154.475V142.868C73.6688 142.602 73.7715 142.348 73.9541 142.161C74.1367 141.973 74.3843 141.867 74.6426 141.867H82.0458C82.3041 141.867 82.5517 141.973 82.7343 142.161C82.9169 142.348 83.0196 142.602 83.0199 142.868V154.475C83.0196 154.74 82.9169 154.994 82.7343 155.182C82.5517 155.369 82.3041 155.475 82.0458 155.475V155.475Z" fill="#F9F9F9"/>
<path d="M240.365 111.847H234.13C233.665 111.846 233.22 111.656 232.891 111.319C232.562 110.981 232.377 110.523 232.377 110.046V101.641C232.377 101.163 232.562 100.706 232.891 100.368C233.22 100.03 233.665 99.8404 234.13 99.8398H240.365C240.83 99.8404 241.275 100.03 241.604 100.368C241.933 100.706 242.118 101.163 242.118 101.641V110.046C242.118 110.523 241.933 110.981 241.604 111.319C241.275 111.656 240.83 111.846 240.365 111.847Z" fill="#F9F9F9"/>
<path d="M292.968 180.285H261.017C260.139 180.284 259.297 179.925 258.676 179.287C258.055 178.65 257.706 177.785 257.705 176.883V113.246C257.706 112.344 258.055 111.479 258.676 110.841C259.297 110.204 260.139 109.845 261.017 109.844H292.968C293.846 109.845 294.688 110.204 295.309 110.841C295.93 111.479 296.279 112.344 296.28 113.246V176.883C296.279 177.785 295.93 178.65 295.309 179.287C294.688 179.925 293.846 180.284 292.968 180.285V180.285Z" fill="#F9F9F9"/>
<path d="M273.875 180.285H218.545C217.667 180.284 216.825 179.925 216.205 179.287C215.584 178.65 215.234 177.785 215.233 176.883V113.246C215.234 112.344 215.584 111.479 216.205 110.841C216.825 110.204 217.667 109.845 218.545 109.844H273.875C274.753 109.845 275.595 110.204 276.216 110.841C276.837 111.479 277.186 112.344 277.187 113.246V176.883C277.186 177.785 276.837 178.65 276.216 179.287C275.595 179.925 274.753 180.284 273.875 180.285V180.285Z" fill="#E8F6E9"/>
<path d="M234.52 111.847H228.286C227.821 111.846 227.376 111.656 227.047 111.319C226.718 110.981 226.533 110.523 226.533 110.046V101.641C226.533 101.163 226.718 100.706 227.047 100.368C227.376 100.03 227.821 99.8404 228.286 99.8398H234.52C234.985 99.8404 235.431 100.03 235.76 100.368C236.088 100.706 236.273 101.163 236.274 101.641V110.046C236.273 110.523 236.088 110.981 235.76 111.319C235.431 111.656 234.985 111.846 234.52 111.847V111.847Z" fill="#E8F6E9"/>
<path d="M242.703 141.268H235.299C235.041 141.268 234.793 141.162 234.611 140.975C234.428 140.787 234.325 140.533 234.325 140.268V128.661C234.325 128.395 234.428 128.141 234.611 127.954C234.793 127.766 235.041 127.66 235.299 127.66H242.703C242.961 127.66 243.208 127.766 243.391 127.954C243.574 128.141 243.676 128.395 243.677 128.661V140.268C243.676 140.533 243.574 140.787 243.391 140.975C243.208 141.162 242.961 141.268 242.703 141.268V141.268Z" fill="#F9F9F9"/>
<path d="M257.119 141.268H249.715C249.457 141.268 249.209 141.162 249.027 140.975C248.844 140.787 248.742 140.533 248.741 140.268V128.661C248.742 128.395 248.844 128.141 249.027 127.954C249.209 127.766 249.457 127.66 249.715 127.66H257.119C257.377 127.66 257.624 127.766 257.807 127.954C257.99 128.141 258.092 128.395 258.093 128.661V140.268C258.092 140.533 257.99 140.787 257.807 140.975C257.624 141.162 257.377 141.268 257.119 141.268V141.268Z" fill="#F9F9F9"/>
<path d="M242.703 162.477H235.299C235.041 162.477 234.793 162.371 234.611 162.184C234.428 161.996 234.325 161.742 234.325 161.477V149.87C234.325 149.604 234.428 149.35 234.611 149.163C234.793 148.975 235.041 148.869 235.299 148.869H242.703C242.961 148.869 243.208 148.975 243.391 149.163C243.574 149.35 243.676 149.604 243.677 149.87V161.477C243.676 161.742 243.574 161.996 243.391 162.184C243.208 162.371 242.961 162.477 242.703 162.477V162.477Z" fill="#F9F9F9"/>
<path d="M257.119 162.477H249.715C249.457 162.477 249.209 162.371 249.027 162.184C248.844 161.996 248.742 161.742 248.741 161.477V149.87C248.742 149.604 248.844 149.35 249.027 149.163C249.209 148.975 249.457 148.869 249.715 148.869H257.119C257.377 148.869 257.624 148.975 257.807 149.163C257.99 149.35 258.092 149.604 258.093 149.87V161.477C258.092 161.742 257.99 161.996 257.807 162.184C257.624 162.371 257.377 162.477 257.119 162.477Z" fill="#F9F9F9"/>
<path d="M133.089 151.43C133.089 144.361 127.506 127.588 120.62 127.588C113.734 127.588 108.151 144.361 108.151 151.43C108.151 154.827 109.465 158.084 111.803 160.486C114.142 162.888 117.313 164.237 120.62 164.237C123.927 164.237 127.098 162.888 129.437 160.486C131.775 158.084 133.089 154.827 133.089 151.43H133.089Z" fill="#F9F9F9"/>
<path d="M129.97 151.43C129.97 144.361 124.388 127.588 117.502 127.588C110.616 127.588 105.033 144.361 105.033 151.43C105.033 154.827 106.347 158.084 108.685 160.486C111.024 162.888 114.195 164.237 117.502 164.237C120.809 164.237 123.98 162.888 126.319 160.486C128.657 158.084 129.971 154.827 129.971 151.43H129.97Z" fill="#E8F6E9"/>
<path d="M117.892 180.069C117.789 180.069 117.69 180.027 117.617 179.952C117.543 179.877 117.502 179.775 117.502 179.669V143.992C117.502 143.886 117.543 143.784 117.617 143.709C117.69 143.634 117.789 143.592 117.892 143.592C117.995 143.592 118.095 143.634 118.168 143.709C118.241 143.784 118.282 143.886 118.282 143.992V179.669C118.282 179.775 118.241 179.877 118.168 179.952C118.095 180.027 117.995 180.069 117.892 180.069Z" fill="#F9F9F9"/>
<path d="M117.892 149.839C117.815 149.839 117.74 149.816 117.676 149.772C117.612 149.728 117.562 149.665 117.532 149.592C117.503 149.519 117.495 149.439 117.51 149.361C117.525 149.284 117.562 149.212 117.617 149.156L122.712 143.922C122.785 143.847 122.884 143.805 122.988 143.805C123.091 143.805 123.19 143.847 123.263 143.922C123.336 143.997 123.377 144.099 123.377 144.205C123.377 144.311 123.336 144.413 123.263 144.488L118.168 149.722C118.131 149.759 118.088 149.789 118.041 149.809C117.994 149.829 117.943 149.839 117.892 149.839Z" fill="#F9F9F9"/>
<path d="M329.983 151.43C329.983 144.361 324.401 127.588 317.515 127.588C310.628 127.588 305.046 144.361 305.046 151.43C305.046 154.827 306.36 158.084 308.698 160.486C311.036 162.888 314.208 164.237 317.515 164.237C320.821 164.237 323.993 162.888 326.331 160.486C328.67 158.084 329.983 154.827 329.983 151.43H329.983Z" fill="#F9F9F9"/>
<path d="M326.865 151.43C326.865 144.361 321.283 127.588 314.396 127.588C307.51 127.588 301.928 144.361 301.928 151.43C301.928 154.827 303.241 158.084 305.58 160.486C307.918 162.888 311.089 164.237 314.396 164.237C317.703 164.237 320.875 162.888 323.213 160.486C325.551 158.084 326.865 154.827 326.865 151.43H326.865Z" fill="#E8F6E9"/>
<path d="M314.787 180.069C314.683 180.069 314.584 180.027 314.511 179.952C314.438 179.877 314.397 179.775 314.397 179.669V143.992C314.397 143.886 314.438 143.784 314.511 143.709C314.584 143.634 314.683 143.592 314.787 143.592C314.89 143.592 314.989 143.634 315.062 143.709C315.135 143.784 315.176 143.886 315.176 143.992V179.669C315.176 179.775 315.135 179.877 315.062 179.952C314.989 180.027 314.89 180.069 314.787 180.069Z" fill="#F9F9F9"/>
<path d="M314.787 149.839C314.709 149.839 314.634 149.816 314.57 149.772C314.506 149.728 314.456 149.665 314.427 149.592C314.397 149.519 314.389 149.439 314.404 149.361C314.419 149.284 314.457 149.212 314.511 149.156L319.607 143.922C319.68 143.847 319.779 143.805 319.882 143.805C319.986 143.805 320.085 143.847 320.158 143.922C320.231 143.997 320.272 144.099 320.272 144.205C320.272 144.311 320.231 144.413 320.158 144.488L315.062 149.722C315.026 149.759 314.983 149.789 314.936 149.809C314.888 149.829 314.838 149.839 314.787 149.839V149.839Z" fill="#F9F9F9"/>
<path d="M324.733 179.351C324.735 177.53 325.44 175.784 326.694 174.497C327.948 173.209 329.649 172.486 331.422 172.486C333.195 172.486 334.895 173.209 336.149 174.497C337.404 175.784 338.109 177.53 338.11 179.351" fill="#E8F6E9"/>
<path d="M331.421 179.355C331.373 179.355 331.327 179.336 331.293 179.301C331.259 179.266 331.24 179.219 331.24 179.17V175.549C331.24 175.5 331.259 175.452 331.293 175.418C331.327 175.383 331.373 175.363 331.421 175.363C331.468 175.363 331.514 175.383 331.548 175.418C331.582 175.452 331.601 175.5 331.601 175.549V179.17C331.601 179.219 331.582 179.266 331.548 179.301C331.514 179.336 331.468 179.355 331.421 179.355V179.355Z" fill="#F9F9F9"/>
<path d="M331.421 178.113C331.378 178.113 331.336 178.097 331.303 178.068L329.134 176.156C329.116 176.14 329.101 176.121 329.09 176.099C329.079 176.077 329.072 176.053 329.07 176.029C329.068 176.004 329.071 175.98 329.079 175.956C329.086 175.933 329.098 175.911 329.113 175.893C329.129 175.874 329.148 175.859 329.169 175.848C329.191 175.837 329.214 175.83 329.238 175.829C329.261 175.827 329.285 175.83 329.308 175.838C329.331 175.846 329.352 175.858 329.37 175.874L331.539 177.786C331.567 177.811 331.587 177.844 331.596 177.881C331.605 177.917 331.603 177.956 331.591 177.992C331.578 178.027 331.555 178.058 331.524 178.08C331.494 178.101 331.458 178.113 331.421 178.113L331.421 178.113Z" fill="#F9F9F9"/>
<path d="M345.34 179.351C345.341 177.53 346.046 175.784 347.301 174.497C348.555 173.209 350.255 172.486 352.028 172.486C353.801 172.486 355.502 173.209 356.756 174.497C358.01 175.784 358.715 177.53 358.717 179.351" fill="#E8F6E9"/>
</g>
<path d="M172.465 96.0703H168.465V127.07H172.465V96.0703Z" fill="#19A526"/>
<path d="M164.465 174.41C164.463 175.911 163.855 177.349 162.773 178.41C161.692 179.471 160.226 180.068 158.697 180.07H117.235C116.094 180.071 114.978 179.74 114.029 179.118C113.08 178.497 112.34 177.613 111.904 176.578C111.467 175.544 111.353 174.405 111.577 173.307C111.8 172.209 112.351 171.201 113.158 170.41L115.89 167.73C116.972 166.67 117.58 165.231 117.582 163.73V160.07C117.582 155.827 119.3 151.757 122.358 148.757C125.416 145.756 129.564 144.07 133.889 144.07H142.043C144.654 144.067 147.227 144.682 149.544 145.862C151.861 147.043 153.854 148.754 155.354 150.85C157.312 153.54 158.36 156.765 158.35 160.07V163.73C158.352 165.231 158.96 166.67 160.042 167.73L162.773 170.41C163.855 171.471 164.464 172.91 164.465 174.41Z" fill="#19A526"/>
<path d="M164.465 174.259C164.463 175.8 163.866 177.277 162.804 178.366C161.742 179.455 160.303 180.068 158.801 180.07H138.465C138.544 178.653 139.128 177.316 140.107 176.313L142.789 173.561C143.851 172.472 144.449 170.995 144.45 169.454V165.697C144.45 162.227 145.52 158.845 147.509 156.038C149.497 153.231 152.301 151.142 155.518 150.07C157.442 152.832 158.471 156.143 158.461 159.536V163.294C158.462 164.835 159.06 166.312 160.122 167.401L162.804 170.152C163.866 171.241 164.464 172.719 164.465 174.259Z" fill="#19A526"/>
<path d="M141.715 135.07C142.709 135.074 143.661 135.549 144.364 136.392C145.066 137.235 145.462 138.378 145.465 139.57C145.458 140.761 145.061 141.9 144.359 142.743C143.657 143.585 142.708 144.062 141.715 144.07H134.215C133.222 144.067 132.27 143.592 131.567 142.748C130.864 141.905 130.468 140.763 130.465 139.57C130.473 138.38 130.87 137.24 131.572 136.398C132.273 135.556 133.223 135.079 134.215 135.07H141.715Z" fill="#189224"/>
<path d="M209.359 136.398C209.712 136.811 209.991 137.304 210.181 137.849C210.371 138.394 210.468 138.979 210.465 139.57C210.462 140.763 210.066 141.905 209.364 142.748C208.661 143.592 207.709 144.067 206.715 144.07H199.215C198.223 144.062 197.274 143.585 196.572 142.743C195.87 141.901 195.473 140.761 195.465 139.57C195.468 138.378 195.864 137.236 196.567 136.392C197.27 135.549 198.222 135.074 199.215 135.07H206.715C207.208 135.067 207.696 135.183 208.15 135.411C208.604 135.639 209.015 135.975 209.359 136.398Z" fill="#189224"/>
<path d="M145.465 96.7067H141.715V110.07H134.215V96.7067H130.465L137.965 89.0703L145.465 96.7067Z" fill="#FF8500"/>
<path d="M210.465 96.7067H206.715V110.07H199.215V96.7067H195.465L202.965 89.0703L210.465 96.7067Z" fill="#FF8500"/>
<path d="M131.465 123.07C135.465 123.07 133.465 125.07 137.465 125.07C141.465 125.07 139.465 123.07 143.465 123.07C147.465 123.07 145.465 125.07 149.465 125.07L141.465 135.07H133.465L125.465 125.07C129.465 125.07 127.465 123.07 131.465 123.07Z" fill="#19A526"/>
<path d="M209.465 123.07C213.465 123.07 211.465 125.07 215.465 125.07L207.465 135.07H199.465L191.465 125.07C195.465 125.07 193.465 123.07 197.465 123.07C201.465 123.07 199.465 125.07 203.465 125.07C207.465 125.07 205.465 123.07 209.465 123.07Z" fill="#19A526"/>
<path d="M229.465 174.41C229.463 175.911 228.855 177.349 227.773 178.41C226.692 179.471 225.226 180.068 223.697 180.07H182.235C181.094 180.071 179.978 179.74 179.029 179.118C178.08 178.497 177.34 177.613 176.904 176.578C176.467 175.544 176.353 174.405 176.577 173.307C176.8 172.209 177.351 171.201 178.158 170.41L180.89 167.73C181.972 166.67 182.58 165.231 182.582 163.73V160.07C182.571 156.765 183.62 153.54 185.578 150.85C187.078 148.754 189.071 147.043 191.388 145.862C193.705 144.682 196.278 144.067 198.889 144.07H207.043C211.368 144.07 215.516 145.756 218.574 148.757C221.632 151.757 223.35 155.827 223.35 160.07V163.73C223.352 165.231 223.96 166.67 225.042 167.73L227.773 170.41C228.855 171.471 229.464 172.91 229.465 174.41Z" fill="#19A526"/>
<path d="M170.465 98.0703C180.959 98.0703 189.465 90.0115 189.465 80.0703C189.465 70.1292 180.959 62.0703 170.465 62.0703C159.972 62.0703 151.465 70.1292 151.465 80.0703C151.465 90.0115 159.972 98.0703 170.465 98.0703Z" fill="#FF8500"/>
<path d="M169.042 111.45L170.465 115.277L166.552 115.908C163.715 116.378 160.809 115.82 158.321 114.327C155.833 112.834 153.915 110.498 152.888 107.709L151.465 103.882L155.378 103.23C158.217 102.764 161.125 103.326 163.612 104.823C166.1 106.319 168.017 108.659 169.042 111.45Z" fill="#19A526"/>
<path d="M189.465 103.882L188.042 107.709C187.016 110.498 185.097 112.834 182.609 114.327C180.121 115.82 177.215 116.378 174.378 115.908L170.465 115.277L171.888 111.45C172.914 108.659 174.831 106.319 177.318 104.823C179.806 103.326 182.713 102.764 185.552 103.23L189.465 103.882Z" fill="#19A526"/>
<path d="M179.285 136.398C179.661 136.811 179.959 137.304 180.162 137.849C180.365 138.394 180.468 138.979 180.465 139.57C180.462 140.763 180.04 141.905 179.29 142.748C178.541 143.592 177.525 144.067 176.465 144.07H164.465C163.407 144.062 162.394 143.585 161.646 142.743C160.897 141.901 160.473 140.761 160.465 139.57C160.469 138.378 160.891 137.236 161.64 136.392C162.39 135.549 163.406 135.074 164.465 135.07H176.465C176.99 135.067 177.511 135.183 177.995 135.411C178.48 135.639 178.918 135.975 179.285 136.398Z" fill="#018045"/>
<path d="M178.465 123.07C182.465 123.07 180.465 125.07 184.465 125.07L176.465 135.07H164.465L156.465 125.07C160.465 125.07 158.465 123.07 162.465 123.07C166.465 123.07 166.465 125.07 170.465 125.07C174.465 125.07 174.465 123.07 178.465 123.07Z" fill="#006838"/>
<path d="M202.465 180.07H182.131C181.01 180.071 179.915 179.731 178.983 179.093C178.051 178.455 177.325 177.547 176.896 176.485C176.467 175.423 176.355 174.254 176.575 173.127C176.794 171.999 177.335 170.964 178.128 170.152L180.81 167.401C181.872 166.312 182.469 164.835 182.471 163.294V159.536C182.461 156.143 183.49 152.832 185.413 150.07C188.63 151.142 191.434 153.231 193.422 156.038C195.411 158.845 196.481 162.227 196.481 165.697V169.454C196.482 170.995 197.08 172.472 198.142 173.561L200.824 176.313C201.802 177.316 202.387 178.653 202.465 180.07Z" fill="#19A526"/>
<path d="M197.745 170.41C198.566 171.201 199.125 172.209 199.352 173.307C199.579 174.405 199.463 175.544 199.02 176.578C198.576 177.613 197.824 178.497 196.86 179.118C195.896 179.74 194.762 180.071 193.602 180.07H147.328C146.169 180.071 145.035 179.74 144.071 179.118C143.106 178.497 142.355 177.613 141.911 176.578C141.467 175.544 141.352 174.405 141.579 173.307C141.805 172.209 142.365 171.201 143.186 170.41L145.961 167.73C147.061 166.67 147.679 165.231 147.681 163.73V160.07C147.681 155.827 149.427 151.757 152.534 148.757C155.642 145.756 159.857 144.07 164.251 144.07H176.679C181.074 144.07 185.289 145.756 188.397 148.757C191.504 151.757 193.25 155.827 193.25 160.07V163.73C193.252 165.231 193.87 166.67 194.969 167.73L197.745 170.41Z" fill="#006838"/>
<path d="M172.465 78.0703H168.465C167.935 78.0703 167.426 77.8595 167.051 77.4845C166.676 77.1095 166.465 76.6007 166.465 76.0703C166.465 75.5399 166.676 75.0312 167.051 74.6561C167.426 74.281 167.935 74.0703 168.465 74.0703H172.465C172.996 74.0703 173.505 74.281 173.88 74.6561C174.255 75.0312 174.465 75.5399 174.465 76.0703H178.465C178.465 74.479 177.833 72.9529 176.708 71.8277C175.583 70.7025 174.057 70.0703 172.465 70.0703V68.0703H168.465V70.0703C166.874 70.0703 165.348 70.7025 164.223 71.8277C163.098 72.9529 162.465 74.479 162.465 76.0703C162.465 77.6615 163.098 79.1877 164.223 80.3129C165.348 81.4381 166.874 82.0703 168.465 82.0703H172.465C172.996 82.0703 173.505 82.2811 173.88 82.6561C174.255 83.0311 174.465 83.5399 174.465 84.0703C174.465 84.6007 174.255 85.1095 173.88 85.4845C173.505 85.8595 172.996 86.0703 172.465 86.0703H168.465C167.935 86.0703 167.426 85.8595 167.051 85.4845C166.676 85.1095 166.465 84.6007 166.465 84.0703H162.465C162.465 85.6615 163.098 87.1877 164.223 88.3129C165.348 89.4381 166.874 90.0703 168.465 90.0703V92.0703H172.465V90.0703C174.057 90.0703 175.583 89.4381 176.708 88.3129C177.833 87.1877 178.465 85.6615 178.465 84.0703C178.465 82.4791 177.833 80.9529 176.708 79.8277C175.583 78.7025 174.057 78.0703 172.465 78.0703Z" fill="white"/>
</g>
<defs>
<clipPath id="clip0_856_102">
<path d="M0.5 10C0.5 4.47716 4.97715 0 10.5 0H335.5C341.023 0 345.5 4.47715 345.5 10V180H0.5V10Z" fill="white"/>
</clipPath>
</defs>
</svg>
