<svg width="346" height="180" viewBox="0 0 346 180" fill="none" xmlns="http://www.w3.org/2000/svg">
<g clip-path="url(#clip0_851_725)">
<path d="M0.5 10C0.5 4.47716 4.97715 0 10.5 0H335.5C341.023 0 345.5 4.47715 345.5 10V180H0.5V10Z" fill="#D9E8E1"/>
<g opacity="0.5">
<path d="M325.87 180.07H247.551V133.623L247.191 133.389L259.904 120.875C266.33 114.527 274.94 110.943 283.925 110.876L307.295 110.66L307.329 110.7L325.925 133.059L325.87 133.678L325.87 180.07Z" fill="#E8F6E9"/>
<path d="M309.349 118.947H261.695V119.983H309.349V118.947Z" fill="white"/>
<path d="M332.141 154.172H322.817V162.46H332.141V154.172Z" fill="white"/>
<path d="M332.141 141.74H322.817V148.992H332.141V141.74Z" fill="white"/>
<path d="M320.745 111.695H313.493V137.595H320.745V111.695Z" fill="#E8F6E9"/>
<path d="M325.925 180.07H283.45V149.296C283.452 142.179 285.997 135.296 290.626 129.881L307.069 110.66L325.925 133.043V180.07Z" fill="#FFF4E7"/>
<path d="M312.457 156.242H303.133V164.53H312.457V156.242Z" fill="white"/>
<path d="M312.457 143.811H303.133V151.062H312.457V143.811Z" fill="white"/>
<path d="M271.018 154.172H262.73V162.46H271.018V154.172Z" fill="white"/>
<path d="M271.018 141.74H262.73V148.992H271.018V141.74Z" fill="white"/>
<path d="M204.033 55.332H190.066V103.493H204.033V55.332Z" fill="#E8F6E9"/>
<path d="M213.567 179.588H70.3008V95.4432L69.6636 95.0326L69.8139 94.8862L95.9818 69.3818C105.759 59.8186 118.86 54.4195 132.532 54.3188L179.589 53.8887L179.64 53.9489L213.664 94.4509L213.566 95.5579L213.567 179.588Z" fill="#E8F6E9"/>
<path d="M213.665 179.588H137.09V117.804C137.093 108.819 140.291 100.129 146.112 93.2908L179.674 53.8887L213.665 94.4097V179.588Z" fill="#FFF4E7"/>
<path d="M188.14 137.689H175.618V148.766H188.14V137.689Z" fill="white"/>
<path d="M188.14 118.424H175.618V129.501H188.14V118.424Z" fill="white"/>
<path d="M113.972 133.84H98.5605V147.806H113.972V133.84Z" fill="white"/>
<path d="M113.972 110.234H98.5605V123.719H113.972V110.234Z" fill="white"/>
<path d="M15.8346 167.995C20.709 167.995 24.6604 159.677 24.6604 149.415C24.6604 139.153 20.709 130.834 15.8346 130.834C10.9602 130.834 7.00879 139.153 7.00879 149.415C7.00879 159.677 10.9602 167.995 15.8346 167.995Z" fill="#E8F6E9"/>
<path d="M16.6645 179.139C13.7668 157.377 16.6353 135.691 16.6645 135.475L17.2282 135.594C17.199 135.809 14.3471 157.38 17.2282 179.022L16.6645 179.139Z" fill="white"/>
<path d="M23.7231 144.942L15.5117 149.334L15.8502 149.967L24.0616 145.575L23.7231 144.942Z" fill="white"/>
<path d="M7.18438 147.143L6.8457 147.775L15.0561 152.17L15.3948 151.537L7.18438 147.143Z" fill="white"/>
<path d="M38.5958 162.418C45.7791 162.418 51.6023 150.563 51.6023 135.94C51.6023 121.317 45.7791 109.463 38.5958 109.463C31.4126 109.463 25.5894 121.317 25.5894 135.94C25.5894 150.563 31.4126 162.418 38.5958 162.418Z" fill="#E8F6E9"/>
<path d="M39.9471 180.069C34.8449 148.581 39.8955 117.208 39.9471 116.895L40.4551 116.983C40.4035 117.296 35.3678 148.584 40.4551 179.982L39.9471 180.069Z" fill="white"/>
<path d="M50.3844 129.589L38.5337 135.928L38.7834 136.395L50.6341 130.056L50.3844 129.589Z" fill="white"/>
<path d="M26.2762 133.697L26.0264 134.164L37.8753 140.506L38.1252 140.039L26.2762 133.697Z" fill="white"/>
<path d="M288.288 59.4274L293.5 55.1303C289.451 54.6707 287.787 56.9459 287.108 58.7477C283.944 57.3938 280.5 59.168 280.5 59.168L290.929 63.0703C290.403 61.6218 289.487 60.358 288.289 59.4269L288.288 59.4274Z" fill="#E8F6E9"/>
<path d="M212.288 27.4274L217.5 23.1303C213.451 22.6707 211.787 24.9459 211.108 26.7477C207.944 25.3938 204.5 27.168 204.5 27.168L214.929 31.0703C214.403 29.6218 213.486 28.3582 212.288 27.4274Z" fill="#E8F6E9"/>
<path d="M326.288 44.4274L331.5 40.1303C327.451 39.6707 325.787 41.9459 325.108 43.7477C321.944 42.3938 318.5 44.168 318.5 44.168L328.929 48.0703C328.403 46.6218 327.487 45.358 326.289 44.4269L326.288 44.4274Z" fill="#E8F6E9"/>
<path d="M188.14 80.6273L185.176 73.6348L179.227 73.7426L175.618 80.7139L175.691 80.8068H175.665V95.3071H188.132V80.8068L188.14 80.6273Z" fill="#E8F6E9"/>
<path d="M311.421 125.399L309.705 122.057L306.259 122.108L304.169 125.441L304.212 125.485H304.197V132.416H311.417V125.485L311.421 125.399Z" fill="#E8F6E9"/>
<path d="M165.023 70.7441H94.2266V71.2257H165.023V70.7441Z" fill="white"/>
<path d="M158.28 77.9668H87.4834V78.4484H158.28V77.9668Z" fill="white"/>
<path d="M320.745 116.877H313.493V117.913H320.745V116.877Z" fill="white"/>
<path d="M204.033 57.7402H190.066V58.2218H204.033V57.7402Z" fill="white"/>
<path d="M204.033 64.4863H190.066V65.4495H204.033V64.4863Z" fill="white"/>
</g>
<path d="M193.854 72.0703L176.367 75.9064V95.3065C176.357 98.7109 177.655 101.989 179.994 104.463C183.775 108.482 188.18 111.864 193.039 114.477C193.29 114.612 193.57 114.682 193.854 114.682C194.139 114.682 194.419 114.612 194.67 114.477C199.524 111.861 203.926 108.479 207.704 104.463C210.043 101.989 211.342 98.7109 211.331 95.3065V75.9064L193.854 72.0703Z" fill="#FF8500"/>
<path d="M185.5 90.5703L191.5 96.0703L204 84.5703" stroke="white" stroke-width="3" stroke-linecap="round" stroke-linejoin="round"/>
<path d="M120.361 139.715H112.425V147.651H120.361V139.715Z" fill="#006838"/>
<path d="M134.385 139.715H126.449V147.651H134.385V139.715Z" fill="#006838"/>
<path d="M120.361 154.031H112.425V161.967H120.361V154.031Z" fill="#006838"/>
<path d="M134.385 154.031H126.449V161.967H134.385V154.031Z" fill="#006838"/>
<path d="M138.237 111.85H130.301V119.786H138.237V111.85Z" fill="#006838"/>
<path d="M152.26 111.85H144.324V119.786H152.26V111.85Z" fill="#006838"/>
<path d="M144.464 173.797V124.285H124.232V107.354L158.261 94.4215V116.757H158.126V154.27L163.665 148.048V116.757L163.655 86.6016L118.839 103.626V122.494H100.543V179.191H163.665V174.974C163.217 174.589 162.78 174.203 162.343 173.797L144.464 173.797ZM140.872 173.797H105.937V127.888H140.872V173.797Z" fill="#19A526"/>
<path d="M252.086 151.61L240.525 146.975H240.173L221.468 135.602C217.283 133.058 212.48 131.713 207.583 131.713H189.868C188.342 131.717 186.831 132.022 185.423 132.611C184.014 133.199 182.736 134.06 181.661 135.144L169.984 146.975H169.968L169.923 147.037L169.315 147.653L169.409 147.746C168.34 149.229 166.643 151.632 164.89 154.348C164.012 155.706 163.545 157.288 163.545 158.905V169.615C163.545 170.134 163.751 170.632 164.119 170.999C164.486 171.366 164.984 171.573 165.503 171.573H174.433C174.933 173.813 176.182 175.816 177.973 177.251C179.765 178.686 181.991 179.468 184.287 179.468C186.582 179.468 188.809 178.686 190.6 177.251C192.392 175.816 193.64 173.813 194.141 171.573H229.241C229.741 173.814 230.989 175.818 232.78 177.254C234.572 178.69 236.799 179.472 239.095 179.472C241.391 179.472 243.619 178.69 245.41 177.254C247.201 175.818 248.45 173.814 248.949 171.573H257.351C257.871 171.573 258.369 171.366 258.736 170.999C259.103 170.632 259.309 170.134 259.31 169.615V160.293C259.31 158.229 258.587 156.231 257.268 154.645C255.948 153.059 254.115 151.985 252.086 151.61ZM184.286 175.555C183.064 175.555 181.87 175.192 180.854 174.514C179.839 173.835 179.047 172.87 178.58 171.741C178.112 170.613 177.99 169.371 178.228 168.173C178.467 166.975 179.055 165.874 179.919 165.01C180.783 164.146 181.883 163.558 183.081 163.32C184.28 163.081 185.521 163.204 186.65 163.671C187.779 164.138 188.743 164.93 189.422 165.946C190.101 166.961 190.464 168.155 190.464 169.377C190.464 170.188 190.304 170.992 189.994 171.741C189.683 172.491 189.228 173.172 188.655 173.746C188.081 174.32 187.4 174.775 186.65 175.085C185.901 175.395 185.097 175.555 184.286 175.555ZM199.978 146.975H175.503L184.457 137.903C185.166 137.188 186.009 136.621 186.937 136.233C187.866 135.844 188.862 135.643 189.868 135.641H199.978V146.975ZM228.8 146.975H203.532V135.641H207.583C211.76 135.641 215.857 136.788 219.427 138.959L228.8 144.657L228.8 146.975ZM239.096 175.555C237.481 175.555 235.93 174.922 234.776 173.792C233.622 172.662 232.956 171.125 232.922 169.511C232.887 167.896 233.486 166.332 234.59 165.154C235.695 163.975 237.217 163.276 238.831 163.207C238.918 163.203 239.006 163.201 239.096 163.201C240.734 163.201 242.306 163.852 243.464 165.01C244.622 166.169 245.273 167.74 245.273 169.378C245.273 171.016 244.622 172.587 243.464 173.746C242.306 174.904 240.734 175.555 239.096 175.555Z" fill="#006838"/>
</g>
<defs>
<clipPath id="clip0_851_725">
<path d="M0.5 10C0.5 4.47716 4.97715 0 10.5 0H335.5C341.023 0 345.5 4.47715 345.5 10V180H0.5V10Z" fill="white"/>
</clipPath>
</defs>
</svg>
