<svg width="346" height="180" viewBox="0 0 346 180" fill="none" xmlns="http://www.w3.org/2000/svg">
<g clip-path="url(#clip0_851_740)">
<path d="M0.5 10C0.5 4.47716 4.97715 0 10.5 0H335.5C341.023 0 345.5 4.47715 345.5 10V180H0.5V10Z" fill="#D9E8E1"/>
<g opacity="0.5">
<path d="M109.305 200.331C101.262 200.331 93.2314 200.272 85.2126 200.154C73.7547 199.986 61.9067 199.811 50.8944 197.308C43.1909 195.556 36.3681 192.747 31.1641 189.182C27.7309 186.812 25.174 184.184 23.6024 181.411C22.8335 180.076 22.2756 178.717 21.9331 177.344C20.9954 173.634 21.6599 169.872 23.8864 166.287C24.9676 164.571 26.4409 162.916 28.2802 161.351C36.311 154.534 50.9586 149.958 68.4674 148.796C68.6122 148.788 68.7582 148.787 68.9035 148.792C68.9822 148.794 69.0607 148.796 69.1407 148.794L69.2437 148.781C69.5092 148.743 69.7803 148.715 70.0547 148.696C97.0578 147.048 125.604 150.382 152.605 158.337C173.482 164.489 201.151 167.802 237.191 168.465L237.703 168.476C247.735 168.712 257.44 170.408 265.769 173.38C273.907 176.26 280.106 180.191 283.618 184.697C284.043 185.242 284.433 185.809 284.776 186.383C285.426 187.468 284.672 188.565 282.707 189.4L282.617 189.438C282.401 189.527 282.174 189.611 281.942 189.69L281.668 189.782C279.365 190.56 277.546 191.174 275.369 191.651C273.899 191.97 272.357 192.209 270.773 192.363C261.99 193.24 253.071 194.054 244.264 194.781C227.159 196.195 209.604 197.361 192.086 198.247C164.591 199.636 136.958 200.332 109.305 200.331ZM68.6987 149.034C68.6449 149.033 68.5912 149.035 68.5379 149.038C51.1928 150.189 36.6839 154.72 28.7327 161.47C26.9116 163.019 25.4529 164.658 24.3824 166.357C22.176 169.91 21.5178 173.638 22.4473 177.315C22.7867 178.676 23.3398 180.024 24.1019 181.346C25.6582 184.093 28.1902 186.696 31.5903 189.043C36.7434 192.573 43.4964 195.355 51.1192 197.087C62.0326 199.569 73.8247 199.742 85.2287 199.91C120.88 200.433 156.565 199.796 192.031 198.005C209.538 197.119 227.081 195.953 244.175 194.541C252.976 193.814 261.889 193.001 270.666 192.123C272.212 191.973 273.716 191.741 275.151 191.43C277.284 190.962 279.086 190.354 281.367 189.583L281.64 189.491C281.84 189.423 282.036 189.351 282.224 189.276L282.278 189.253C284.152 188.478 284.881 187.456 284.278 186.449C283.938 185.882 283.553 185.32 283.132 184.781C276.071 175.648 257.804 169.194 237.678 168.72L237.169 168.709C220.706 168.406 206.3 167.568 193.129 166.145C177.406 164.446 163.68 161.889 152.331 158.545C125.433 150.62 97.0058 147.298 70.1207 148.938C69.8707 148.956 69.6237 148.982 69.3819 149.016L69.1962 149.038C69.0893 149.04 68.9843 149.038 68.8797 149.036C68.8176 149.035 68.7575 149.034 68.6987 149.034Z" fill="#F9F9F9"/>
<path d="M283.158 189.209V189.21C282.971 189.296 282.775 189.378 282.572 189.455C280.45 190.259 278.75 190.914 276.752 191.405C269.886 191.763 263.01 192.073 256.125 192.335C238.403 193.009 220.647 193.367 202.856 193.41C166.765 193.507 127.937 200.944 96.337 191.656C85.8223 188.565 72.5983 195.045 62.1817 191.656C59.1792 190.676 54.4082 191.875 51.8809 190.572C51.1983 189.243 19.1135 197.36 18.8102 195.993C17.974 192.298 10.8675 191.43 12.8465 187.86C13.804 186.153 47.5383 169.901 49.1702 168.343C56.7602 164.916 66.364 163.513 70.7811 164.916C78.8818 167.486 86.7588 170.404 95.7799 171.876C109.077 174.045 123.464 172.852 136.957 171.058C150.451 169.264 163.854 166.874 177.761 166.672C196.412 166.402 214.364 170.082 231.726 173.703C249.143 177.336 266.562 180.969 283.984 184.602C284.367 185.153 284.709 185.712 285.01 186.28C285.626 187.433 284.733 188.478 283.158 189.209Z" fill="#E8F6E9"/>
<path d="M90.9438 117.511C88.712 116.007 88.9303 112.715 91.2905 111.421C91.3386 111.394 91.3856 111.367 91.4318 111.339C91.5501 110.773 91.6684 110.206 91.7867 109.64C92.4829 110.363 93.8521 110.226 94.3918 109.38C92.5097 105.365 90.0347 101.656 87.0499 98.3771C86.3992 97.6588 86.0342 96.7271 86.0237 95.758C86.0132 94.7889 86.358 93.8495 86.9929 93.1173C87.0043 93.104 87.0156 93.0906 87.0268 93.0771C88.7123 92.5079 90.3084 91.7019 91.767 90.6835C86.7647 82.6464 77.226 76.2615 74.9587 67.0703C68.1378 74.3952 67.3721 76.9749 60.5512 84.2998C60.5512 84.2998 54.0926 90.1278 52.6985 93.2598C53.041 93.6196 56.1076 94.483 56.2255 95.1905C58.5641 95.3779 62.6157 92.8146 62.6157 92.8146C62.6157 92.8146 53.7725 102.243 51.0876 108.05C50.8458 108.573 50.6161 109.17 50.8187 109.709C50.9804 110.14 51.5605 110.388 51.9341 110.217C51.4878 110.647 51.1295 111.16 50.879 111.728C51.6581 112.225 52.5823 112.445 53.502 112.353C54.4218 112.26 55.2834 111.86 55.9477 111.217C55.5737 111.916 55.1997 112.615 54.8258 113.313L54.8264 113.315C55.3317 113.48 55.7851 113.774 56.1419 114.168C56.4987 114.562 56.7465 115.042 56.8609 115.561C56.9752 116.08 56.9522 116.62 56.7941 117.128C56.6359 117.635 56.3481 118.093 55.959 118.455C53.6384 120.613 51.5179 122.882 50.7409 124.376C50.0099 125.781 57.5152 127.475 59.2033 127.406C60.8914 127.337 62.4693 126.595 63.994 125.867C63.9197 126.562 64.0527 127.264 64.3762 127.883C65.2112 128.086 66.0782 128.12 66.9264 127.983C67.7746 127.846 68.5869 127.54 69.3155 127.085C69.2482 128.475 71.002 129.243 72.2194 128.849C71.6116 138.463 72.0562 151.964 72.64 165.979H74.0886V129.404C74.4741 129.599 74.8864 129.736 75.3121 129.81C78.2758 130.336 81.8523 130.656 83.7808 128.345C86.0004 130.583 90.068 130.541 92.2748 128.31C92.0576 128.695 92.39 129.343 92.8817 129.445C93.4612 129.565 94.025 129.221 94.517 128.892C96.7444 127.403 98.9717 125.914 101.199 124.424C98.4504 122.572 94.5459 119.939 90.9438 117.511Z" fill="#E8F6E9"/>
<path d="M238.514 130.415C236.282 128.911 236.5 125.619 238.86 124.325C238.908 124.299 238.955 124.271 239.002 124.243C239.12 123.677 239.238 123.11 239.356 122.544C240.053 123.267 241.422 123.131 241.962 122.284C240.08 118.269 237.605 114.56 234.62 111.281C233.969 110.563 233.604 109.631 233.593 108.662C233.583 107.693 233.928 106.754 234.563 106.022C234.574 106.008 234.585 105.995 234.597 105.981C236.282 105.412 237.878 104.606 239.337 103.588C234.335 95.5507 224.796 89.1658 222.529 79.9746C215.708 87.2995 214.942 89.8792 208.121 97.2041C208.121 97.2041 201.662 103.032 200.268 106.164C200.611 106.524 203.677 107.387 203.795 108.095C206.134 108.282 210.186 105.719 210.186 105.719C210.186 105.719 201.342 115.147 198.657 120.954C198.416 121.477 198.186 122.074 198.389 122.613C198.55 123.044 199.13 123.292 199.504 123.121C199.058 123.552 198.699 124.065 198.449 124.632C199.228 125.13 200.152 125.35 201.072 125.257C201.992 125.165 202.853 124.764 203.518 124.122C203.144 124.82 202.77 125.519 202.396 126.218L202.396 126.219C202.901 126.384 203.355 126.678 203.712 127.072C204.068 127.466 204.316 127.947 204.431 128.466C204.545 128.985 204.522 129.525 204.364 130.032C204.206 130.539 203.918 130.997 203.529 131.359C201.208 133.517 199.088 135.786 198.311 137.28C197.58 138.686 205.085 140.38 206.773 140.31C208.461 140.241 210.039 139.499 211.564 138.771C211.49 139.466 211.622 140.168 211.946 140.788C212.781 140.99 213.648 141.024 214.496 140.887C215.344 140.75 216.157 140.445 216.885 139.989C216.818 141.38 218.572 142.147 219.789 141.754C219.181 151.368 219.626 164.868 220.21 178.883H221.658V142.308C222.044 142.503 222.456 142.64 222.882 142.715C225.846 143.241 229.422 143.561 231.351 141.249C233.57 143.488 237.638 143.445 239.845 141.215C239.627 141.6 239.96 142.247 240.452 142.349C241.031 142.469 241.595 142.125 242.087 141.796C244.314 140.307 246.542 138.818 248.769 137.329C246.02 135.476 242.116 132.844 238.514 130.415Z" fill="#FFF4E7"/>
<path d="M30.6834 173.801C30.8286 173.808 30.9724 173.77 31.0952 173.692C31.2181 173.614 31.3141 173.501 31.3701 173.366C31.4262 173.232 31.4397 173.084 31.4088 172.942C31.3779 172.8 31.304 172.671 31.1973 172.572C31.1794 172.501 31.1666 172.45 31.1487 172.379C31.1551 172.364 31.1615 172.348 31.168 172.333C31.3143 171.987 31.5595 171.692 31.8727 171.486C32.186 171.279 32.5533 171.169 32.9286 171.171C33.3039 171.172 33.6704 171.284 33.9821 171.494C34.2938 171.703 34.5368 171.999 34.6805 172.346C35.255 173.729 35.9865 175.115 36.1666 176.578C36.2459 177.225 36.2124 177.881 36.0677 178.516C37.417 175.572 38.1177 172.373 38.1222 169.135C38.1225 168.323 38.0773 167.511 37.987 166.703C37.9123 166.041 37.8087 165.384 37.6761 164.732C36.9529 161.191 35.4002 157.873 33.1454 155.049C32.0541 154.453 31.1715 153.537 30.6166 152.425C30.4156 152.025 30.2735 151.598 30.1948 151.158C30.3179 151.174 30.4431 151.184 30.5662 151.192C30.6045 151.194 30.6449 151.196 30.6832 151.198L30.6977 151.199C30.833 151.205 30.9672 151.171 31.084 151.103C31.2009 151.035 31.2956 150.934 31.3565 150.813C31.4175 150.692 31.4422 150.556 31.4277 150.421C31.4131 150.287 31.36 150.159 31.2747 150.054C31.2215 149.989 31.1683 149.923 31.1151 149.858C31.0344 149.757 30.9516 149.658 30.8709 149.557C30.8616 149.548 30.8528 149.537 30.8447 149.527C30.7518 149.412 30.659 149.299 30.5662 149.184C30.7356 148.921 30.9635 148.7 31.2322 148.54C32.1625 147.995 33.4461 148.372 34.1181 149.214C34.7922 150.056 34.9193 151.236 34.6852 152.288C34.455 153.182 34.0742 154.031 33.5591 154.798C33.6096 154.863 33.662 154.925 33.7125 154.99C34.6348 156.176 35.4387 157.449 36.1125 158.792C35.9487 157.288 36.1443 155.766 36.6832 154.352C37.2295 153.035 38.2533 151.925 39.155 150.785C40.238 149.417 42.4588 150.014 42.6496 151.749C42.6514 151.766 42.6532 151.782 42.655 151.799C42.5211 151.875 42.39 151.955 42.2617 152.04C42.1006 152.148 41.9757 152.301 41.9035 152.481C41.8313 152.661 41.8151 152.858 41.857 153.048C41.8989 153.237 41.997 153.409 42.1384 153.541C42.2798 153.674 42.458 153.761 42.6495 153.79L42.6691 153.793C42.6214 154.276 42.5371 154.754 42.4168 155.224C42.0685 156.536 41.4528 157.762 40.6086 158.824C39.7643 159.887 38.7097 160.764 37.5107 161.4C37.4319 161.44 37.3552 161.48 37.2765 161.519C37.6377 162.536 37.9264 163.578 38.1403 164.637C38.3318 165.57 38.4652 166.514 38.5399 167.464C38.6314 168.661 38.626 169.863 38.5238 171.059L38.5298 171.016C38.7882 169.687 39.4975 168.487 40.5379 167.62C42.0832 166.35 44.2665 165.883 45.9336 164.862C46.1108 164.749 46.3168 164.688 46.5274 164.687C46.7379 164.687 46.9442 164.747 47.1219 164.86C47.2997 164.972 47.4414 165.134 47.5304 165.325C47.6195 165.515 47.6521 165.728 47.6244 165.936C47.6222 165.951 47.6199 165.966 47.6176 165.981C47.3691 166.082 47.1271 166.199 46.8931 166.33C46.7592 166.406 46.6281 166.486 46.4998 166.571C46.3387 166.678 46.2138 166.832 46.1416 167.012C46.0694 167.192 46.0532 167.389 46.0951 167.578C46.137 167.768 46.2351 167.94 46.3765 168.072C46.5179 168.205 46.6961 168.291 46.8876 168.321L46.9072 168.324C46.9214 168.326 46.9335 168.328 46.9476 168.33C46.5229 169.344 45.927 170.277 45.1857 171.089C44.2701 172.071 43.1633 172.857 41.9335 173.396C40.7036 173.936 39.3764 174.219 38.0334 174.227H38.0313C37.6668 175.811 37.1385 177.353 36.4551 178.829H30.8245C30.8043 178.766 30.7861 178.701 30.768 178.639C31.2891 178.672 31.8124 178.64 32.326 178.546C31.9082 178.033 31.4905 177.517 31.0727 177.004C31.0634 176.995 31.0546 176.984 31.0465 176.974C30.8346 176.712 30.6206 176.451 30.4087 176.189L30.4086 176.188C30.3973 175.384 30.4896 174.582 30.6832 173.801L30.6834 173.801Z" fill="#FFF4E7"/>
<path d="M295.9 181.877C296.045 181.884 296.189 181.846 296.312 181.768C296.434 181.69 296.53 181.577 296.586 181.443C296.643 181.308 296.656 181.16 296.625 181.018C296.594 180.876 296.52 180.747 296.414 180.648C296.396 180.577 296.383 180.526 296.365 180.455C296.371 180.44 296.378 180.424 296.384 180.409C296.531 180.063 296.776 179.769 297.089 179.562C297.402 179.355 297.77 179.246 298.145 179.247C298.52 179.248 298.887 179.361 299.198 179.57C299.51 179.779 299.753 180.075 299.897 180.422C300.471 181.806 301.203 183.192 301.383 184.654C301.462 185.301 301.429 185.957 301.284 186.592C302.633 183.649 303.334 180.449 303.338 177.212C303.339 176.399 303.294 175.587 303.203 174.78C303.129 174.118 303.025 173.46 302.892 172.808C302.169 169.267 300.616 165.949 298.362 163.125C297.27 162.529 296.388 161.614 295.833 160.501C295.632 160.101 295.49 159.674 295.411 159.234C295.534 159.25 295.659 159.26 295.782 159.268C295.821 159.27 295.861 159.272 295.9 159.274L295.914 159.275C296.049 159.281 296.183 159.248 296.3 159.179C296.417 159.111 296.512 159.01 296.573 158.889C296.634 158.768 296.659 158.632 296.644 158.498C296.629 158.363 296.576 158.235 296.491 158.13C296.438 158.065 296.385 157.999 296.331 157.934C296.251 157.833 296.168 157.734 296.087 157.633C296.078 157.624 296.069 157.614 296.061 157.603C295.968 157.488 295.875 157.375 295.782 157.26C295.952 156.997 296.18 156.777 296.448 156.616C297.379 156.071 298.662 156.449 299.334 157.29C300.009 158.132 300.136 159.312 299.902 160.364C299.671 161.259 299.291 162.108 298.775 162.874C298.826 162.939 298.878 163.002 298.929 163.066C299.851 164.252 300.655 165.526 301.329 166.868C301.165 165.364 301.361 163.842 301.9 162.428C302.446 161.111 303.47 160.001 304.371 158.862C305.454 157.493 307.675 158.09 307.866 159.825C307.868 159.842 307.87 159.859 307.871 159.875C307.737 159.951 307.606 160.031 307.478 160.116C307.317 160.224 307.192 160.377 307.12 160.557C307.048 160.737 307.031 160.935 307.073 161.124C307.115 161.313 307.213 161.485 307.355 161.618C307.496 161.75 307.674 161.837 307.866 161.866L307.885 161.869C307.838 162.352 307.753 162.83 307.633 163.3C307.285 164.612 306.669 165.838 305.825 166.9C304.981 167.963 303.926 168.84 302.727 169.476C302.648 169.516 302.572 169.557 302.493 169.595C303.17 171.514 303.595 173.512 303.756 175.54C303.848 176.737 303.842 177.939 303.74 179.135L303.746 179.092C304.004 177.763 304.714 176.563 305.754 175.696C307.3 174.426 309.483 173.959 311.15 172.939C311.327 172.825 311.533 172.764 311.744 172.764C311.954 172.763 312.161 172.823 312.338 172.936C312.516 173.049 312.658 173.21 312.747 173.401C312.836 173.592 312.868 173.804 312.841 174.013C312.839 174.027 312.836 174.042 312.834 174.057C312.585 174.158 312.343 174.275 312.109 174.406C311.975 174.482 311.844 174.562 311.716 174.647C311.555 174.754 311.43 174.908 311.358 175.088C311.286 175.268 311.27 175.465 311.311 175.655C311.353 175.844 311.451 176.016 311.593 176.148C311.734 176.281 311.912 176.368 312.104 176.397L312.124 176.4C312.138 176.402 312.15 176.404 312.164 176.406C311.739 177.42 311.143 178.353 310.402 179.165C309.486 180.148 308.38 180.933 307.15 181.472C305.92 182.012 304.593 182.295 303.25 182.303H303.248C302.883 183.888 302.355 185.43 301.671 186.905H296.041C296.021 186.842 296.002 186.778 295.984 186.715C296.505 186.748 297.029 186.717 297.542 186.622C297.125 186.11 296.707 185.593 296.289 185.08C296.28 185.071 296.271 185.061 296.263 185.05C296.051 184.788 295.837 184.527 295.625 184.265L295.625 184.265C295.614 183.46 295.706 182.658 295.9 181.877L295.9 181.877Z" fill="#FFF4E7"/>
<path d="M198.464 164.998C198.609 165.005 198.753 164.967 198.876 164.889C198.998 164.811 199.094 164.698 199.15 164.564C199.207 164.43 199.22 164.281 199.189 164.139C199.158 163.997 199.084 163.868 198.978 163.769C198.96 163.698 198.947 163.647 198.929 163.576C198.935 163.561 198.942 163.545 198.948 163.53C199.095 163.184 199.34 162.89 199.653 162.683C199.966 162.476 200.334 162.367 200.709 162.368C201.084 162.37 201.451 162.482 201.762 162.691C202.074 162.9 202.317 163.196 202.461 163.543C203.035 164.927 203.767 166.313 203.947 167.776C204.026 168.422 203.993 169.078 203.848 169.713C205.197 166.77 205.898 163.571 205.902 160.333C205.903 159.52 205.858 158.708 205.767 157.901C205.693 157.239 205.589 156.581 205.456 155.929C204.733 152.388 203.18 149.07 200.926 146.246C199.834 145.65 198.952 144.735 198.397 143.622C198.196 143.222 198.054 142.795 197.975 142.355C198.098 142.371 198.223 142.381 198.346 142.389C198.385 142.391 198.425 142.393 198.463 142.395L198.478 142.396C198.613 142.402 198.747 142.369 198.864 142.3C198.981 142.232 199.076 142.131 199.137 142.01C199.198 141.889 199.222 141.753 199.208 141.619C199.193 141.484 199.14 141.356 199.055 141.251C199.002 141.186 198.949 141.12 198.895 141.055C198.815 140.954 198.732 140.855 198.651 140.754C198.642 140.745 198.633 140.735 198.625 140.724C198.532 140.609 198.439 140.496 198.346 140.381C198.516 140.118 198.744 139.898 199.012 139.737C199.943 139.192 201.226 139.57 201.898 140.411C202.572 141.253 202.7 142.433 202.466 143.485C202.235 144.38 201.854 145.229 201.339 145.996C201.39 146.06 201.442 146.123 201.493 146.187C202.415 147.373 203.219 148.647 203.893 149.99C203.729 148.485 203.925 146.963 204.464 145.55C205.01 144.232 206.034 143.122 206.935 141.983C208.018 140.614 210.239 141.212 210.43 142.946C210.432 142.963 210.433 142.98 210.435 142.997C210.301 143.072 210.17 143.152 210.042 143.237C209.881 143.345 209.756 143.499 209.684 143.678C209.612 143.858 209.595 144.056 209.637 144.245C209.679 144.434 209.777 144.606 209.919 144.739C210.06 144.871 210.238 144.958 210.43 144.987L210.449 144.99C210.402 145.473 210.317 145.951 210.197 146.421C209.849 147.733 209.233 148.959 208.389 150.021C207.545 151.084 206.49 151.961 205.291 152.597C205.212 152.637 205.136 152.678 205.057 152.716C205.734 154.635 206.159 156.633 206.32 158.662C206.412 159.858 206.406 161.06 206.304 162.256L206.31 162.214C206.568 160.884 207.278 159.684 208.318 158.817C209.863 157.548 212.047 157.08 213.714 156.06C213.891 155.946 214.097 155.885 214.308 155.885C214.518 155.884 214.724 155.944 214.902 156.057C215.08 156.17 215.222 156.331 215.311 156.522C215.4 156.713 215.432 156.925 215.405 157.134C215.402 157.148 215.4 157.163 215.398 157.178C215.149 157.279 214.907 157.396 214.673 157.527C214.539 157.603 214.408 157.683 214.28 157.768C214.119 157.876 213.994 158.029 213.922 158.209C213.85 158.389 213.833 158.586 213.875 158.776C213.917 158.965 214.015 159.137 214.157 159.27C214.298 159.402 214.476 159.489 214.668 159.518L214.687 159.521C214.702 159.523 214.714 159.525 214.728 159.527C214.303 160.541 213.707 161.474 212.966 162.286C212.05 163.269 210.944 164.054 209.714 164.594C208.484 165.133 207.157 165.416 205.814 165.424H205.812C205.447 167.009 204.919 168.551 204.235 170.026H198.605C198.585 169.963 198.566 169.899 198.548 169.836C199.069 169.869 199.593 169.838 200.106 169.743C199.689 169.231 199.271 168.714 198.853 168.201C198.844 168.192 198.835 168.182 198.827 168.171C198.615 167.909 198.401 167.648 198.189 167.386L198.189 167.386C198.178 166.582 198.27 165.779 198.463 164.999L198.464 164.998Z" fill="#FFF4E7"/>
<path d="M141.897 74.3034L139.564 75.8126L140.977 73.1853C140.577 72.8589 140.082 72.6781 139.57 72.6715H139.533C139.371 72.6748 139.209 72.6624 139.05 72.6347L138.261 73.147L138.598 72.5182C138.039 72.3176 137.556 71.9419 137.218 71.4445L135.807 72.3648L136.698 70.7053C135.873 69.6915 134.76 69.0703 133.534 69.0703C132.066 69.0703 130.758 69.9629 129.913 71.3556C129.663 71.7726 129.309 72.1144 128.887 72.3461C128.466 72.5778 127.992 72.6911 127.513 72.6746H127.435C125.814 72.6746 124.5 74.5534 124.5 76.8725C124.5 79.1915 125.814 81.0703 127.435 81.0703C127.792 81.0692 128.142 80.9791 128.457 80.808C129.009 80.5342 129.613 80.3861 130.226 80.3739C130.84 80.3617 131.448 80.4858 132.01 80.7375C132.486 80.9544 133 81.0665 133.521 81.0665C134.041 81.0665 134.556 80.9544 135.031 80.7375C135.589 80.4905 136.191 80.3688 136.799 80.3807C137.406 80.3926 138.004 80.5378 138.552 80.8065C138.864 80.9733 139.211 81.0612 139.564 81.0626C141.186 81.0626 142.5 79.1838 142.5 76.8648C142.511 75.9729 142.304 75.0922 141.897 74.3034Z" fill="#E8F6E9"/>
<path d="M137.5 80.4131C136.653 80.2372 135.777 80.3415 134.984 80.7129C134.509 80.9464 133.995 81.0671 133.474 81.0671C132.954 81.0671 132.44 80.9464 131.965 80.7129C131.403 80.4418 130.794 80.3082 130.18 80.3213C129.566 80.3343 128.963 80.4938 128.411 80.7887C128.095 80.9719 127.744 81.0685 127.388 81.0703C125.948 81.0703 124.749 79.476 124.5 77.3743C124.788 77.1446 125.033 76.8553 125.22 76.5228C126.065 75.0289 127.373 74.0703 128.841 74.0703C130.31 74.0703 131.605 75.0091 132.448 76.4915C132.699 76.9383 133.052 77.3061 133.471 77.5592C133.89 77.8123 134.362 77.9421 134.84 77.936H134.878C136.024 77.9327 137.017 78.9407 137.5 80.4131Z" fill="#F9F9F9"/>
<path opacity="0.03" d="M220.562 60.8251C219.454 60.6154 218.309 60.7397 217.271 61.1822C216.65 61.4604 215.977 61.6042 215.296 61.6042C214.615 61.6042 213.942 61.4604 213.321 61.1822C212.586 60.8592 211.789 60.7 210.986 60.7156C210.184 60.7312 209.394 60.9212 208.672 61.2725C208.259 61.4908 207.8 61.6059 207.333 61.6081C205.449 61.6081 203.881 59.7084 203.556 57.2043C203.933 56.9305 204.253 56.5859 204.498 56.1897C205.603 54.4097 207.314 53.2676 209.235 53.2676C211.156 53.2676 212.85 54.3862 213.953 56.1524C214.283 56.6862 214.746 57.1253 215.296 57.427C215.846 57.7286 216.465 57.8825 217.093 57.8735H217.142C218.631 57.8696 219.931 59.0706 220.562 60.8251Z" fill="#F9F9F9"/>
<path d="M178.796 29.7395L176.075 31.3745L177.723 28.5283C177.256 28.1746 176.679 27.9788 176.082 27.9716H176.038C175.849 27.9751 175.661 27.9618 175.474 27.9318L174.554 28.4867L174.948 27.8055C174.296 27.5882 173.732 27.1812 173.338 26.6424L171.691 27.6393L172.731 25.8415C171.768 24.7432 170.47 24.0703 169.04 24.0703C167.327 24.0703 165.801 25.0373 164.816 26.546C164.523 26.9978 164.11 27.3681 163.619 27.6191C163.127 27.8701 162.574 27.9929 162.016 27.975H161.925C160.033 27.975 158.5 30.0104 158.5 32.5226C158.5 35.0349 160.033 37.0703 161.925 37.0703C162.34 37.069 162.749 36.9715 163.116 36.7862C163.76 36.4895 164.465 36.329 165.18 36.3158C165.896 36.3026 166.606 36.437 167.262 36.7097C167.816 36.946 168.416 37.0689 169.023 37.0703C169.63 37.0717 170.231 36.9517 170.786 36.718C171.437 36.4504 172.14 36.3186 172.848 36.3315C173.557 36.3444 174.254 36.5018 174.893 36.7928C175.258 36.9736 175.663 37.0687 176.075 37.0703C177.966 37.0703 179.499 35.0349 179.499 32.5226C179.514 31.5536 179.272 30.5965 178.796 29.7395V29.7395Z" fill="#E8F6E9"/>
<path d="M173.5 36.4131C172.523 36.2372 171.512 36.3415 170.597 36.7129C170.049 36.9464 169.456 37.0671 168.855 37.0671C168.255 37.0671 167.661 36.9464 167.113 36.7129C166.465 36.4418 165.762 36.3082 165.054 36.3213C164.346 36.3343 163.649 36.4938 163.012 36.7887C162.649 36.9718 162.244 37.0685 161.832 37.0703C160.17 37.0703 158.787 35.476 158.5 33.3743C158.832 33.1446 159.115 32.8553 159.331 32.5228C160.305 31.0289 161.815 30.0703 163.509 30.0703C165.204 30.0703 166.698 31.0091 167.67 32.4915C167.961 32.9395 168.37 33.308 168.855 33.5612C169.34 33.8144 169.886 33.9435 170.44 33.936H170.483C171.797 33.9327 172.943 34.9407 173.5 36.4131Z" fill="#F9F9F9"/>
<path d="M276.839 80.4006L275.318 81.3642L276.241 79.6883C275.98 79.4787 275.657 79.3627 275.322 79.3586H275.299C275.193 79.3596 275.087 79.3518 274.983 79.335L274.468 79.6608L274.688 79.2683C274.323 79.1405 274.008 78.9008 273.788 78.5834L272.867 79.1721L273.456 78.1143C273.211 77.7977 272.899 77.5397 272.542 77.3591C272.184 77.1785 271.791 77.0798 271.391 77.0703C270.434 77.0703 269.58 77.6394 269.036 78.5284C268.873 78.7953 268.641 79.0139 268.365 79.1618C268.089 79.3098 267.779 79.3817 267.466 79.3703H267.415C266.358 79.3703 265.5 80.5714 265.5 82.0511C265.5 83.5308 266.358 84.7298 267.415 84.7298C267.648 84.7291 267.877 84.6718 268.083 84.563C268.443 84.3877 268.837 84.2928 269.237 84.285C269.638 84.2772 270.035 84.3567 270.402 84.5179C270.711 84.6552 271.045 84.7262 271.383 84.7262C271.722 84.7262 272.056 84.6552 272.365 84.5179C272.729 84.3601 273.122 84.2824 273.519 84.2902C273.915 84.298 274.305 84.391 274.663 84.563C274.867 84.6685 275.093 84.7244 275.322 84.7259C276.38 84.7259 277.238 83.5269 277.238 82.0471C277.245 81.4736 277.108 80.9074 276.839 80.4006V80.4006Z" fill="#E8F6E9"/>
<path opacity="0.03" d="M265.825 63.6781C265.271 63.5722 264.699 63.6344 264.182 63.8567C263.873 63.9932 263.539 64.0641 263.201 64.0647C262.862 64.0633 262.528 63.9904 262.219 63.8508C261.852 63.6903 261.455 63.6114 261.055 63.6195C260.654 63.6277 260.26 63.7226 259.9 63.8979C259.695 64.0067 259.467 64.064 259.235 64.0647C258.295 64.0647 257.512 63.1169 257.349 61.8687C257.536 61.7312 257.696 61.5594 257.82 61.3624C258.369 60.4734 259.223 59.9043 260.175 59.9043C261.126 59.9043 261.976 60.4675 262.53 61.3448C262.694 61.6101 262.923 61.8285 263.197 61.9787C263.47 62.129 263.778 62.206 264.09 62.2024H264.115C264.855 62.2024 265.509 62.8029 265.825 63.6781Z" fill="#F9F9F9"/>
<path opacity="0.03" d="M256.646 18.6278C255.538 18.4181 254.393 18.5424 253.355 18.985C252.734 19.2632 252.061 19.407 251.38 19.407C250.699 19.407 250.026 19.2632 249.405 18.985C248.67 18.662 247.873 18.5027 247.07 18.5183C246.268 18.5339 245.478 18.724 244.756 19.0752C244.343 19.2935 243.884 19.4086 243.417 19.4108C241.533 19.4108 239.965 17.5112 239.64 15.007C240.017 14.7333 240.337 14.3887 240.582 13.9924C241.687 12.2125 243.398 11.0703 245.319 11.0703C247.24 11.0703 248.934 12.1889 250.037 13.9552C250.367 14.4889 250.83 14.9281 251.38 15.2297C251.93 15.5314 252.549 15.6852 253.177 15.6762H253.226C254.715 15.6723 256.015 16.8733 256.646 18.6278Z" fill="#F9F9F9"/>
</g>
<path fill-rule="evenodd" clip-rule="evenodd" d="M122.455 135.236C125.118 130.055 129.439 130.064 132.098 135.236L155.138 180.071H99.415L122.455 135.236Z" fill="#19A526"/>
<path d="M176.222 101.757V55.0703" stroke="#FF8500" stroke-width="2" stroke-linecap="square" stroke-linejoin="round"/>
<path fill-rule="evenodd" clip-rule="evenodd" d="M170.498 103.185C173.659 97.251 178.799 97.2765 181.947 103.185L222.909 180.069H129.536L170.498 103.185Z" fill="#006838"/>
<path fill-rule="evenodd" clip-rule="evenodd" d="M176.222 56.5762H200.318L195.499 65.6123L200.318 74.6484H176.222V56.5762Z" fill="#FF8500"/>
<path d="M111.464 127.36C117.286 127.36 122.006 122.64 122.006 116.818C122.006 110.995 117.286 106.275 111.464 106.275C105.641 106.275 100.921 110.995 100.921 116.818C100.921 122.64 105.641 127.36 111.464 127.36Z" fill="#FF8500" stroke="#FCC24C" stroke-width="2" stroke-linecap="round" stroke-linejoin="round"/>
<path fill-rule="evenodd" clip-rule="evenodd" d="M96.4023 116.816L93.3902 116.816L96.4023 116.816ZM129.535 116.816L126.523 116.816L129.535 116.816ZM111.462 101.756L111.462 98.7442L111.462 101.756ZM111.462 131.877L111.462 134.889Z" fill="#FF8500"/>
<path d="M111.462 131.877L111.462 134.889M96.4023 116.816L93.3902 116.816L96.4023 116.816ZM129.535 116.816L126.523 116.816L129.535 116.816ZM111.462 101.756L111.462 98.7442L111.462 101.756Z" stroke="#F8A131" stroke-width="2" stroke-linecap="square" stroke-linejoin="round"/>
<path fill-rule="evenodd" clip-rule="evenodd" d="M100.813 127.466L98.6835 129.595L100.813 127.466ZM124.242 104.037L122.112 106.167L124.242 104.037ZM100.813 106.167L98.6835 104.037L100.813 106.167ZM122.112 127.466L124.242 129.595Z" fill="#FF8500"/>
<path d="M122.112 127.466L124.242 129.595M100.813 127.466L98.6835 129.595L100.813 127.466ZM124.242 104.037L122.112 106.167L124.242 104.037ZM100.813 106.167L98.6835 104.037L100.813 106.167Z" stroke="#F8A131" stroke-width="2" stroke-linecap="square" stroke-linejoin="round"/>
<path fill-rule="evenodd" clip-rule="evenodd" d="M230.439 155.973H234.957C234.957 155.973 234.386 164.983 234.957 169.553C235.528 174.123 237.969 180.069 237.969 180.069H230.439V155.973Z" fill="#FF8500"/>
<path fill-rule="evenodd" clip-rule="evenodd" d="M233.451 157.051C233.451 157.051 220.094 154.689 215.8 160.492C215.8 160.492 219.263 152.203 228.973 150.405C228.973 150.405 214.543 147.63 208.321 157.051C208.321 157.051 212.178 145.382 227.48 141.939C227.48 141.939 212.996 136.399 204.836 143.625C204.836 143.625 214.127 133.19 226.996 135.441C226.996 135.441 227.572 127.596 217.959 125.854C217.959 125.854 231.091 126.406 234.052 133.796C234.052 133.796 233.041 129.187 244.796 126.424C244.796 126.424 240.978 131.537 241.207 135.893C241.437 140.249 255.243 129.591 262.065 142.832C262.065 142.832 248.284 139.762 241.155 144.216C241.155 144.216 252.852 145.944 254.388 152.778C254.388 152.778 246.129 149.298 239.603 151.007C239.603 151.007 247.066 153.553 248.271 160.228L233.451 157.051Z" fill="#19A526"/>
</g>
<defs>
<clipPath id="clip0_851_740">
<path d="M0.5 10C0.5 4.47716 4.97715 0 10.5 0H335.5C341.023 0 345.5 4.47715 345.5 10V180H0.5V10Z" fill="white"/>
</clipPath>
</defs>
</svg>
