<svg width="10" height="14" viewBox="0 0 10 14" fill="none" xmlns="http://www.w3.org/2000/svg">
<path d="M8.9754 7.67632V7.78104C8.97765 7.82047 8.97765 7.86 8.9754 7.89943C8.97766 7.92062 8.97766 7.94198 8.9754 7.96317C8.9754 8.02691 8.9754 8.09522 8.9754 8.15897C8.9754 8.22271 8.9754 8.28189 8.9754 8.33653V8.42304C8.9754 8.47313 8.9754 8.52321 8.95264 8.57329C8.92987 8.62338 8.92531 8.70989 8.9071 8.77819C8.88889 8.84649 8.87978 8.90113 8.86157 8.96487C8.84335 9.02862 8.83881 9.06048 8.82515 9.10146C8.81659 9.13398 8.80594 9.16593 8.79327 9.19709C8.79327 9.24717 8.76139 9.29725 8.74318 9.34734C8.72497 9.39742 8.70221 9.46572 8.67944 9.52492L8.62481 9.6524V9.69792L8.5474 9.87095C8.49276 9.97567 8.43812 10.085 8.37893 10.1897L8.28786 10.3445C8.26019 10.3947 8.2298 10.4433 8.19681 10.4902C8.12396 10.604 8.05111 10.7087 7.96915 10.8135C7.88719 10.9182 7.81433 11.0092 7.73238 11.1049C7.69595 11.1504 7.65953 11.1868 7.62311 11.2278L7.59579 11.2597L7.50928 11.3416L7.34081 11.5146L7.16323 11.6695L7.07672 11.7469L6.8946 11.8926C6.71247 12.0337 6.5349 12.1612 6.35733 12.275C6.17975 12.3888 6.00673 12.489 5.84281 12.5801L5.69711 12.6575L5.51954 12.744L5.3784 12.8077L5.26001 12.8624L5.09155 12.9352L5.00959 12.9671L4.85479 13.0263C4.66355 13.0991 4.54972 13.131 4.54972 13.131C4.54972 13.131 4.43589 13.0991 4.24921 13.0263L4.0944 12.9671L3.97147 12.9216L3.70283 12.7986L3.56623 12.7349C3.27788 12.6005 2.99809 12.4484 2.72845 12.2796C2.55543 12.1703 2.38241 12.0474 2.20484 11.9108L2.10011 11.8288L2.00906 11.7514L1.92254 11.674L1.67667 11.4509C1.61748 11.3963 1.56284 11.3371 1.5082 11.2779C1.45921 11.231 1.41356 11.1808 1.3716 11.1276L1.23045 10.9683C1.21631 10.9451 1.19951 10.9237 1.18038 10.9045L1.05745 10.736C0.951461 10.6006 0.855584 10.4576 0.770594 10.3081C0.749189 10.2757 0.729431 10.2423 0.7114 10.2079C0.613148 10.0379 0.526439 9.8614 0.451866 9.67972C0.429405 9.63542 0.409636 9.5898 0.392673 9.54312C0.369907 9.48393 0.347149 9.42474 0.328936 9.36555C0.310723 9.30636 0.292503 9.26538 0.278844 9.21529C0.265184 9.16521 0.278844 9.21529 0.278844 9.21529L0.251526 9.12878C0.251526 9.0878 0.224213 9.03772 0.215107 8.99219C0.195652 8.93108 0.180435 8.86871 0.169572 8.80551L0.128595 8.63249V8.54597C0.128595 8.54597 0.128595 8.54598 0.128595 8.51411C0.126064 8.50518 0.126064 8.49572 0.128595 8.48679C0.12639 8.44585 0.12639 8.4048 0.128595 8.36385C0.128595 8.30921 0.128587 8.25003 0.105821 8.18628C0.0830554 8.12254 0.105821 8.05423 0.105821 7.99049C0.105821 7.92674 0.105821 7.94952 0.105821 7.92675C0.105821 7.90398 0.105821 7.863 0.105821 7.82658V7.72185C0.105821 7.50785 0.105821 7.26654 0.105821 7.04343C0.105821 6.97058 0.105821 6.89318 0.105821 6.82033C0.108624 6.813 0.108624 6.80489 0.105821 6.79756C0.108285 6.78248 0.108285 6.7671 0.105821 6.75202C0.105821 6.70194 0.105821 6.64731 0.105821 6.59267C0.105821 6.53804 0.105821 6.5608 0.105821 6.54714C0.115017 6.47352 0.128714 6.40053 0.146812 6.32858C0.144857 6.31652 0.144857 6.30423 0.146812 6.29216C0.174131 6.16923 0.201437 6.05084 0.233309 5.93246C0.233309 5.90514 0.233309 5.88237 0.233309 5.85961L0.260641 5.76855C0.260641 5.71391 0.292507 5.65472 0.310719 5.60463C0.328932 5.55455 0.36081 5.44982 0.388129 5.37697C0.415448 5.30868 0.438211 5.24037 0.470083 5.17208C0.501955 5.10378 0.501953 5.08101 0.524719 5.03093L0.561138 4.93987L0.643106 4.77141C0.649439 4.75051 0.658631 4.73059 0.670424 4.71221C0.697742 4.65302 0.725058 4.59383 0.752377 4.54375L0.875308 4.30698L0.993694 4.09753L1.13028 3.86532L1.23501 3.70141L1.36706 3.50563L1.52186 3.28707L1.69033 3.05941C1.74041 2.99567 1.7905 2.92737 1.84513 2.86363C1.85421 2.84743 1.86489 2.83217 1.87701 2.8181L2.07279 2.58588C2.13654 2.50848 2.20028 2.43563 2.26858 2.36278C2.52811 2.07138 2.78765 1.80729 3.03352 1.57508L3.19287 1.42483L3.27484 1.35653C3.42964 1.21083 3.57534 1.0879 3.73015 0.974068L3.79845 0.914875L3.94415 0.801046L4.03521 0.728193L4.23555 0.573387C4.40857 0.441345 4.5133 0.373047 4.5133 0.373047H4.56793C4.56793 0.373047 4.67265 0.441345 4.84567 0.573387C5.01869 0.705429 5.40116 1.00139 5.78818 1.35653L5.87013 1.42483L6.0295 1.57508L6.17064 1.71168C6.37098 1.90747 6.58498 2.12601 6.79443 2.36278C6.85817 2.43563 6.92648 2.50848 6.99022 2.58588L7.18145 2.8181C7.19629 2.8309 7.20864 2.84634 7.21788 2.86363L7.37723 3.05941L7.54115 3.28707C7.6049 3.37358 7.66409 3.46465 7.72783 3.56026C7.79158 3.65588 7.86897 3.7697 7.93272 3.87898L7.96459 3.91995C8.03744 4.04744 8.11484 4.17493 8.18769 4.30698L8.29698 4.51643C8.3334 4.58928 8.36982 4.65758 8.40169 4.73043L8.52464 5.00361C8.60659 5.19029 8.67944 5.37698 8.74318 5.56821C8.7705 5.66838 8.80237 5.76399 8.82969 5.85961C8.85701 5.95522 8.91165 6.16467 8.94352 6.31492C8.94548 6.32699 8.94548 6.33929 8.94352 6.35136L8.9845 6.5699V6.61544C8.9845 6.68373 8.98451 6.75204 9.00727 6.82033C9.00727 6.90229 9.00727 6.98424 9.03003 7.06619C9.02274 7.2704 9.0045 7.47407 8.9754 7.67632Z" fill="#FF8500"/>
</svg>
