<svg width="14" height="19" viewBox="0 0 14 19" fill="none" xmlns="http://www.w3.org/2000/svg">
<path d="M13.01 11.0932C13.01 11.1388 13.01 11.1888 13.01 11.2435C13.01 11.2981 13.01 11.3573 13.01 11.4165C13.01 11.4757 13.01 11.4711 13.01 11.503C13.01 11.5349 13.01 11.6943 12.9873 11.7853C12.9645 11.8764 12.9645 11.9583 12.9508 12.0403C12.9537 12.0812 12.9537 12.1223 12.9508 12.1632C12.9508 12.2406 12.9281 12.3135 12.9144 12.3818C12.9008 12.4501 12.878 12.5821 12.8552 12.6732L12.7869 12.9464L12.7323 13.1467C12.7323 13.1877 12.705 13.2378 12.6913 13.2742L12.6185 13.4928L12.5228 13.7477C12.5001 13.8115 12.4728 13.8707 12.4454 13.9299L12.4181 14.0027L12.3088 14.2486C12.2314 14.4034 12.1495 14.5536 12.0675 14.7039L11.9355 14.927L11.8034 15.1365C11.6987 15.2958 11.5894 15.4461 11.4711 15.5918C11.3527 15.7375 11.248 15.8741 11.1296 16.0107C11.0795 16.0744 11.0249 16.129 10.9748 16.1882C10.9635 16.2054 10.9497 16.2207 10.9338 16.2338C10.8963 16.2767 10.8552 16.3163 10.8109 16.3521L10.565 16.6026L10.31 16.8302L10.1825 16.9395C10.096 17.0078 10.0095 17.0852 9.92299 17.1444C9.67517 17.342 9.41676 17.5259 9.14895 17.6953C8.89852 17.8592 8.6481 18.0049 8.41133 18.1506L8.19734 18.2645C8.11083 18.3055 8.02887 18.351 7.94692 18.3829C7.88138 18.4203 7.81284 18.4523 7.74202 18.4785H7.7147L7.54168 18.5559L7.30036 18.656L7.18199 18.7061L6.95887 18.7926C6.68568 18.8928 6.50356 18.9338 6.50356 18.9338C6.50356 18.9338 6.33964 18.8928 6.04824 18.7926L5.82514 18.7061C5.76942 18.6787 5.71156 18.6558 5.65212 18.6378C5.53373 18.5878 5.4017 18.5286 5.2651 18.4603C5.20136 18.4375 5.13306 18.4011 5.06476 18.3692C4.64823 18.1696 4.24518 17.9429 3.85817 17.6908C3.6123 17.536 3.36188 17.3584 3.1069 17.1626L2.95664 17.0442C2.91566 17.0033 2.87013 16.9714 2.82915 16.9349C2.78818 16.8985 2.74264 16.8575 2.70167 16.8257C2.58328 16.7164 2.4649 16.6162 2.34652 16.5024L2.3192 16.4751C2.23724 16.3977 2.15984 16.3157 2.07788 16.2292C2.00801 16.159 1.94262 16.0845 1.88209 16.0061C1.8107 15.9344 1.7438 15.8584 1.68176 15.7785L1.60891 15.6874L1.42678 15.4506C1.27975 15.2513 1.14298 15.0446 1.017 14.8314L0.930484 14.6857C0.788858 14.441 0.664118 14.187 0.557128 13.9253C0.526283 13.86 0.498922 13.7932 0.475167 13.725C0.443295 13.643 0.406874 13.5565 0.379555 13.47C0.352236 13.3835 0.329468 13.3288 0.306702 13.2514C0.306702 13.2514 0.306702 13.1695 0.270276 13.1331C0.233851 13.0966 0.2293 12.9965 0.215641 12.9327C0.188065 12.8429 0.165263 12.7517 0.147339 12.6595C0.129126 12.5715 0.110916 12.4895 0.0927031 12.4137C0.0927031 12.3681 0.0927031 12.3317 0.0927031 12.2862C0.0927031 12.2406 0.0927031 12.2543 0.0927031 12.2452C0.0904934 12.2316 0.0904934 12.2178 0.0927031 12.2042C0.0927031 12.145 0.0699339 12.0858 0.0608276 12.0266C0.0517212 11.9674 0.0380653 11.8582 0.028959 11.7717L0.00164112 11.4894C0.00164112 11.4575 0.00164112 11.4302 0.00164112 11.4028C0.00164112 11.3755 0.00164112 11.3072 0.00164112 11.2571V11.2298C-0.00054704 11.1889 -0.00054704 11.1478 0.00164112 11.1069C-0.000198734 11.0979 -0.000198734 11.0886 0.00164112 11.0796C0.00164112 10.77 0.00164112 10.4376 0.00164112 10.1006C0.00164112 9.99593 0.00163751 9.88665 0.0335097 9.78192C0.0353833 9.77138 0.0353833 9.76059 0.0335097 9.75005C0.0335097 9.75005 0.0335097 9.71363 0.0335097 9.68631C0.0335097 9.65899 0.033513 9.53606 0.0653852 9.45865C0.0623766 9.43599 0.0623766 9.41302 0.0653852 9.39036C0.0783889 9.2863 0.0966224 9.18295 0.120021 9.08073C0.117048 9.06264 0.117048 9.04419 0.120021 9.0261C0.156446 8.847 0.197427 8.67399 0.242958 8.50704C0.242958 8.46606 0.242957 8.43419 0.270276 8.40231C0.297595 8.37044 0.297596 8.3158 0.306702 8.27027C0.315809 8.22474 0.356786 8.11091 0.384106 8.03351C0.41434 7.92376 0.450828 7.81582 0.493384 7.71024C0.493384 7.71024 0.493384 7.71024 0.493384 7.68292C0.529809 7.5873 0.566235 7.48713 0.607213 7.39151C0.630967 7.32333 0.658321 7.25645 0.689167 7.19117L0.743803 7.05458C0.780228 6.97262 0.816653 6.89066 0.857632 6.81781C0.867615 6.78737 0.881387 6.75832 0.898616 6.73131C0.935041 6.6448 0.976017 6.56284 1.017 6.48543L1.19457 6.14395L1.36303 5.84799C1.42678 5.73416 1.49508 5.62033 1.56337 5.51105L1.71363 5.27885C1.77282 5.17868 1.83657 5.09216 1.90031 4.99654L2.12341 4.67327L2.36474 4.35C2.36474 4.35 2.36474 4.35 2.36474 4.32268C2.43759 4.22251 2.51043 4.13145 2.58784 4.04039L2.63792 3.96753L2.91567 3.6397C3.01128 3.53043 3.10234 3.42116 3.19796 3.31643C3.57132 2.89754 3.94468 2.51507 4.29983 2.18724L4.53204 1.96869C4.56847 1.93681 4.60489 1.89584 4.64587 1.86397C4.86898 1.65908 5.07842 1.4815 5.27421 1.31759L5.37892 1.23108L5.58382 1.06717L5.71587 0.96244L6.00272 0.743883C6.13109 0.641216 6.26482 0.545461 6.40339 0.457031H6.4808C6.61936 0.545461 6.75311 0.641216 6.88148 0.743883C7.35641 1.09265 7.81238 1.46656 8.24743 1.86397L8.36126 1.96869L8.58891 2.18724L8.7938 2.37847C9.0852 2.66076 9.39026 2.97495 9.70443 3.31643L9.98218 3.6397C10.0778 3.74443 10.1689 3.85826 10.2599 3.96753C10.2796 3.9907 10.2978 4.01503 10.3146 4.04039C10.3874 4.13145 10.4648 4.22251 10.5377 4.32268L10.5604 4.35C10.6378 4.45017 10.7198 4.55944 10.7972 4.67327C10.8928 4.80531 10.9793 4.93736 11.0704 5.06485C11.1614 5.19234 11.2707 5.37446 11.3664 5.52016C11.3664 5.54293 11.3937 5.57025 11.4073 5.58846C11.5166 5.77059 11.6259 5.94816 11.7306 6.13939C11.7807 6.24411 11.8353 6.33973 11.89 6.44446L12.0402 6.75407L12.2178 7.14109C12.3316 7.41428 12.4363 7.67836 12.5274 7.96066C12.5729 8.1018 12.6185 8.23841 12.6549 8.37955C12.7186 8.59355 12.7733 8.83486 12.8188 9.03975C12.8188 9.03975 12.8188 9.07162 12.8188 9.09439C12.8188 9.19001 12.8552 9.29929 12.8734 9.40402V9.47231C12.8734 9.56337 12.9008 9.66809 12.9099 9.76371C12.9099 9.87754 12.9372 9.99593 12.9417 10.1143C12.9847 10.4389 13.0075 10.7658 13.01 11.0932Z" fill="#19A526"/>
</svg>
