<svg width="32" height="42" viewBox="0 0 32 42" fill="none" xmlns="http://www.w3.org/2000/svg">
<path d="M31.9464 0.0182166V41.2062H5.19198C5.25117 41.1197 5.30126 41.0195 5.3559 40.9284C5.46214 40.7463 5.56231 40.5551 5.65641 40.3547C5.70194 40.2591 5.74747 40.1589 5.793 40.0497C5.83853 39.9404 5.87951 39.8448 5.92049 39.7401L6.04342 39.4259C6.07074 39.3348 6.09806 39.2483 6.12993 39.1572C6.1618 39.0662 6.16181 39.048 6.18002 38.9888C6.19824 38.9296 6.24832 38.6427 6.25288 38.6245H29.3465V2.61352H3.39349V27.7516C3.31608 27.6559 2.9154 27.2325 2.82889 27.1369C2.74238 27.0413 2.59668 26.8728 2.48285 26.7408C2.02754 26.2217 1.54945 25.7482 1.1169 25.3338C1.02129 25.2382 0.925669 25.1517 0.830052 25.0652L0.802734 25.0424V0L31.9464 0.0182166Z" fill="#006838"/>
</svg>
