<svg width="250" height="52" viewBox="0 0 250 52" fill="none" xmlns="http://www.w3.org/2000/svg">
<rect width="250" height="52" rx="10" fill="white"/>
<path d="M58.2799 31.1868C57.4316 33.1927 56.1049 34.9604 54.4157 36.3352C52.7265 37.71 50.7262 38.65 48.5898 39.0731C46.4534 39.4963 44.2458 39.3896 42.1601 38.7625C40.0744 38.1354 38.1741 37.0069 36.6252 35.4756C35.0764 33.9444 33.9263 32.0571 33.2754 29.9787C32.6245 27.9003 32.4926 25.6941 32.8914 23.5529C33.2901 21.4118 34.2072 19.4009 35.5626 17.6961C36.918 15.9913 38.6704 14.6445 40.6666 13.7734" stroke="#FF8500" stroke-width="1.5" stroke-linecap="round" stroke-linejoin="round"/>
<path d="M59.3333 25.9993C59.3333 24.2484 58.9885 22.5146 58.3184 20.8969C57.6483 19.2792 56.6662 17.8094 55.4281 16.5713C54.19 15.3331 52.7201 14.351 51.1024 13.681C49.4848 13.0109 47.751 12.666 46 12.666V25.9993H59.3333Z" fill="#FF8500" stroke="#FF8500" stroke-width="1.5" stroke-linecap="round" stroke-linejoin="round"/>
<path d="M81.832 20.88C83.016 20.88 84.0507 21.1093 84.936 21.568C85.832 22.016 86.52 22.6667 87 23.52C87.4907 24.3627 87.736 25.3493 87.736 26.48C87.736 27.6107 87.4907 28.592 87 29.424C86.52 30.256 85.832 30.896 84.936 31.344C84.0507 31.7813 83.016 32 81.832 32H78.2V20.88H81.832ZM81.832 30.512C83.1333 30.512 84.1307 30.16 84.824 29.456C85.5173 28.752 85.864 27.76 85.864 26.48C85.864 25.1893 85.5173 24.1813 84.824 23.456C84.1307 22.7307 83.1333 22.368 81.832 22.368H80.024V30.512H81.832ZM88.9358 27.552C88.9358 26.6667 89.1171 25.8827 89.4798 25.2C89.8531 24.5173 90.3544 23.9893 90.9838 23.616C91.6238 23.232 92.3278 23.04 93.0958 23.04C93.7891 23.04 94.3918 23.1787 94.9038 23.456C95.4264 23.7227 95.8424 24.0587 96.1518 24.464V23.184H97.9918V32H96.1518V30.688C95.8424 31.104 95.4211 31.4507 94.8878 31.728C94.3544 32.0053 93.7464 32.144 93.0638 32.144C92.3064 32.144 91.6131 31.952 90.9838 31.568C90.3544 31.1733 89.8531 30.6293 89.4798 29.936C89.1171 29.232 88.9358 28.4373 88.9358 27.552ZM96.1518 27.584C96.1518 26.976 96.0238 26.448 95.7678 26C95.5224 25.552 95.1971 25.2107 94.7918 24.976C94.3864 24.7413 93.9491 24.624 93.4798 24.624C93.0104 24.624 92.5731 24.7413 92.1678 24.976C91.7624 25.2 91.4318 25.536 91.1758 25.984C90.9304 26.4213 90.8078 26.944 90.8078 27.552C90.8078 28.16 90.9304 28.6933 91.1758 29.152C91.4318 29.6107 91.7624 29.9627 92.1678 30.208C92.5838 30.4427 93.0211 30.56 93.4798 30.56C93.9491 30.56 94.3864 30.4427 94.7918 30.208C95.1971 29.9733 95.5224 29.632 95.7678 29.184C96.0238 28.7253 96.1518 28.192 96.1518 27.584ZM103.588 32.144C102.894 32.144 102.27 32.0213 101.716 31.776C101.172 31.52 100.74 31.1787 100.42 30.752C100.1 30.3147 99.9288 29.8293 99.9075 29.296H101.796C101.828 29.6693 102.004 29.984 102.324 30.24C102.654 30.4853 103.065 30.608 103.556 30.608C104.068 30.608 104.462 30.512 104.74 30.32C105.028 30.1173 105.172 29.8613 105.172 29.552C105.172 29.2213 105.012 28.976 104.692 28.816C104.382 28.656 103.886 28.48 103.204 28.288C102.542 28.1067 102.004 27.9307 101.588 27.76C101.172 27.5893 100.809 27.328 100.5 26.976C100.201 26.624 100.052 26.16 100.052 25.584C100.052 25.1147 100.19 24.688 100.468 24.304C100.745 23.9093 101.14 23.6 101.652 23.376C102.174 23.152 102.772 23.04 103.444 23.04C104.446 23.04 105.252 23.296 105.86 23.808C106.478 24.3093 106.809 24.9973 106.852 25.872H105.028C104.996 25.4773 104.836 25.1627 104.548 24.928C104.26 24.6933 103.87 24.576 103.38 24.576C102.9 24.576 102.532 24.6667 102.276 24.848C102.02 25.0293 101.892 25.2693 101.892 25.568C101.892 25.8027 101.977 26 102.148 26.16C102.318 26.32 102.526 26.448 102.772 26.544C103.017 26.6293 103.38 26.7413 103.86 26.88C104.5 27.0507 105.022 27.2267 105.428 27.408C105.844 27.5787 106.201 27.8347 106.5 28.176C106.798 28.5173 106.953 28.9707 106.964 29.536C106.964 30.0373 106.825 30.4853 106.548 30.88C106.27 31.2747 105.876 31.584 105.364 31.808C104.862 32.032 104.27 32.144 103.588 32.144ZM113.494 23.04C114.166 23.04 114.764 23.184 115.286 23.472C115.82 23.76 116.236 24.1867 116.534 24.752C116.844 25.3173 116.998 26 116.998 26.8V32H115.19V27.072C115.19 26.2827 114.993 25.68 114.598 25.264C114.204 24.8373 113.665 24.624 112.982 24.624C112.3 24.624 111.756 24.8373 111.35 25.264C110.956 25.68 110.758 26.2827 110.758 27.072V32H108.934V20.16H110.758V24.208C111.068 23.8347 111.457 23.5467 111.926 23.344C112.406 23.1413 112.929 23.04 113.494 23.04ZM121.149 24.496C121.458 24.0693 121.88 23.7227 122.413 23.456C122.957 23.1787 123.56 23.04 124.221 23.04C125 23.04 125.704 23.2267 126.333 23.6C126.962 23.9733 127.458 24.5067 127.821 25.2C128.184 25.8827 128.365 26.6667 128.365 27.552C128.365 28.4373 128.184 29.232 127.821 29.936C127.458 30.6293 126.957 31.1733 126.317 31.568C125.688 31.952 124.989 32.144 124.221 32.144C123.538 32.144 122.93 32.0107 122.397 31.744C121.874 31.4773 121.458 31.136 121.149 30.72V32H119.325V20.16H121.149V24.496ZM126.509 27.552C126.509 26.944 126.381 26.4213 126.125 25.984C125.88 25.536 125.549 25.2 125.133 24.976C124.728 24.7413 124.29 24.624 123.821 24.624C123.362 24.624 122.925 24.7413 122.509 24.976C122.104 25.2107 121.773 25.552 121.517 26C121.272 26.448 121.149 26.976 121.149 27.584C121.149 28.192 121.272 28.7253 121.517 29.184C121.773 29.632 122.104 29.9733 122.509 30.208C122.925 30.4427 123.362 30.56 123.821 30.56C124.29 30.56 124.728 30.4427 125.133 30.208C125.549 29.9627 125.88 29.6107 126.125 29.152C126.381 28.6933 126.509 28.16 126.509 27.552ZM133.993 32.144C133.161 32.144 132.409 31.9573 131.737 31.584C131.065 31.2 130.537 30.6667 130.153 29.984C129.769 29.2907 129.577 28.4907 129.577 27.584C129.577 26.688 129.774 25.8933 130.169 25.2C130.563 24.5067 131.102 23.9733 131.785 23.6C132.467 23.2267 133.23 23.04 134.073 23.04C134.915 23.04 135.678 23.2267 136.361 23.6C137.043 23.9733 137.582 24.5067 137.977 25.2C138.371 25.8933 138.569 26.688 138.569 27.584C138.569 28.48 138.366 29.2747 137.961 29.968C137.555 30.6613 137.001 31.2 136.297 31.584C135.603 31.9573 134.835 32.144 133.993 32.144ZM133.993 30.56C134.462 30.56 134.899 30.448 135.305 30.224C135.721 30 136.057 29.664 136.313 29.216C136.569 28.768 136.697 28.224 136.697 27.584C136.697 26.944 136.574 26.4053 136.329 25.968C136.083 25.52 135.758 25.184 135.353 24.96C134.947 24.736 134.51 24.624 134.041 24.624C133.571 24.624 133.134 24.736 132.729 24.96C132.334 25.184 132.019 25.52 131.785 25.968C131.55 26.4053 131.433 26.944 131.433 27.584C131.433 28.5333 131.673 29.2693 132.153 29.792C132.643 30.304 133.257 30.56 133.993 30.56ZM139.764 27.552C139.764 26.6667 139.945 25.8827 140.308 25.2C140.681 24.5173 141.183 23.9893 141.812 23.616C142.452 23.232 143.156 23.04 143.924 23.04C144.617 23.04 145.22 23.1787 145.732 23.456C146.255 23.7227 146.671 24.0587 146.98 24.464V23.184H148.82V32H146.98V30.688C146.671 31.104 146.249 31.4507 145.716 31.728C145.183 32.0053 144.575 32.144 143.892 32.144C143.135 32.144 142.441 31.952 141.812 31.568C141.183 31.1733 140.681 30.6293 140.308 29.936C139.945 29.232 139.764 28.4373 139.764 27.552ZM146.98 27.584C146.98 26.976 146.852 26.448 146.596 26C146.351 25.552 146.025 25.2107 145.62 24.976C145.215 24.7413 144.777 24.624 144.308 24.624C143.839 24.624 143.401 24.7413 142.996 24.976C142.591 25.2 142.26 25.536 142.004 25.984C141.759 26.4213 141.636 26.944 141.636 27.552C141.636 28.16 141.759 28.6933 142.004 29.152C142.26 29.6107 142.591 29.9627 142.996 30.208C143.412 30.4427 143.849 30.56 144.308 30.56C144.777 30.56 145.215 30.4427 145.62 30.208C146.025 29.9733 146.351 29.632 146.596 29.184C146.852 28.7253 146.98 28.192 146.98 27.584ZM153.04 24.464C153.306 24.016 153.658 23.6693 154.096 23.424C154.544 23.168 155.072 23.04 155.68 23.04V24.928H155.216C154.501 24.928 153.957 25.1093 153.584 25.472C153.221 25.8347 153.04 26.464 153.04 27.36V32H151.216V23.184H153.04V24.464ZM156.748 27.552C156.748 26.6667 156.93 25.8827 157.292 25.2C157.666 24.5173 158.167 23.9893 158.796 23.616C159.436 23.232 160.146 23.04 160.924 23.04C161.5 23.04 162.066 23.168 162.62 23.424C163.186 23.6693 163.634 24 163.964 24.416V20.16H165.804V32H163.964V30.672C163.666 31.0987 163.25 31.4507 162.716 31.728C162.194 32.0053 161.591 32.144 160.908 32.144C160.14 32.144 159.436 31.952 158.796 31.568C158.167 31.1733 157.666 30.6293 157.292 29.936C156.93 29.232 156.748 28.4373 156.748 27.552ZM163.964 27.584C163.964 26.976 163.836 26.448 163.58 26C163.335 25.552 163.01 25.2107 162.604 24.976C162.199 24.7413 161.762 24.624 161.292 24.624C160.823 24.624 160.386 24.7413 159.98 24.976C159.575 25.2 159.244 25.536 158.988 25.984C158.743 26.4213 158.62 26.944 158.62 27.552C158.62 28.16 158.743 28.6933 158.988 29.152C159.244 29.6107 159.575 29.9627 159.98 30.208C160.396 30.4427 160.834 30.56 161.292 30.56C161.762 30.56 162.199 30.4427 162.604 30.208C163.01 29.9733 163.335 29.632 163.58 29.184C163.836 28.7253 163.964 28.192 163.964 27.584Z" fill="#FF8500"/>
</svg>
