<svg width="786" height="190" viewBox="0 0 786 190" fill="none" xmlns="http://www.w3.org/2000/svg">
<path d="M0 0H786V180C786 185.523 781.523 190 776 190H10C4.47717 190 0 185.523 0 180V0Z" fill="white"/>
<path d="M21.1147 12.907V12.01L25.6777 5.692H27.0947V11.88H28.3947V12.907H27.0947V15H25.9247V12.907H21.1147ZM25.9767 6.927L22.4797 11.88H25.9767V6.927ZM29.5765 10.203C29.5765 8.71233 29.8192 7.551 30.3045 6.719C30.7898 5.87833 31.6392 5.458 32.8525 5.458C34.0572 5.458 34.9022 5.87833 35.3875 6.719C35.8728 7.551 36.1155 8.71233 36.1155 10.203C36.1155 11.7197 35.8728 12.8983 35.3875 13.739C34.9022 14.5797 34.0572 15 32.8525 15C31.6392 15 30.7898 14.5797 30.3045 13.739C29.8192 12.8983 29.5765 11.7197 29.5765 10.203ZM34.9455 10.203C34.9455 9.449 34.8935 8.812 34.7895 8.292C34.6942 7.76333 34.4905 7.33867 34.1785 7.018C33.8752 6.69733 33.4332 6.537 32.8525 6.537C32.2632 6.537 31.8125 6.69733 31.5005 7.018C31.1972 7.33867 30.9935 7.76333 30.8895 8.292C30.7942 8.812 30.7465 9.449 30.7465 10.203C30.7465 10.983 30.7942 11.6373 30.8895 12.166C30.9935 12.6947 31.1972 13.1193 31.5005 13.44C31.8125 13.7607 32.2632 13.921 32.8525 13.921C33.4332 13.921 33.8752 13.7607 34.1785 13.44C34.4905 13.1193 34.6942 12.6947 34.7895 12.166C34.8935 11.6373 34.9455 10.983 34.9455 10.203ZM39.1566 13.362L37.7006 16.859H36.9076L37.8566 13.362H39.1566ZM40.3167 10.203C40.3167 8.71233 40.5594 7.551 41.0447 6.719C41.5301 5.87833 42.3794 5.458 43.5927 5.458C44.7974 5.458 45.6424 5.87833 46.1277 6.719C46.6131 7.551 46.8557 8.71233 46.8557 10.203C46.8557 11.7197 46.6131 12.8983 46.1277 13.739C45.6424 14.5797 44.7974 15 43.5927 15C42.3794 15 41.5301 14.5797 41.0447 13.739C40.5594 12.8983 40.3167 11.7197 40.3167 10.203ZM45.6857 10.203C45.6857 9.449 45.6337 8.812 45.5297 8.292C45.4344 7.76333 45.2307 7.33867 44.9187 7.018C44.6154 6.69733 44.1734 6.537 43.5927 6.537C43.0034 6.537 42.5527 6.69733 42.2407 7.018C41.9374 7.33867 41.7337 7.76333 41.6297 8.292C41.5344 8.812 41.4867 9.449 41.4867 10.203C41.4867 10.983 41.5344 11.6373 41.6297 12.166C41.7337 12.6947 41.9374 13.1193 42.2407 13.44C42.5527 13.7607 43.0034 13.921 43.5927 13.921C44.1734 13.921 44.6154 13.7607 44.9187 13.44C45.2307 13.1193 45.4344 12.6947 45.5297 12.166C45.6337 11.6373 45.6857 10.983 45.6857 10.203ZM48.4798 10.203C48.4798 8.71233 48.7225 7.551 49.2078 6.719C49.6932 5.87833 50.5425 5.458 51.7558 5.458C52.9605 5.458 53.8055 5.87833 54.2908 6.719C54.7762 7.551 55.0188 8.71233 55.0188 10.203C55.0188 11.7197 54.7762 12.8983 54.2908 13.739C53.8055 14.5797 52.9605 15 51.7558 15C50.5425 15 49.6932 14.5797 49.2078 13.739C48.7225 12.8983 48.4798 11.7197 48.4798 10.203ZM53.8488 10.203C53.8488 9.449 53.7968 8.812 53.6928 8.292C53.5975 7.76333 53.3938 7.33867 53.0818 7.018C52.7785 6.69733 52.3365 6.537 51.7558 6.537C51.1665 6.537 50.7158 6.69733 50.4038 7.018C50.1005 7.33867 49.8968 7.76333 49.7928 8.292C49.6975 8.812 49.6498 9.449 49.6498 10.203C49.6498 10.983 49.6975 11.6373 49.7928 12.166C49.8968 12.6947 50.1005 13.1193 50.4038 13.44C50.7158 13.7607 51.1665 13.921 51.7558 13.921C52.3365 13.921 52.7785 13.7607 53.0818 13.44C53.3938 13.1193 53.5975 12.6947 53.6928 12.166C53.7968 11.6373 53.8488 10.983 53.8488 10.203ZM56.6429 10.203C56.6429 8.71233 56.8856 7.551 57.3709 6.719C57.8562 5.87833 58.7056 5.458 59.9189 5.458C61.1236 5.458 61.9686 5.87833 62.4539 6.719C62.9392 7.551 63.1819 8.71233 63.1819 10.203C63.1819 11.7197 62.9392 12.8983 62.4539 13.739C61.9686 14.5797 61.1236 15 59.9189 15C58.7056 15 57.8562 14.5797 57.3709 13.739C56.8856 12.8983 56.6429 11.7197 56.6429 10.203ZM62.0119 10.203C62.0119 9.449 61.9599 8.812 61.8559 8.292C61.7606 7.76333 61.5569 7.33867 61.2449 7.018C60.9416 6.69733 60.4996 6.537 59.9189 6.537C59.3296 6.537 58.8789 6.69733 58.5669 7.018C58.2636 7.33867 58.0599 7.76333 57.9559 8.292C57.8606 8.812 57.8129 9.449 57.8129 10.203C57.8129 10.983 57.8606 11.6373 57.9559 12.166C58.0599 12.6947 58.2636 13.1193 58.5669 13.44C58.8789 13.7607 59.3296 13.921 59.9189 13.921C60.4996 13.921 60.9416 13.7607 61.2449 13.44C61.5569 13.1193 61.7606 12.6947 61.8559 12.166C61.9599 11.6373 62.0119 10.983 62.0119 10.203Z" fill="#BABABA"/>
<path d="M21.8952 40.967C21.9559 40.1697 22.2636 39.5457 22.8182 39.095C23.3729 38.6443 24.0922 38.419 24.9762 38.419C25.5656 38.419 26.0726 38.5273 26.4972 38.744C26.9306 38.952 27.2556 39.238 27.4722 39.602C27.6976 39.966 27.8102 40.3777 27.8102 40.837C27.8102 41.3743 27.6542 41.838 27.3422 42.228C27.0389 42.618 26.6402 42.8693 26.1462 42.982V43.047C26.7096 43.1857 27.1559 43.4587 27.4852 43.866C27.8146 44.2733 27.9792 44.8063 27.9792 45.465C27.9792 45.959 27.8666 46.4053 27.6412 46.804C27.4159 47.194 27.0779 47.5017 26.6272 47.727C26.1766 47.9523 25.6349 48.065 25.0022 48.065C24.0836 48.065 23.3296 47.8267 22.7402 47.35C22.1509 46.8647 21.8216 46.18 21.7522 45.296H22.8962C22.9569 45.816 23.1692 46.2407 23.5332 46.57C23.8972 46.8993 24.3826 47.064 24.9892 47.064C25.5959 47.064 26.0552 46.908 26.3672 46.596C26.6879 46.2753 26.8482 45.8637 26.8482 45.361C26.8482 44.711 26.6316 44.243 26.1982 43.957C25.7649 43.671 25.1106 43.528 24.2352 43.528H23.9362V42.54H24.2482C25.0456 42.5313 25.6479 42.4013 26.0552 42.15C26.4626 41.89 26.6662 41.4913 26.6662 40.954C26.6662 40.4947 26.5146 40.1263 26.2112 39.849C25.9166 39.5717 25.4919 39.433 24.9372 39.433C24.3999 39.433 23.9666 39.5717 23.6372 39.849C23.3079 40.1263 23.1129 40.499 23.0522 40.967H21.8952ZM29.5765 43.203C29.5765 41.7123 29.8192 40.551 30.3045 39.719C30.7898 38.8783 31.6392 38.458 32.8525 38.458C34.0572 38.458 34.9022 38.8783 35.3875 39.719C35.8728 40.551 36.1155 41.7123 36.1155 43.203C36.1155 44.7197 35.8728 45.8983 35.3875 46.739C34.9022 47.5797 34.0572 48 32.8525 48C31.6392 48 30.7898 47.5797 30.3045 46.739C29.8192 45.8983 29.5765 44.7197 29.5765 43.203ZM34.9455 43.203C34.9455 42.449 34.8935 41.812 34.7895 41.292C34.6942 40.7633 34.4905 40.3387 34.1785 40.018C33.8752 39.6973 33.4332 39.537 32.8525 39.537C32.2632 39.537 31.8125 39.6973 31.5005 40.018C31.1972 40.3387 30.9935 40.7633 30.8895 41.292C30.7942 41.812 30.7465 42.449 30.7465 43.203C30.7465 43.983 30.7942 44.6373 30.8895 45.166C30.9935 45.6947 31.1972 46.1193 31.5005 46.44C31.8125 46.7607 32.2632 46.921 32.8525 46.921C33.4332 46.921 33.8752 46.7607 34.1785 46.44C34.4905 46.1193 34.6942 45.6947 34.7895 45.166C34.8935 44.6373 34.9455 43.983 34.9455 43.203ZM39.1566 46.362L37.7006 49.859H36.9076L37.8566 46.362H39.1566ZM40.3167 43.203C40.3167 41.7123 40.5594 40.551 41.0447 39.719C41.5301 38.8783 42.3794 38.458 43.5927 38.458C44.7974 38.458 45.6424 38.8783 46.1277 39.719C46.6131 40.551 46.8557 41.7123 46.8557 43.203C46.8557 44.7197 46.6131 45.8983 46.1277 46.739C45.6424 47.5797 44.7974 48 43.5927 48C42.3794 48 41.5301 47.5797 41.0447 46.739C40.5594 45.8983 40.3167 44.7197 40.3167 43.203ZM45.6857 43.203C45.6857 42.449 45.6337 41.812 45.5297 41.292C45.4344 40.7633 45.2307 40.3387 44.9187 40.018C44.6154 39.6973 44.1734 39.537 43.5927 39.537C43.0034 39.537 42.5527 39.6973 42.2407 40.018C41.9374 40.3387 41.7337 40.7633 41.6297 41.292C41.5344 41.812 41.4867 42.449 41.4867 43.203C41.4867 43.983 41.5344 44.6373 41.6297 45.166C41.7337 45.6947 41.9374 46.1193 42.2407 46.44C42.5527 46.7607 43.0034 46.921 43.5927 46.921C44.1734 46.921 44.6154 46.7607 44.9187 46.44C45.2307 46.1193 45.4344 45.6947 45.5297 45.166C45.6337 44.6373 45.6857 43.983 45.6857 43.203ZM48.4798 43.203C48.4798 41.7123 48.7225 40.551 49.2078 39.719C49.6932 38.8783 50.5425 38.458 51.7558 38.458C52.9605 38.458 53.8055 38.8783 54.2908 39.719C54.7762 40.551 55.0188 41.7123 55.0188 43.203C55.0188 44.7197 54.7762 45.8983 54.2908 46.739C53.8055 47.5797 52.9605 48 51.7558 48C50.5425 48 49.6932 47.5797 49.2078 46.739C48.7225 45.8983 48.4798 44.7197 48.4798 43.203ZM53.8488 43.203C53.8488 42.449 53.7968 41.812 53.6928 41.292C53.5975 40.7633 53.3938 40.3387 53.0818 40.018C52.7785 39.6973 52.3365 39.537 51.7558 39.537C51.1665 39.537 50.7158 39.6973 50.4038 40.018C50.1005 40.3387 49.8968 40.7633 49.7928 41.292C49.6975 41.812 49.6498 42.449 49.6498 43.203C49.6498 43.983 49.6975 44.6373 49.7928 45.166C49.8968 45.6947 50.1005 46.1193 50.4038 46.44C50.7158 46.7607 51.1665 46.921 51.7558 46.921C52.3365 46.921 52.7785 46.7607 53.0818 46.44C53.3938 46.1193 53.5975 45.6947 53.6928 45.166C53.7968 44.6373 53.8488 43.983 53.8488 43.203ZM56.6429 43.203C56.6429 41.7123 56.8856 40.551 57.3709 39.719C57.8562 38.8783 58.7056 38.458 59.9189 38.458C61.1236 38.458 61.9686 38.8783 62.4539 39.719C62.9392 40.551 63.1819 41.7123 63.1819 43.203C63.1819 44.7197 62.9392 45.8983 62.4539 46.739C61.9686 47.5797 61.1236 48 59.9189 48C58.7056 48 57.8562 47.5797 57.3709 46.739C56.8856 45.8983 56.6429 44.7197 56.6429 43.203ZM62.0119 43.203C62.0119 42.449 61.9599 41.812 61.8559 41.292C61.7606 40.7633 61.5569 40.3387 61.2449 40.018C60.9416 39.6973 60.4996 39.537 59.9189 39.537C59.3296 39.537 58.8789 39.6973 58.5669 40.018C58.2636 40.3387 58.0599 40.7633 57.9559 41.292C57.8606 41.812 57.8129 42.449 57.8129 43.203C57.8129 43.983 57.8606 44.6373 57.9559 45.166C58.0599 45.6947 58.2636 46.1193 58.5669 46.44C58.8789 46.7607 59.3296 46.921 59.9189 46.921C60.4996 46.921 60.9416 46.7607 61.2449 46.44C61.5569 46.1193 61.7606 45.6947 61.8559 45.166C61.9599 44.6373 62.0119 43.983 62.0119 43.203Z" fill="#BABABA"/>
<path d="M21.956 80.051C23.0566 79.167 23.919 78.4433 24.543 77.88C25.167 77.308 25.6913 76.7143 26.116 76.099C26.5493 75.475 26.766 74.864 26.766 74.266C26.766 73.7027 26.6273 73.2607 26.35 72.94C26.0813 72.6107 25.6436 72.446 25.037 72.446C24.4476 72.446 23.9883 72.6323 23.659 73.005C23.3383 73.369 23.165 73.8587 23.139 74.474H21.995C22.0296 73.5033 22.3243 72.7537 22.879 72.225C23.4336 71.6963 24.1486 71.432 25.024 71.432C25.9166 71.432 26.623 71.679 27.143 72.173C27.6716 72.667 27.936 73.3473 27.936 74.214C27.936 74.9333 27.7193 75.6353 27.286 76.32C26.8613 76.996 26.376 77.594 25.83 78.114C25.284 78.6253 24.5863 79.2233 23.737 79.908H28.209V80.896H21.956V80.051ZM29.5765 76.203C29.5765 74.7123 29.8192 73.551 30.3045 72.719C30.7898 71.8783 31.6392 71.458 32.8525 71.458C34.0572 71.458 34.9022 71.8783 35.3875 72.719C35.8728 73.551 36.1155 74.7123 36.1155 76.203C36.1155 77.7197 35.8728 78.8983 35.3875 79.739C34.9022 80.5797 34.0572 81 32.8525 81C31.6392 81 30.7898 80.5797 30.3045 79.739C29.8192 78.8983 29.5765 77.7197 29.5765 76.203ZM34.9455 76.203C34.9455 75.449 34.8935 74.812 34.7895 74.292C34.6942 73.7633 34.4905 73.3387 34.1785 73.018C33.8752 72.6973 33.4332 72.537 32.8525 72.537C32.2632 72.537 31.8125 72.6973 31.5005 73.018C31.1972 73.3387 30.9935 73.7633 30.8895 74.292C30.7942 74.812 30.7465 75.449 30.7465 76.203C30.7465 76.983 30.7942 77.6373 30.8895 78.166C30.9935 78.6947 31.1972 79.1193 31.5005 79.44C31.8125 79.7607 32.2632 79.921 32.8525 79.921C33.4332 79.921 33.8752 79.7607 34.1785 79.44C34.4905 79.1193 34.6942 78.6947 34.7895 78.166C34.8935 77.6373 34.9455 76.983 34.9455 76.203ZM39.1566 79.362L37.7006 82.859H36.9076L37.8566 79.362H39.1566ZM40.3167 76.203C40.3167 74.7123 40.5594 73.551 41.0447 72.719C41.5301 71.8783 42.3794 71.458 43.5927 71.458C44.7974 71.458 45.6424 71.8783 46.1277 72.719C46.6131 73.551 46.8557 74.7123 46.8557 76.203C46.8557 77.7197 46.6131 78.8983 46.1277 79.739C45.6424 80.5797 44.7974 81 43.5927 81C42.3794 81 41.5301 80.5797 41.0447 79.739C40.5594 78.8983 40.3167 77.7197 40.3167 76.203ZM45.6857 76.203C45.6857 75.449 45.6337 74.812 45.5297 74.292C45.4344 73.7633 45.2307 73.3387 44.9187 73.018C44.6154 72.6973 44.1734 72.537 43.5927 72.537C43.0034 72.537 42.5527 72.6973 42.2407 73.018C41.9374 73.3387 41.7337 73.7633 41.6297 74.292C41.5344 74.812 41.4867 75.449 41.4867 76.203C41.4867 76.983 41.5344 77.6373 41.6297 78.166C41.7337 78.6947 41.9374 79.1193 42.2407 79.44C42.5527 79.7607 43.0034 79.921 43.5927 79.921C44.1734 79.921 44.6154 79.7607 44.9187 79.44C45.2307 79.1193 45.4344 78.6947 45.5297 78.166C45.6337 77.6373 45.6857 76.983 45.6857 76.203ZM48.4798 76.203C48.4798 74.7123 48.7225 73.551 49.2078 72.719C49.6932 71.8783 50.5425 71.458 51.7558 71.458C52.9605 71.458 53.8055 71.8783 54.2908 72.719C54.7762 73.551 55.0188 74.7123 55.0188 76.203C55.0188 77.7197 54.7762 78.8983 54.2908 79.739C53.8055 80.5797 52.9605 81 51.7558 81C50.5425 81 49.6932 80.5797 49.2078 79.739C48.7225 78.8983 48.4798 77.7197 48.4798 76.203ZM53.8488 76.203C53.8488 75.449 53.7968 74.812 53.6928 74.292C53.5975 73.7633 53.3938 73.3387 53.0818 73.018C52.7785 72.6973 52.3365 72.537 51.7558 72.537C51.1665 72.537 50.7158 72.6973 50.4038 73.018C50.1005 73.3387 49.8968 73.7633 49.7928 74.292C49.6975 74.812 49.6498 75.449 49.6498 76.203C49.6498 76.983 49.6975 77.6373 49.7928 78.166C49.8968 78.6947 50.1005 79.1193 50.4038 79.44C50.7158 79.7607 51.1665 79.921 51.7558 79.921C52.3365 79.921 52.7785 79.7607 53.0818 79.44C53.3938 79.1193 53.5975 78.6947 53.6928 78.166C53.7968 77.6373 53.8488 76.983 53.8488 76.203ZM56.6429 76.203C56.6429 74.7123 56.8856 73.551 57.3709 72.719C57.8562 71.8783 58.7056 71.458 59.9189 71.458C61.1236 71.458 61.9686 71.8783 62.4539 72.719C62.9392 73.551 63.1819 74.7123 63.1819 76.203C63.1819 77.7197 62.9392 78.8983 62.4539 79.739C61.9686 80.5797 61.1236 81 59.9189 81C58.7056 81 57.8562 80.5797 57.3709 79.739C56.8856 78.8983 56.6429 77.7197 56.6429 76.203ZM62.0119 76.203C62.0119 75.449 61.9599 74.812 61.8559 74.292C61.7606 73.7633 61.5569 73.3387 61.2449 73.018C60.9416 72.6973 60.4996 72.537 59.9189 72.537C59.3296 72.537 58.8789 72.6973 58.5669 73.018C58.2636 73.3387 58.0599 73.7633 57.9559 74.292C57.8606 74.812 57.8129 75.449 57.8129 76.203C57.8129 76.983 57.8606 77.6373 57.9559 78.166C58.0599 78.6947 58.2636 79.1193 58.5669 79.44C58.8789 79.7607 59.3296 79.921 59.9189 79.921C60.4996 79.921 60.9416 79.7607 61.2449 79.44C61.5569 79.1193 61.7606 78.6947 61.8559 78.166C61.9599 77.6373 62.0119 76.983 62.0119 76.203Z" fill="#BABABA"/>
<path d="M25.1004 105.68V104.601H27.5444V114H26.3484V105.68H25.1004ZM29.5765 109.203C29.5765 107.712 29.8192 106.551 30.3045 105.719C30.7898 104.878 31.6392 104.458 32.8525 104.458C34.0572 104.458 34.9022 104.878 35.3875 105.719C35.8728 106.551 36.1155 107.712 36.1155 109.203C36.1155 110.72 35.8728 111.898 35.3875 112.739C34.9022 113.58 34.0572 114 32.8525 114C31.6392 114 30.7898 113.58 30.3045 112.739C29.8192 111.898 29.5765 110.72 29.5765 109.203ZM34.9455 109.203C34.9455 108.449 34.8935 107.812 34.7895 107.292C34.6942 106.763 34.4905 106.339 34.1785 106.018C33.8752 105.697 33.4332 105.537 32.8525 105.537C32.2632 105.537 31.8125 105.697 31.5005 106.018C31.1972 106.339 30.9935 106.763 30.8895 107.292C30.7942 107.812 30.7465 108.449 30.7465 109.203C30.7465 109.983 30.7942 110.637 30.8895 111.166C30.9935 111.695 31.1972 112.119 31.5005 112.44C31.8125 112.761 32.2632 112.921 32.8525 112.921C33.4332 112.921 33.8752 112.761 34.1785 112.44C34.4905 112.119 34.6942 111.695 34.7895 111.166C34.8935 110.637 34.9455 109.983 34.9455 109.203ZM39.1566 112.362L37.7006 115.859H36.9076L37.8566 112.362H39.1566ZM40.3167 109.203C40.3167 107.712 40.5594 106.551 41.0447 105.719C41.5301 104.878 42.3794 104.458 43.5927 104.458C44.7974 104.458 45.6424 104.878 46.1277 105.719C46.6131 106.551 46.8557 107.712 46.8557 109.203C46.8557 110.72 46.6131 111.898 46.1277 112.739C45.6424 113.58 44.7974 114 43.5927 114C42.3794 114 41.5301 113.58 41.0447 112.739C40.5594 111.898 40.3167 110.72 40.3167 109.203ZM45.6857 109.203C45.6857 108.449 45.6337 107.812 45.5297 107.292C45.4344 106.763 45.2307 106.339 44.9187 106.018C44.6154 105.697 44.1734 105.537 43.5927 105.537C43.0034 105.537 42.5527 105.697 42.2407 106.018C41.9374 106.339 41.7337 106.763 41.6297 107.292C41.5344 107.812 41.4867 108.449 41.4867 109.203C41.4867 109.983 41.5344 110.637 41.6297 111.166C41.7337 111.695 41.9374 112.119 42.2407 112.44C42.5527 112.761 43.0034 112.921 43.5927 112.921C44.1734 112.921 44.6154 112.761 44.9187 112.44C45.2307 112.119 45.4344 111.695 45.5297 111.166C45.6337 110.637 45.6857 109.983 45.6857 109.203ZM48.4798 109.203C48.4798 107.712 48.7225 106.551 49.2078 105.719C49.6932 104.878 50.5425 104.458 51.7558 104.458C52.9605 104.458 53.8055 104.878 54.2908 105.719C54.7762 106.551 55.0188 107.712 55.0188 109.203C55.0188 110.72 54.7762 111.898 54.2908 112.739C53.8055 113.58 52.9605 114 51.7558 114C50.5425 114 49.6932 113.58 49.2078 112.739C48.7225 111.898 48.4798 110.72 48.4798 109.203ZM53.8488 109.203C53.8488 108.449 53.7968 107.812 53.6928 107.292C53.5975 106.763 53.3938 106.339 53.0818 106.018C52.7785 105.697 52.3365 105.537 51.7558 105.537C51.1665 105.537 50.7158 105.697 50.4038 106.018C50.1005 106.339 49.8968 106.763 49.7928 107.292C49.6975 107.812 49.6498 108.449 49.6498 109.203C49.6498 109.983 49.6975 110.637 49.7928 111.166C49.8968 111.695 50.1005 112.119 50.4038 112.44C50.7158 112.761 51.1665 112.921 51.7558 112.921C52.3365 112.921 52.7785 112.761 53.0818 112.44C53.3938 112.119 53.5975 111.695 53.6928 111.166C53.7968 110.637 53.8488 109.983 53.8488 109.203ZM56.6429 109.203C56.6429 107.712 56.8856 106.551 57.3709 105.719C57.8562 104.878 58.7056 104.458 59.9189 104.458C61.1236 104.458 61.9686 104.878 62.4539 105.719C62.9392 106.551 63.1819 107.712 63.1819 109.203C63.1819 110.72 62.9392 111.898 62.4539 112.739C61.9686 113.58 61.1236 114 59.9189 114C58.7056 114 57.8562 113.58 57.3709 112.739C56.8856 111.898 56.6429 110.72 56.6429 109.203ZM62.0119 109.203C62.0119 108.449 61.9599 107.812 61.8559 107.292C61.7606 106.763 61.5569 106.339 61.2449 106.018C60.9416 105.697 60.4996 105.537 59.9189 105.537C59.3296 105.537 58.8789 105.697 58.5669 106.018C58.2636 106.339 58.0599 106.763 57.9559 107.292C57.8606 107.812 57.8129 108.449 57.8129 109.203C57.8129 109.983 57.8606 110.637 57.9559 111.166C58.0599 111.695 58.2636 112.119 58.5669 112.44C58.8789 112.761 59.3296 112.921 59.9189 112.921C60.4996 112.921 60.9416 112.761 61.2449 112.44C61.5569 112.119 61.7606 111.695 61.8559 111.166C61.9599 110.637 62.0119 109.983 62.0119 109.203Z" fill="#BABABA"/>
<path d="M56.6429 142.203C56.6429 140.712 56.8856 139.551 57.3709 138.719C57.8562 137.878 58.7056 137.458 59.9189 137.458C61.1236 137.458 61.9686 137.878 62.4539 138.719C62.9392 139.551 63.1819 140.712 63.1819 142.203C63.1819 143.72 62.9392 144.898 62.4539 145.739C61.9686 146.58 61.1236 147 59.9189 147C58.7056 147 57.8562 146.58 57.3709 145.739C56.8856 144.898 56.6429 143.72 56.6429 142.203ZM62.0119 142.203C62.0119 141.449 61.9599 140.812 61.8559 140.292C61.7606 139.763 61.5569 139.339 61.2449 139.018C60.9416 138.697 60.4996 138.537 59.9189 138.537C59.3296 138.537 58.8789 138.697 58.5669 139.018C58.2636 139.339 58.0599 139.763 57.9559 140.292C57.8606 140.812 57.8129 141.449 57.8129 142.203C57.8129 142.983 57.8606 143.637 57.9559 144.166C58.0599 144.695 58.2636 145.119 58.5669 145.44C58.8789 145.761 59.3296 145.921 59.9189 145.921C60.4996 145.921 60.9416 145.761 61.2449 145.44C61.5569 145.119 61.7606 144.695 61.8559 144.166C61.9599 143.637 62.0119 142.983 62.0119 142.203Z" fill="#BABABA"/>
<path d="M146.596 168.939V178H145.413V173.892H140.798V178H139.615V168.939H140.798V172.917H145.413V168.939H146.596ZM151.723 178.117C151.056 178.117 150.449 177.965 149.903 177.662C149.366 177.359 148.941 176.93 148.629 176.375C148.326 175.812 148.174 175.162 148.174 174.425C148.174 173.697 148.33 173.056 148.642 172.501C148.963 171.938 149.396 171.509 149.942 171.214C150.488 170.911 151.099 170.759 151.775 170.759C152.451 170.759 153.062 170.911 153.608 171.214C154.154 171.509 154.583 171.933 154.895 172.488C155.216 173.043 155.376 173.688 155.376 174.425C155.376 175.162 155.212 175.812 154.882 176.375C154.562 176.93 154.124 177.359 153.569 177.662C153.015 177.965 152.399 178.117 151.723 178.117ZM151.723 177.077C152.148 177.077 152.547 176.977 152.919 176.778C153.292 176.579 153.591 176.28 153.816 175.881C154.05 175.482 154.167 174.997 154.167 174.425C154.167 173.853 154.055 173.368 153.829 172.969C153.604 172.57 153.309 172.276 152.945 172.085C152.581 171.886 152.187 171.786 151.762 171.786C151.329 171.786 150.93 171.886 150.566 172.085C150.211 172.276 149.925 172.57 149.708 172.969C149.492 173.368 149.383 173.853 149.383 174.425C149.383 175.006 149.487 175.495 149.695 175.894C149.912 176.293 150.198 176.592 150.553 176.791C150.909 176.982 151.299 177.077 151.723 177.077ZM165.499 170.746C166.053 170.746 166.547 170.863 166.981 171.097C167.414 171.322 167.756 171.665 168.008 172.124C168.259 172.583 168.385 173.142 168.385 173.801V178H167.215V173.97C167.215 173.259 167.037 172.718 166.682 172.345C166.335 171.964 165.863 171.773 165.265 171.773C164.649 171.773 164.16 171.972 163.796 172.371C163.432 172.761 163.25 173.329 163.25 174.074V178H162.08V173.97C162.08 173.259 161.902 172.718 161.547 172.345C161.2 171.964 160.728 171.773 160.13 171.773C159.514 171.773 159.025 171.972 158.661 172.371C158.297 172.761 158.115 173.329 158.115 174.074V178H156.932V170.876H158.115V171.903C158.349 171.53 158.661 171.244 159.051 171.045C159.449 170.846 159.887 170.746 160.364 170.746C160.962 170.746 161.49 170.88 161.95 171.149C162.409 171.418 162.751 171.812 162.977 172.332C163.176 171.829 163.505 171.439 163.965 171.162C164.424 170.885 164.935 170.746 165.499 170.746ZM176.825 174.165C176.825 174.39 176.812 174.629 176.786 174.88H171.092C171.136 175.582 171.374 176.132 171.807 176.531C172.249 176.921 172.782 177.116 173.406 177.116C173.918 177.116 174.342 176.999 174.68 176.765C175.027 176.522 175.27 176.202 175.408 175.803H176.682C176.492 176.488 176.11 177.047 175.538 177.48C174.966 177.905 174.256 178.117 173.406 178.117C172.73 178.117 172.124 177.965 171.586 177.662C171.058 177.359 170.642 176.93 170.338 176.375C170.035 175.812 169.883 175.162 169.883 174.425C169.883 173.688 170.031 173.043 170.325 172.488C170.62 171.933 171.032 171.509 171.56 171.214C172.098 170.911 172.713 170.759 173.406 170.759C174.082 170.759 174.68 170.906 175.2 171.201C175.72 171.496 176.119 171.903 176.396 172.423C176.682 172.934 176.825 173.515 176.825 174.165ZM175.603 173.918C175.603 173.467 175.504 173.082 175.304 172.761C175.105 172.432 174.832 172.185 174.485 172.02C174.147 171.847 173.77 171.76 173.354 171.76C172.756 171.76 172.245 171.951 171.82 172.332C171.404 172.713 171.166 173.242 171.105 173.918H175.603Z" fill="#BABABA"/>
<path d="M250.214 169.004V178H249.031V171.292L246.041 178H245.209L242.206 171.279V178H241.023V169.004H242.297L245.625 176.44L248.953 169.004H250.214ZM255.327 178.117C254.66 178.117 254.053 177.965 253.507 177.662C252.97 177.359 252.545 176.93 252.233 176.375C251.93 175.812 251.778 175.162 251.778 174.425C251.778 173.697 251.934 173.056 252.246 172.501C252.567 171.938 253 171.509 253.546 171.214C254.092 170.911 254.703 170.759 255.379 170.759C256.055 170.759 256.666 170.911 257.212 171.214C257.758 171.509 258.187 171.933 258.499 172.488C258.82 173.043 258.98 173.688 258.98 174.425C258.98 175.162 258.816 175.812 258.486 176.375C258.166 176.93 257.728 177.359 257.173 177.662C256.619 177.965 256.003 178.117 255.327 178.117ZM255.327 177.077C255.752 177.077 256.151 176.977 256.523 176.778C256.896 176.579 257.195 176.28 257.42 175.881C257.654 175.482 257.771 174.997 257.771 174.425C257.771 173.853 257.659 173.368 257.433 172.969C257.208 172.57 256.913 172.276 256.549 172.085C256.185 171.886 255.791 171.786 255.366 171.786C254.933 171.786 254.534 171.886 254.17 172.085C253.815 172.276 253.529 172.57 253.312 172.969C253.096 173.368 252.987 173.853 252.987 174.425C252.987 175.006 253.091 175.495 253.299 175.894C253.516 176.293 253.802 176.592 254.157 176.791C254.513 176.982 254.903 177.077 255.327 177.077ZM261.719 172.202C261.961 171.777 262.317 171.431 262.785 171.162C263.253 170.893 263.786 170.759 264.384 170.759C265.025 170.759 265.601 170.911 266.113 171.214C266.624 171.517 267.027 171.946 267.322 172.501C267.616 173.047 267.764 173.684 267.764 174.412C267.764 175.131 267.616 175.773 267.322 176.336C267.027 176.899 266.62 177.337 266.1 177.649C265.588 177.961 265.016 178.117 264.384 178.117C263.768 178.117 263.227 177.983 262.759 177.714C262.299 177.445 261.953 177.103 261.719 176.687V178H260.536V168.38H261.719V172.202ZM266.555 174.412C266.555 173.875 266.446 173.407 266.23 173.008C266.013 172.609 265.718 172.306 265.346 172.098C264.982 171.89 264.579 171.786 264.137 171.786C263.703 171.786 263.3 171.894 262.928 172.111C262.564 172.319 262.269 172.627 262.044 173.034C261.827 173.433 261.719 173.896 261.719 174.425C261.719 174.962 261.827 175.435 262.044 175.842C262.269 176.241 262.564 176.548 262.928 176.765C263.3 176.973 263.703 177.077 264.137 177.077C264.579 177.077 264.982 176.973 265.346 176.765C265.718 176.548 266.013 176.241 266.23 175.842C266.446 175.435 266.555 174.958 266.555 174.412ZM269.932 169.719C269.706 169.719 269.516 169.641 269.36 169.485C269.204 169.329 269.126 169.138 269.126 168.913C269.126 168.688 269.204 168.497 269.36 168.341C269.516 168.185 269.706 168.107 269.932 168.107C270.148 168.107 270.33 168.185 270.478 168.341C270.634 168.497 270.712 168.688 270.712 168.913C270.712 169.138 270.634 169.329 270.478 169.485C270.33 169.641 270.148 169.719 269.932 169.719ZM270.504 170.876V178H269.321V170.876H270.504ZM273.703 168.38V178H272.52V168.38H273.703ZM276.33 169.719C276.105 169.719 275.914 169.641 275.758 169.485C275.602 169.329 275.524 169.138 275.524 168.913C275.524 168.688 275.602 168.497 275.758 168.341C275.914 168.185 276.105 168.107 276.33 168.107C276.547 168.107 276.729 168.185 276.876 168.341C277.032 168.497 277.11 168.688 277.11 168.913C277.11 169.138 277.032 169.329 276.876 169.485C276.729 169.641 276.547 169.719 276.33 169.719ZM276.902 170.876V178H275.719V170.876H276.902ZM280.361 171.851V176.05C280.361 176.397 280.435 176.644 280.582 176.791C280.73 176.93 280.985 176.999 281.349 176.999H282.22V178H281.154C280.496 178 280.002 177.848 279.672 177.545C279.343 177.242 279.178 176.743 279.178 176.05V171.851H278.255V170.876H279.178V169.082H280.361V170.876H282.22V171.851H280.361ZM289.79 170.876L285.5 181.354H284.278L285.682 177.922L282.809 170.876H284.122L286.358 176.648L288.568 170.876H289.79Z" fill="#BABABA"/>
<path d="M358.97 168.939V169.901H356.5V178H355.317V169.901H352.834V168.939H358.97ZM361.609 172.033C361.817 171.626 362.112 171.309 362.493 171.084C362.883 170.859 363.356 170.746 363.91 170.746V171.968H363.598C362.272 171.968 361.609 172.687 361.609 174.126V178H360.426V170.876H361.609V172.033ZM364.834 174.412C364.834 173.684 364.981 173.047 365.276 172.501C365.571 171.946 365.974 171.517 366.485 171.214C367.005 170.911 367.581 170.759 368.214 170.759C368.838 170.759 369.38 170.893 369.839 171.162C370.298 171.431 370.641 171.769 370.866 172.176V170.876H372.062V178H370.866V176.674C370.632 177.09 370.281 177.437 369.813 177.714C369.354 177.983 368.816 178.117 368.201 178.117C367.568 178.117 366.996 177.961 366.485 177.649C365.974 177.337 365.571 176.899 365.276 176.336C364.981 175.773 364.834 175.131 364.834 174.412ZM370.866 174.425C370.866 173.888 370.758 173.42 370.541 173.021C370.324 172.622 370.03 172.319 369.657 172.111C369.293 171.894 368.89 171.786 368.448 171.786C368.006 171.786 367.603 171.89 367.239 172.098C366.875 172.306 366.585 172.609 366.368 173.008C366.151 173.407 366.043 173.875 366.043 174.412C366.043 174.958 366.151 175.435 366.368 175.842C366.585 176.241 366.875 176.548 367.239 176.765C367.603 176.973 368.006 177.077 368.448 177.077C368.89 177.077 369.293 176.973 369.657 176.765C370.03 176.548 370.324 176.241 370.541 175.842C370.758 175.435 370.866 174.962 370.866 174.425ZM376.713 176.908L378.923 170.876H380.184L377.389 178H376.011L373.216 170.876H374.49L376.713 176.908ZM387.848 174.165C387.848 174.39 387.835 174.629 387.809 174.88H382.115C382.159 175.582 382.397 176.132 382.83 176.531C383.272 176.921 383.805 177.116 384.429 177.116C384.941 177.116 385.365 176.999 385.703 176.765C386.05 176.522 386.293 176.202 386.431 175.803H387.705C387.515 176.488 387.133 177.047 386.561 177.48C385.989 177.905 385.279 178.117 384.429 178.117C383.753 178.117 383.147 177.965 382.609 177.662C382.081 177.359 381.665 176.93 381.361 176.375C381.058 175.812 380.906 175.162 380.906 174.425C380.906 173.688 381.054 173.043 381.348 172.488C381.643 171.933 382.055 171.509 382.583 171.214C383.121 170.911 383.736 170.759 384.429 170.759C385.105 170.759 385.703 170.906 386.223 171.201C386.743 171.496 387.142 171.903 387.419 172.423C387.705 172.934 387.848 173.515 387.848 174.165ZM386.626 173.918C386.626 173.467 386.527 173.082 386.327 172.761C386.128 172.432 385.855 172.185 385.508 172.02C385.17 171.847 384.793 171.76 384.377 171.76C383.779 171.76 383.268 171.951 382.843 172.332C382.427 172.713 382.189 173.242 382.128 173.918H386.626ZM390.593 168.38V178H389.41V168.38H390.593Z" fill="#BABABA"/>
<rect x="90.5" y="4.5" width="358" height="142" rx="9.5" stroke="#EBEBEB" stroke-dasharray="2 2"/>
<path d="M90 115H448" stroke="#EBEBEB" stroke-dasharray="2 2"/>
<path d="M90 78H448" stroke="#EBEBEB" stroke-dasharray="2 2"/>
<path d="M90 41H448" stroke="#EBEBEB" stroke-dasharray="2 2"/>
<path d="M156 4L156 142" stroke="#EBEBEB" stroke-dasharray="2 2"/>
<path d="M265 2L265 141" stroke="#EBEBEB" stroke-dasharray="2 2"/>
<path d="M369 2L369 141" stroke="#EBEBEB" stroke-dasharray="2 2"/>
<rect x="149" y="33" width="15" height="114" rx="5" fill="#19A526"/>
<rect x="257" y="51" width="15" height="96" rx="5" fill="#19A526"/>
<rect x="365" y="92" width="15" height="55" rx="5" fill="#19A526"/>
<rect x="492" width="294" height="85" rx="10" fill="#F1FBF2"/>
<path d="M512 39.9534V40.5H518.392V39.9534C516.834 39.9534 516.444 38.919 516.444 38.4018V34.699H522.603V33.9584H516.444V32.8652H522.603V32.1247H516.444V27.4874H520.91C522.739 27.4874 523.295 28.9568 523.344 29.6914H524V26.5H512.021V27.0642C513.528 27.0642 513.933 27.9341 513.947 28.369V32.1247H512.169V32.8652H513.947V33.9584H512.169V34.699H513.947V38.4018C513.947 39.6431 512.649 39.9534 512 39.9534Z" fill="#19A526"/>
<path d="M531.214 37.21C532.366 36.214 533.272 35.398 533.932 34.762C534.604 34.114 535.162 33.442 535.606 32.746C536.05 32.05 536.272 31.354 536.272 30.658C536.272 29.938 536.098 29.374 535.75 28.966C535.414 28.558 534.88 28.354 534.148 28.354C533.44 28.354 532.888 28.582 532.492 29.038C532.108 29.482 531.904 30.082 531.88 30.838H529.9C529.936 29.47 530.344 28.426 531.124 27.706C531.916 26.974 532.918 26.608 534.13 26.608C535.438 26.608 536.458 26.968 537.19 27.688C537.934 28.408 538.306 29.368 538.306 30.568C538.306 31.432 538.084 32.266 537.64 33.07C537.208 33.862 536.686 34.576 536.074 35.212C535.474 35.836 534.706 36.562 533.77 37.39L532.96 38.11H538.666V39.82H529.918V38.326L531.214 37.21ZM540.433 30.118C540.505 29.002 540.931 28.132 541.711 27.508C542.503 26.884 543.511 26.572 544.735 26.572C545.575 26.572 546.301 26.722 546.913 27.022C547.525 27.322 547.987 27.73 548.299 28.246C548.611 28.762 548.767 29.344 548.767 29.992C548.767 30.736 548.569 31.372 548.173 31.9C547.777 32.428 547.303 32.782 546.751 32.962V33.034C547.459 33.25 548.011 33.646 548.407 34.222C548.803 34.786 549.001 35.512 549.001 36.4C549.001 37.108 548.839 37.738 548.515 38.29C548.191 38.842 547.711 39.28 547.075 39.604C546.439 39.916 545.677 40.072 544.789 40.072C543.493 40.072 542.425 39.742 541.585 39.082C540.757 38.41 540.313 37.45 540.253 36.202H542.233C542.281 36.838 542.527 37.36 542.971 37.768C543.415 38.164 544.015 38.362 544.771 38.362C545.503 38.362 546.067 38.164 546.463 37.768C546.859 37.36 547.057 36.838 547.057 36.202C547.057 35.362 546.787 34.768 546.247 34.42C545.719 34.06 544.903 33.88 543.799 33.88H543.331V32.188H543.817C544.789 32.176 545.527 32.014 546.031 31.702C546.547 31.39 546.805 30.898 546.805 30.226C546.805 29.65 546.619 29.194 546.247 28.858C545.875 28.51 545.347 28.336 544.663 28.336C543.991 28.336 543.469 28.51 543.097 28.858C542.725 29.194 542.503 29.614 542.431 30.118H540.433ZM553.676 37.534L551.498 42.502H550.166L551.444 37.534H553.676ZM554.947 37.264V35.716L560.995 27.04H563.479V35.482H565.153V37.264H563.479V40H561.463V37.264H554.947ZM561.553 29.128L557.305 35.482H561.553V29.128ZM575.313 28.642H569.283V32.224C569.535 31.888 569.907 31.606 570.399 31.378C570.903 31.15 571.437 31.036 572.001 31.036C573.009 31.036 573.825 31.252 574.449 31.684C575.085 32.116 575.535 32.662 575.799 33.322C576.075 33.982 576.213 34.678 576.213 35.41C576.213 36.298 576.039 37.09 575.691 37.786C575.355 38.47 574.845 39.01 574.161 39.406C573.489 39.802 572.661 40 571.677 40C570.369 40 569.319 39.676 568.527 39.028C567.735 38.38 567.261 37.522 567.105 36.454H569.103C569.235 37.018 569.529 37.468 569.985 37.804C570.441 38.128 571.011 38.29 571.695 38.29C572.547 38.29 573.183 38.032 573.603 37.516C574.035 37 574.251 36.316 574.251 35.464C574.251 34.6 574.035 33.94 573.603 33.484C573.171 33.016 572.535 32.782 571.695 32.782C571.107 32.782 570.609 32.932 570.201 33.232C569.805 33.52 569.517 33.916 569.337 34.42H567.393V26.842H575.313V28.642ZM580.87 37.534L578.692 42.502H577.36L578.638 37.534H580.87ZM582.393 33.268C582.393 31.192 582.741 29.572 583.437 28.408C584.145 27.232 585.357 26.644 587.073 26.644C588.789 26.644 589.995 27.232 590.691 28.408C591.399 29.572 591.753 31.192 591.753 33.268C591.753 35.368 591.399 37.012 590.691 38.2C589.995 39.376 588.789 39.964 587.073 39.964C585.357 39.964 584.145 39.376 583.437 38.2C582.741 37.012 582.393 35.368 582.393 33.268ZM589.737 33.268C589.737 32.296 589.671 31.474 589.539 30.802C589.419 30.13 589.167 29.584 588.783 29.164C588.399 28.732 587.829 28.516 587.073 28.516C586.317 28.516 585.747 28.732 585.363 29.164C584.979 29.584 584.721 30.13 584.589 30.802C584.469 31.474 584.409 32.296 584.409 33.268C584.409 34.276 584.469 35.122 584.589 35.806C584.709 36.49 584.961 37.042 585.345 37.462C585.741 37.882 586.317 38.092 587.073 38.092C587.829 38.092 588.399 37.882 588.783 37.462C589.179 37.042 589.437 36.49 589.557 35.806C589.677 35.122 589.737 34.276 589.737 33.268ZM593.924 33.268C593.924 31.192 594.272 29.572 594.968 28.408C595.676 27.232 596.888 26.644 598.604 26.644C600.32 26.644 601.526 27.232 602.222 28.408C602.93 29.572 603.284 31.192 603.284 33.268C603.284 35.368 602.93 37.012 602.222 38.2C601.526 39.376 600.32 39.964 598.604 39.964C596.888 39.964 595.676 39.376 594.968 38.2C594.272 37.012 593.924 35.368 593.924 33.268ZM601.268 33.268C601.268 32.296 601.202 31.474 601.07 30.802C600.95 30.13 600.698 29.584 600.314 29.164C599.93 28.732 599.36 28.516 598.604 28.516C597.848 28.516 597.278 28.732 596.894 29.164C596.51 29.584 596.252 30.13 596.12 30.802C596 31.474 595.94 32.296 595.94 33.268C595.94 34.276 596 35.122 596.12 35.806C596.24 36.49 596.492 37.042 596.876 37.462C597.272 37.882 597.848 38.092 598.604 38.092C599.36 38.092 599.93 37.882 600.314 37.462C600.71 37.042 600.968 36.49 601.088 35.806C601.208 35.122 601.268 34.276 601.268 33.268ZM605.455 33.268C605.455 31.192 605.803 29.572 606.499 28.408C607.207 27.232 608.419 26.644 610.135 26.644C611.851 26.644 613.057 27.232 613.753 28.408C614.461 29.572 614.815 31.192 614.815 33.268C614.815 35.368 614.461 37.012 613.753 38.2C613.057 39.376 611.851 39.964 610.135 39.964C608.419 39.964 607.207 39.376 606.499 38.2C605.803 37.012 605.455 35.368 605.455 33.268ZM612.799 33.268C612.799 32.296 612.733 31.474 612.601 30.802C612.481 30.13 612.229 29.584 611.845 29.164C611.461 28.732 610.891 28.516 610.135 28.516C609.379 28.516 608.809 28.732 608.425 29.164C608.041 29.584 607.783 30.13 607.651 30.802C607.531 31.474 607.471 32.296 607.471 33.268C607.471 34.276 607.531 35.122 607.651 35.806C607.771 36.49 608.023 37.042 608.407 37.462C608.803 37.882 609.379 38.092 610.135 38.092C610.891 38.092 611.461 37.882 611.845 37.462C612.241 37.042 612.499 36.49 612.619 35.806C612.739 35.122 612.799 34.276 612.799 33.268Z" fill="#19A526"/>
<path d="M518.072 51.636V52.524H515.792V60H514.7V52.524H512.408V51.636H518.072ZM522.284 60.108C521.668 60.108 521.108 59.968 520.604 59.688C520.108 59.408 519.716 59.012 519.428 58.5C519.148 57.98 519.008 57.38 519.008 56.7C519.008 56.028 519.152 55.436 519.44 54.924C519.736 54.404 520.136 54.008 520.64 53.736C521.144 53.456 521.708 53.316 522.332 53.316C522.956 53.316 523.52 53.456 524.024 53.736C524.528 54.008 524.924 54.4 525.212 54.912C525.508 55.424 525.656 56.02 525.656 56.7C525.656 57.38 525.504 57.98 525.2 58.5C524.904 59.012 524.5 59.408 523.988 59.688C523.476 59.968 522.908 60.108 522.284 60.108ZM522.284 59.148C522.676 59.148 523.044 59.056 523.388 58.872C523.732 58.688 524.008 58.412 524.216 58.044C524.432 57.676 524.54 57.228 524.54 56.7C524.54 56.172 524.436 55.724 524.228 55.356C524.02 54.988 523.748 54.716 523.412 54.54C523.076 54.356 522.712 54.264 522.32 54.264C521.92 54.264 521.552 54.356 521.216 54.54C520.888 54.716 520.624 54.988 520.424 55.356C520.224 55.724 520.124 56.172 520.124 56.7C520.124 57.236 520.22 57.688 520.412 58.056C520.612 58.424 520.876 58.7 521.204 58.884C521.532 59.06 521.892 59.148 522.284 59.148ZM528.424 54.324V58.2C528.424 58.52 528.492 58.748 528.628 58.884C528.764 59.012 529 59.076 529.336 59.076H530.14V60H529.156C528.548 60 528.092 59.86 527.788 59.58C527.484 59.3 527.332 58.84 527.332 58.2V54.324H526.48V53.424H527.332V51.768H528.424V53.424H530.14V54.324H528.424ZM531.055 56.688C531.055 56.016 531.191 55.428 531.463 54.924C531.735 54.412 532.107 54.016 532.579 53.736C533.059 53.456 533.591 53.316 534.175 53.316C534.751 53.316 535.251 53.44 535.675 53.688C536.099 53.936 536.415 54.248 536.623 54.624V53.424H537.727V60H536.623V58.776C536.407 59.16 536.083 59.48 535.651 59.736C535.227 59.984 534.731 60.108 534.163 60.108C533.579 60.108 533.051 59.964 532.579 59.676C532.107 59.388 531.735 58.984 531.463 58.464C531.191 57.944 531.055 57.352 531.055 56.688ZM536.623 56.7C536.623 56.204 536.523 55.772 536.323 55.404C536.123 55.036 535.851 54.756 535.507 54.564C535.171 54.364 534.799 54.264 534.391 54.264C533.983 54.264 533.611 54.36 533.275 54.552C532.939 54.744 532.671 55.024 532.471 55.392C532.271 55.76 532.171 56.192 532.171 56.688C532.171 57.192 532.271 57.632 532.471 58.008C532.671 58.376 532.939 58.66 533.275 58.86C533.611 59.052 533.983 59.148 534.391 59.148C534.799 59.148 535.171 59.052 535.507 58.86C535.851 58.66 536.123 58.376 536.323 58.008C536.523 57.632 536.623 57.196 536.623 56.7ZM540.664 51.12V60H539.572V51.12H540.664ZM546.817 51.636V60H545.725V51.636H546.817ZM551.882 53.304C552.682 53.304 553.33 53.548 553.826 54.036C554.322 54.516 554.57 55.212 554.57 56.124V60H553.49V56.28C553.49 55.624 553.326 55.124 552.998 54.78C552.67 54.428 552.222 54.252 551.654 54.252C551.078 54.252 550.618 54.432 550.274 54.792C549.938 55.152 549.77 55.676 549.77 56.364V60H548.678V53.424H549.77V54.36C549.986 54.024 550.278 53.764 550.646 53.58C551.022 53.396 551.434 53.304 551.882 53.304ZM558.682 60.108C558.178 60.108 557.726 60.024 557.326 59.856C556.926 59.68 556.61 59.44 556.378 59.136C556.146 58.824 556.018 58.468 555.994 58.068H557.122C557.154 58.396 557.306 58.664 557.578 58.872C557.858 59.08 558.222 59.184 558.67 59.184C559.086 59.184 559.414 59.092 559.654 58.908C559.894 58.724 560.014 58.492 560.014 58.212C560.014 57.924 559.886 57.712 559.63 57.576C559.374 57.432 558.978 57.292 558.442 57.156C557.954 57.028 557.554 56.9 557.242 56.772C556.938 56.636 556.674 56.44 556.45 56.184C556.234 55.92 556.126 55.576 556.126 55.152C556.126 54.816 556.226 54.508 556.426 54.228C556.626 53.948 556.91 53.728 557.278 53.568C557.646 53.4 558.066 53.316 558.538 53.316C559.266 53.316 559.854 53.5 560.302 53.868C560.75 54.236 560.99 54.74 561.022 55.38H559.93C559.906 55.036 559.766 54.76 559.51 54.552C559.262 54.344 558.926 54.24 558.502 54.24C558.11 54.24 557.798 54.324 557.566 54.492C557.334 54.66 557.218 54.88 557.218 55.152C557.218 55.368 557.286 55.548 557.422 55.692C557.566 55.828 557.742 55.94 557.95 56.028C558.166 56.108 558.462 56.2 558.838 56.304C559.31 56.432 559.694 56.56 559.99 56.688C560.286 56.808 560.538 56.992 560.746 57.24C560.962 57.488 561.074 57.812 561.082 58.212C561.082 58.572 560.982 58.896 560.782 59.184C560.582 59.472 560.298 59.7 559.93 59.868C559.57 60.028 559.154 60.108 558.682 60.108ZM568.455 53.424V60H567.363V59.028C567.155 59.364 566.863 59.628 566.487 59.82C566.119 60.004 565.711 60.096 565.263 60.096C564.751 60.096 564.291 59.992 563.883 59.784C563.475 59.568 563.151 59.248 562.911 58.824C562.679 58.4 562.563 57.884 562.563 57.276V53.424H563.643V57.132C563.643 57.78 563.807 58.28 564.135 58.632C564.463 58.976 564.911 59.148 565.479 59.148C566.063 59.148 566.523 58.968 566.859 58.608C567.195 58.248 567.363 57.724 567.363 57.036V53.424H568.455ZM571.391 54.492C571.583 54.116 571.855 53.824 572.207 53.616C572.567 53.408 573.003 53.304 573.515 53.304V54.432H573.227C572.003 54.432 571.391 55.096 571.391 56.424V60H570.299V53.424H571.391V54.492ZM574.368 56.688C574.368 56.016 574.504 55.428 574.776 54.924C575.048 54.412 575.42 54.016 575.892 53.736C576.372 53.456 576.904 53.316 577.488 53.316C578.064 53.316 578.564 53.44 578.988 53.688C579.412 53.936 579.728 54.248 579.936 54.624V53.424H581.04V60H579.936V58.776C579.72 59.16 579.396 59.48 578.964 59.736C578.54 59.984 578.044 60.108 577.476 60.108C576.892 60.108 576.364 59.964 575.892 59.676C575.42 59.388 575.048 58.984 574.776 58.464C574.504 57.944 574.368 57.352 574.368 56.688ZM579.936 56.7C579.936 56.204 579.836 55.772 579.636 55.404C579.436 55.036 579.164 54.756 578.82 54.564C578.484 54.364 578.112 54.264 577.704 54.264C577.296 54.264 576.924 54.36 576.588 54.552C576.252 54.744 575.984 55.024 575.784 55.392C575.584 55.76 575.484 56.192 575.484 56.688C575.484 57.192 575.584 57.632 575.784 58.008C575.984 58.376 576.252 58.66 576.588 58.86C576.924 59.052 577.296 59.148 577.704 59.148C578.112 59.148 578.484 59.052 578.82 58.86C579.164 58.66 579.436 58.376 579.636 58.008C579.836 57.632 579.936 57.196 579.936 56.7ZM586.089 53.304C586.889 53.304 587.537 53.548 588.033 54.036C588.529 54.516 588.777 55.212 588.777 56.124V60H587.697V56.28C587.697 55.624 587.533 55.124 587.205 54.78C586.877 54.428 586.429 54.252 585.861 54.252C585.285 54.252 584.825 54.432 584.481 54.792C584.145 55.152 583.977 55.676 583.977 56.364V60H582.885V53.424H583.977V54.36C584.193 54.024 584.485 53.764 584.853 53.58C585.229 53.396 585.641 53.304 586.089 53.304ZM590.153 56.7C590.153 56.02 590.289 55.428 590.561 54.924C590.833 54.412 591.209 54.016 591.689 53.736C592.177 53.456 592.733 53.316 593.357 53.316C594.165 53.316 594.829 53.512 595.349 53.904C595.877 54.296 596.225 54.84 596.393 55.536H595.217C595.105 55.136 594.885 54.82 594.557 54.588C594.237 54.356 593.837 54.24 593.357 54.24C592.733 54.24 592.229 54.456 591.845 54.888C591.461 55.312 591.269 55.916 591.269 56.7C591.269 57.492 591.461 58.104 591.845 58.536C592.229 58.968 592.733 59.184 593.357 59.184C593.837 59.184 594.237 59.072 594.557 58.848C594.877 58.624 595.097 58.304 595.217 57.888H596.393C596.217 58.56 595.865 59.1 595.337 59.508C594.809 59.908 594.149 60.108 593.357 60.108C592.733 60.108 592.177 59.968 591.689 59.688C591.209 59.408 590.833 59.012 590.561 58.5C590.289 57.988 590.153 57.388 590.153 56.7ZM603.85 56.46C603.85 56.668 603.838 56.888 603.814 57.12H598.558C598.598 57.768 598.818 58.276 599.218 58.644C599.626 59.004 600.118 59.184 600.694 59.184C601.166 59.184 601.558 59.076 601.87 58.86C602.19 58.636 602.414 58.34 602.542 57.972H603.718C603.542 58.604 603.19 59.12 602.662 59.52C602.134 59.912 601.478 60.108 600.694 60.108C600.07 60.108 599.51 59.968 599.014 59.688C598.526 59.408 598.142 59.012 597.862 58.5C597.582 57.98 597.442 57.38 597.442 56.7C597.442 56.02 597.578 55.424 597.85 54.912C598.122 54.4 598.502 54.008 598.99 53.736C599.486 53.456 600.054 53.316 600.694 53.316C601.318 53.316 601.87 53.452 602.35 53.724C602.83 53.996 603.198 54.372 603.454 54.852C603.718 55.324 603.85 55.86 603.85 56.46ZM602.722 56.232C602.722 55.816 602.63 55.46 602.446 55.164C602.262 54.86 602.01 54.632 601.69 54.48C601.378 54.32 601.03 54.24 600.646 54.24C600.094 54.24 599.622 54.416 599.23 54.768C598.846 55.12 598.626 55.608 598.57 56.232H602.722ZM607.619 60.108C607.115 60.108 606.663 60.024 606.263 59.856C605.863 59.68 605.547 59.44 605.315 59.136C605.083 58.824 604.955 58.468 604.931 58.068H606.059C606.091 58.396 606.243 58.664 606.515 58.872C606.795 59.08 607.159 59.184 607.607 59.184C608.023 59.184 608.351 59.092 608.591 58.908C608.831 58.724 608.951 58.492 608.951 58.212C608.951 57.924 608.823 57.712 608.567 57.576C608.311 57.432 607.915 57.292 607.379 57.156C606.891 57.028 606.491 56.9 606.179 56.772C605.875 56.636 605.611 56.44 605.387 56.184C605.171 55.92 605.063 55.576 605.063 55.152C605.063 54.816 605.163 54.508 605.363 54.228C605.563 53.948 605.847 53.728 606.215 53.568C606.583 53.4 607.003 53.316 607.475 53.316C608.203 53.316 608.791 53.5 609.239 53.868C609.687 54.236 609.927 54.74 609.959 55.38H608.867C608.843 55.036 608.703 54.76 608.447 54.552C608.199 54.344 607.863 54.24 607.439 54.24C607.047 54.24 606.735 54.324 606.503 54.492C606.271 54.66 606.155 54.88 606.155 55.152C606.155 55.368 606.223 55.548 606.359 55.692C606.503 55.828 606.679 55.94 606.887 56.028C607.103 56.108 607.399 56.2 607.775 56.304C608.247 56.432 608.631 56.56 608.927 56.688C609.223 56.808 609.475 56.992 609.683 57.24C609.899 57.488 610.011 57.812 610.019 58.212C610.019 58.572 609.919 58.896 609.719 59.184C609.519 59.472 609.235 59.7 608.867 59.868C608.507 60.028 608.091 60.108 607.619 60.108ZM614.352 56.7C614.352 56.02 614.488 55.428 614.76 54.924C615.032 54.412 615.408 54.016 615.888 53.736C616.376 53.456 616.932 53.316 617.556 53.316C618.364 53.316 619.028 53.512 619.548 53.904C620.076 54.296 620.424 54.84 620.592 55.536H619.416C619.304 55.136 619.084 54.82 618.756 54.588C618.436 54.356 618.036 54.24 617.556 54.24C616.932 54.24 616.428 54.456 616.044 54.888C615.66 55.312 615.468 55.916 615.468 56.7C615.468 57.492 615.66 58.104 616.044 58.536C616.428 58.968 616.932 59.184 617.556 59.184C618.036 59.184 618.436 59.072 618.756 58.848C619.076 58.624 619.296 58.304 619.416 57.888H620.592C620.416 58.56 620.064 59.1 619.536 59.508C619.008 59.908 618.348 60.108 617.556 60.108C616.932 60.108 616.376 59.968 615.888 59.688C615.408 59.408 615.032 59.012 614.76 58.5C614.488 57.988 614.352 57.388 614.352 56.7ZM624.917 60.108C624.301 60.108 623.741 59.968 623.237 59.688C622.741 59.408 622.349 59.012 622.061 58.5C621.781 57.98 621.641 57.38 621.641 56.7C621.641 56.028 621.785 55.436 622.073 54.924C622.369 54.404 622.769 54.008 623.273 53.736C623.777 53.456 624.341 53.316 624.965 53.316C625.589 53.316 626.153 53.456 626.657 53.736C627.161 54.008 627.557 54.4 627.845 54.912C628.141 55.424 628.289 56.02 628.289 56.7C628.289 57.38 628.137 57.98 627.833 58.5C627.537 59.012 627.133 59.408 626.621 59.688C626.109 59.968 625.541 60.108 624.917 60.108ZM624.917 59.148C625.309 59.148 625.677 59.056 626.021 58.872C626.365 58.688 626.641 58.412 626.849 58.044C627.065 57.676 627.173 57.228 627.173 56.7C627.173 56.172 627.069 55.724 626.861 55.356C626.653 54.988 626.381 54.716 626.045 54.54C625.709 54.356 625.345 54.264 624.953 54.264C624.553 54.264 624.185 54.356 623.849 54.54C623.521 54.716 623.257 54.988 623.057 55.356C622.857 55.724 622.757 56.172 622.757 56.7C622.757 57.236 622.853 57.688 623.045 58.056C623.245 58.424 623.509 58.7 623.837 58.884C624.165 59.06 624.525 59.148 624.917 59.148ZM632.053 60.108C631.549 60.108 631.097 60.024 630.697 59.856C630.297 59.68 629.981 59.44 629.749 59.136C629.517 58.824 629.389 58.468 629.365 58.068H630.493C630.525 58.396 630.677 58.664 630.949 58.872C631.229 59.08 631.593 59.184 632.041 59.184C632.457 59.184 632.785 59.092 633.025 58.908C633.265 58.724 633.385 58.492 633.385 58.212C633.385 57.924 633.257 57.712 633.001 57.576C632.745 57.432 632.349 57.292 631.813 57.156C631.325 57.028 630.925 56.9 630.613 56.772C630.309 56.636 630.045 56.44 629.821 56.184C629.605 55.92 629.497 55.576 629.497 55.152C629.497 54.816 629.597 54.508 629.797 54.228C629.997 53.948 630.281 53.728 630.649 53.568C631.017 53.4 631.437 53.316 631.909 53.316C632.637 53.316 633.225 53.5 633.673 53.868C634.121 54.236 634.361 54.74 634.393 55.38H633.301C633.277 55.036 633.137 54.76 632.881 54.552C632.633 54.344 632.297 54.24 631.873 54.24C631.481 54.24 631.169 54.324 630.937 54.492C630.705 54.66 630.589 54.88 630.589 55.152C630.589 55.368 630.657 55.548 630.793 55.692C630.937 55.828 631.113 55.94 631.321 56.028C631.537 56.108 631.833 56.2 632.209 56.304C632.681 56.432 633.065 56.56 633.361 56.688C633.657 56.808 633.909 56.992 634.117 57.24C634.333 57.488 634.445 57.812 634.453 58.212C634.453 58.572 634.353 58.896 634.153 59.184C633.953 59.472 633.669 59.7 633.301 59.868C632.941 60.028 632.525 60.108 632.053 60.108ZM637.326 54.324V58.2C637.326 58.52 637.394 58.748 637.53 58.884C637.666 59.012 637.902 59.076 638.238 59.076H639.042V60H638.058C637.45 60 636.994 59.86 636.69 59.58C636.386 59.3 636.234 58.84 636.234 58.2V54.324H635.382V53.424H636.234V51.768H637.326V53.424H639.042V54.324H637.326Z" fill="#646464"/>
<rect x="492" y="105" width="294" height="85" rx="10" fill="#FFF4E7"/>
<path d="M512 144.953V145.5H518.392V144.953C516.834 144.953 516.444 143.919 516.444 143.402V139.699H522.603V138.958H516.444V137.865H522.603V137.125H516.444V132.487H520.91C522.739 132.487 523.295 133.957 523.344 134.691H524V131.5H512.021V132.064C513.528 132.064 513.933 132.934 513.947 133.369V137.125H512.169V137.865H513.947V138.958H512.169V139.699H513.947V143.402C513.947 144.643 512.649 144.953 512 144.953Z" fill="#FF8500"/>
<path d="M538.396 133.462L533.392 145H531.322L536.38 133.678H529.72V131.932H538.396V133.462ZM548.612 133.642H542.582V137.224C542.834 136.888 543.206 136.606 543.698 136.378C544.202 136.15 544.736 136.036 545.3 136.036C546.308 136.036 547.124 136.252 547.748 136.684C548.384 137.116 548.834 137.662 549.098 138.322C549.374 138.982 549.512 139.678 549.512 140.41C549.512 141.298 549.338 142.09 548.99 142.786C548.654 143.47 548.144 144.01 547.46 144.406C546.788 144.802 545.96 145 544.976 145C543.668 145 542.618 144.676 541.826 144.028C541.034 143.38 540.56 142.522 540.404 141.454H542.402C542.534 142.018 542.828 142.468 543.284 142.804C543.74 143.128 544.31 143.29 544.994 143.29C545.846 143.29 546.482 143.032 546.902 142.516C547.334 142 547.55 141.316 547.55 140.464C547.55 139.6 547.334 138.94 546.902 138.484C546.47 138.016 545.834 137.782 544.994 137.782C544.406 137.782 543.908 137.932 543.5 138.232C543.104 138.52 542.816 138.916 542.636 139.42H540.692V131.842H548.612V133.642ZM554.168 142.534L551.99 147.502H550.658L551.936 142.534H554.168ZM555.691 138.268C555.691 136.192 556.039 134.572 556.735 133.408C557.443 132.232 558.655 131.644 560.371 131.644C562.087 131.644 563.293 132.232 563.989 133.408C564.697 134.572 565.051 136.192 565.051 138.268C565.051 140.368 564.697 142.012 563.989 143.2C563.293 144.376 562.087 144.964 560.371 144.964C558.655 144.964 557.443 144.376 556.735 143.2C556.039 142.012 555.691 140.368 555.691 138.268ZM563.035 138.268C563.035 137.296 562.969 136.474 562.837 135.802C562.717 135.13 562.465 134.584 562.081 134.164C561.697 133.732 561.127 133.516 560.371 133.516C559.615 133.516 559.045 133.732 558.661 134.164C558.277 134.584 558.019 135.13 557.887 135.802C557.767 136.474 557.707 137.296 557.707 138.268C557.707 139.276 557.767 140.122 557.887 140.806C558.007 141.49 558.259 142.042 558.643 142.462C559.039 142.882 559.615 143.092 560.371 143.092C561.127 143.092 561.697 142.882 562.081 142.462C562.477 142.042 562.735 141.49 562.855 140.806C562.975 140.122 563.035 139.276 563.035 138.268ZM567.223 138.268C567.223 136.192 567.571 134.572 568.267 133.408C568.975 132.232 570.187 131.644 571.903 131.644C573.619 131.644 574.825 132.232 575.521 133.408C576.229 134.572 576.583 136.192 576.583 138.268C576.583 140.368 576.229 142.012 575.521 143.2C574.825 144.376 573.619 144.964 571.903 144.964C570.187 144.964 568.975 144.376 568.267 143.2C567.571 142.012 567.223 140.368 567.223 138.268ZM574.567 138.268C574.567 137.296 574.501 136.474 574.369 135.802C574.249 135.13 573.997 134.584 573.613 134.164C573.229 133.732 572.659 133.516 571.903 133.516C571.147 133.516 570.577 133.732 570.193 134.164C569.809 134.584 569.551 135.13 569.419 135.802C569.299 136.474 569.239 137.296 569.239 138.268C569.239 139.276 569.299 140.122 569.419 140.806C569.539 141.49 569.791 142.042 570.175 142.462C570.571 142.882 571.147 143.092 571.903 143.092C572.659 143.092 573.229 142.882 573.613 142.462C574.009 142.042 574.267 141.49 574.387 140.806C574.507 140.122 574.567 139.276 574.567 138.268ZM578.754 138.268C578.754 136.192 579.102 134.572 579.798 133.408C580.506 132.232 581.718 131.644 583.434 131.644C585.15 131.644 586.356 132.232 587.052 133.408C587.76 134.572 588.114 136.192 588.114 138.268C588.114 140.368 587.76 142.012 587.052 143.2C586.356 144.376 585.15 144.964 583.434 144.964C581.718 144.964 580.506 144.376 579.798 143.2C579.102 142.012 578.754 140.368 578.754 138.268ZM586.098 138.268C586.098 137.296 586.032 136.474 585.9 135.802C585.78 135.13 585.528 134.584 585.144 134.164C584.76 133.732 584.19 133.516 583.434 133.516C582.678 133.516 582.108 133.732 581.724 134.164C581.34 134.584 581.082 135.13 580.95 135.802C580.83 136.474 580.77 137.296 580.77 138.268C580.77 139.276 580.83 140.122 580.95 140.806C581.07 141.49 581.322 142.042 581.706 142.462C582.102 142.882 582.678 143.092 583.434 143.092C584.19 143.092 584.76 142.882 585.144 142.462C585.54 142.042 585.798 141.49 585.918 140.806C586.038 140.122 586.098 139.276 586.098 138.268Z" fill="#FF8500"/>
<path d="M513.992 156.636V161.928C513.992 162.672 514.172 163.224 514.532 163.584C514.9 163.944 515.408 164.124 516.056 164.124C516.696 164.124 517.196 163.944 517.556 163.584C517.924 163.224 518.108 162.672 518.108 161.928V156.636H519.2V161.916C519.2 162.612 519.06 163.2 518.78 163.68C518.5 164.152 518.12 164.504 517.64 164.736C517.168 164.968 516.636 165.084 516.044 165.084C515.452 165.084 514.916 164.968 514.436 164.736C513.964 164.504 513.588 164.152 513.308 163.68C513.036 163.2 512.9 162.612 512.9 161.916V156.636H513.992ZM522.114 159.636C522.33 159.26 522.65 158.948 523.074 158.7C523.506 158.444 524.006 158.316 524.574 158.316C525.158 158.316 525.686 158.456 526.158 158.736C526.638 159.016 527.014 159.412 527.286 159.924C527.558 160.428 527.694 161.016 527.694 161.688C527.694 162.352 527.558 162.944 527.286 163.464C527.014 163.984 526.638 164.388 526.158 164.676C525.686 164.964 525.158 165.108 524.574 165.108C524.014 165.108 523.518 164.984 523.086 164.736C522.662 164.48 522.338 164.164 522.114 163.788V168.12H521.022V158.424H522.114V159.636ZM526.578 161.688C526.578 161.192 526.478 160.76 526.278 160.392C526.078 160.024 525.806 159.744 525.462 159.552C525.126 159.36 524.754 159.264 524.346 159.264C523.946 159.264 523.574 159.364 523.23 159.564C522.894 159.756 522.622 160.04 522.414 160.416C522.214 160.784 522.114 161.212 522.114 161.7C522.114 162.196 522.214 162.632 522.414 163.008C522.622 163.376 522.894 163.66 523.23 163.86C523.574 164.052 523.946 164.148 524.346 164.148C524.754 164.148 525.126 164.052 525.462 163.86C525.806 163.66 526.078 163.376 526.278 163.008C526.478 162.632 526.578 162.192 526.578 161.688ZM528.723 161.7C528.723 161.02 528.859 160.428 529.131 159.924C529.403 159.412 529.779 159.016 530.259 158.736C530.747 158.456 531.303 158.316 531.927 158.316C532.735 158.316 533.399 158.512 533.919 158.904C534.447 159.296 534.795 159.84 534.963 160.536H533.787C533.675 160.136 533.455 159.82 533.127 159.588C532.807 159.356 532.407 159.24 531.927 159.24C531.303 159.24 530.799 159.456 530.415 159.888C530.031 160.312 529.839 160.916 529.839 161.7C529.839 162.492 530.031 163.104 530.415 163.536C530.799 163.968 531.303 164.184 531.927 164.184C532.407 164.184 532.807 164.072 533.127 163.848C533.447 163.624 533.667 163.304 533.787 162.888H534.963C534.787 163.56 534.435 164.1 533.907 164.508C533.379 164.908 532.719 165.108 531.927 165.108C531.303 165.108 530.747 164.968 530.259 164.688C529.779 164.408 529.403 164.012 529.131 163.5C528.859 162.988 528.723 162.388 528.723 161.7ZM539.288 165.108C538.672 165.108 538.112 164.968 537.608 164.688C537.112 164.408 536.72 164.012 536.432 163.5C536.152 162.98 536.012 162.38 536.012 161.7C536.012 161.028 536.156 160.436 536.444 159.924C536.74 159.404 537.14 159.008 537.644 158.736C538.148 158.456 538.712 158.316 539.336 158.316C539.96 158.316 540.524 158.456 541.028 158.736C541.532 159.008 541.928 159.4 542.216 159.912C542.512 160.424 542.66 161.02 542.66 161.7C542.66 162.38 542.508 162.98 542.204 163.5C541.908 164.012 541.504 164.408 540.992 164.688C540.48 164.968 539.912 165.108 539.288 165.108ZM539.288 164.148C539.68 164.148 540.048 164.056 540.392 163.872C540.736 163.688 541.012 163.412 541.22 163.044C541.436 162.676 541.544 162.228 541.544 161.7C541.544 161.172 541.44 160.724 541.232 160.356C541.024 159.988 540.752 159.716 540.416 159.54C540.08 159.356 539.716 159.264 539.324 159.264C538.924 159.264 538.556 159.356 538.22 159.54C537.892 159.716 537.628 159.988 537.428 160.356C537.228 160.724 537.128 161.172 537.128 161.7C537.128 162.236 537.224 162.688 537.416 163.056C537.616 163.424 537.88 163.7 538.208 163.884C538.536 164.06 538.896 164.148 539.288 164.148ZM552.004 158.304C552.516 158.304 552.972 158.412 553.372 158.628C553.772 158.836 554.088 159.152 554.32 159.576C554.552 160 554.668 160.516 554.668 161.124V165H553.588V161.28C553.588 160.624 553.424 160.124 553.096 159.78C552.776 159.428 552.34 159.252 551.788 159.252C551.22 159.252 550.768 159.436 550.432 159.804C550.096 160.164 549.928 160.688 549.928 161.376V165H548.848V161.28C548.848 160.624 548.684 160.124 548.356 159.78C548.036 159.428 547.6 159.252 547.048 159.252C546.48 159.252 546.028 159.436 545.692 159.804C545.356 160.164 545.188 160.688 545.188 161.376V165H544.096V158.424H545.188V159.372C545.404 159.028 545.692 158.764 546.052 158.58C546.42 158.396 546.824 158.304 547.264 158.304C547.816 158.304 548.304 158.428 548.728 158.676C549.152 158.924 549.468 159.288 549.676 159.768C549.86 159.304 550.164 158.944 550.588 158.688C551.012 158.432 551.484 158.304 552.004 158.304ZM557.023 157.356C556.815 157.356 556.639 157.284 556.495 157.14C556.351 156.996 556.279 156.82 556.279 156.612C556.279 156.404 556.351 156.228 556.495 156.084C556.639 155.94 556.815 155.868 557.023 155.868C557.223 155.868 557.391 155.94 557.527 156.084C557.671 156.228 557.743 156.404 557.743 156.612C557.743 156.82 557.671 156.996 557.527 157.14C557.391 157.284 557.223 157.356 557.023 157.356ZM557.551 158.424V165H556.459V158.424H557.551ZM562.616 158.304C563.416 158.304 564.064 158.548 564.56 159.036C565.056 159.516 565.304 160.212 565.304 161.124V165H564.224V161.28C564.224 160.624 564.06 160.124 563.732 159.78C563.404 159.428 562.956 159.252 562.388 159.252C561.812 159.252 561.352 159.432 561.008 159.792C560.672 160.152 560.504 160.676 560.504 161.364V165H559.412V158.424H560.504V159.36C560.72 159.024 561.012 158.764 561.38 158.58C561.756 158.396 562.168 158.304 562.616 158.304ZM569.8 158.316C570.368 158.316 570.864 158.44 571.288 158.688C571.72 158.936 572.04 159.248 572.248 159.624V158.424H573.352V165.144C573.352 165.744 573.224 166.276 572.968 166.74C572.712 167.212 572.344 167.58 571.864 167.844C571.392 168.108 570.84 168.24 570.208 168.24C569.344 168.24 568.624 168.036 568.048 167.628C567.472 167.22 567.132 166.664 567.028 165.96H568.108C568.228 166.36 568.476 166.68 568.852 166.92C569.228 167.168 569.68 167.292 570.208 167.292C570.808 167.292 571.296 167.104 571.672 166.728C572.056 166.352 572.248 165.824 572.248 165.144V163.764C572.032 164.148 571.712 164.468 571.288 164.724C570.864 164.98 570.368 165.108 569.8 165.108C569.216 165.108 568.684 164.964 568.204 164.676C567.732 164.388 567.36 163.984 567.088 163.464C566.816 162.944 566.68 162.352 566.68 161.688C566.68 161.016 566.816 160.428 567.088 159.924C567.36 159.412 567.732 159.016 568.204 158.736C568.684 158.456 569.216 158.316 569.8 158.316ZM572.248 161.7C572.248 161.204 572.148 160.772 571.948 160.404C571.748 160.036 571.476 159.756 571.132 159.564C570.796 159.364 570.424 159.264 570.016 159.264C569.608 159.264 569.236 159.36 568.9 159.552C568.564 159.744 568.296 160.024 568.096 160.392C567.896 160.76 567.796 161.192 567.796 161.688C567.796 162.192 567.896 162.632 568.096 163.008C568.296 163.376 568.564 163.66 568.9 163.86C569.236 164.052 569.608 164.148 570.016 164.148C570.424 164.148 570.796 164.052 571.132 163.86C571.476 163.66 571.748 163.376 571.948 163.008C572.148 162.632 572.248 162.196 572.248 161.7ZM579.489 156.636V165H578.397V156.636H579.489ZM584.554 158.304C585.354 158.304 586.002 158.548 586.498 159.036C586.994 159.516 587.242 160.212 587.242 161.124V165H586.162V161.28C586.162 160.624 585.998 160.124 585.67 159.78C585.342 159.428 584.894 159.252 584.326 159.252C583.75 159.252 583.29 159.432 582.946 159.792C582.61 160.152 582.442 160.676 582.442 161.364V165H581.35V158.424H582.442V159.36C582.658 159.024 582.95 158.764 583.318 158.58C583.694 158.396 584.106 158.304 584.554 158.304ZM591.354 165.108C590.85 165.108 590.398 165.024 589.998 164.856C589.598 164.68 589.282 164.44 589.05 164.136C588.818 163.824 588.69 163.468 588.666 163.068H589.794C589.826 163.396 589.978 163.664 590.25 163.872C590.53 164.08 590.894 164.184 591.342 164.184C591.758 164.184 592.086 164.092 592.326 163.908C592.566 163.724 592.686 163.492 592.686 163.212C592.686 162.924 592.558 162.712 592.302 162.576C592.046 162.432 591.65 162.292 591.114 162.156C590.626 162.028 590.226 161.9 589.914 161.772C589.61 161.636 589.346 161.44 589.122 161.184C588.906 160.92 588.798 160.576 588.798 160.152C588.798 159.816 588.898 159.508 589.098 159.228C589.298 158.948 589.582 158.728 589.95 158.568C590.318 158.4 590.738 158.316 591.21 158.316C591.938 158.316 592.526 158.5 592.974 158.868C593.422 159.236 593.662 159.74 593.694 160.38H592.602C592.578 160.036 592.438 159.76 592.182 159.552C591.934 159.344 591.598 159.24 591.174 159.24C590.782 159.24 590.47 159.324 590.238 159.492C590.006 159.66 589.89 159.88 589.89 160.152C589.89 160.368 589.958 160.548 590.094 160.692C590.238 160.828 590.414 160.94 590.622 161.028C590.838 161.108 591.134 161.2 591.51 161.304C591.982 161.432 592.366 161.56 592.662 161.688C592.958 161.808 593.21 161.992 593.418 162.24C593.634 162.488 593.746 162.812 593.754 163.212C593.754 163.572 593.654 163.896 593.454 164.184C593.254 164.472 592.97 164.7 592.602 164.868C592.242 165.028 591.826 165.108 591.354 165.108ZM601.127 158.424V165H600.035V164.028C599.827 164.364 599.535 164.628 599.159 164.82C598.791 165.004 598.383 165.096 597.935 165.096C597.423 165.096 596.963 164.992 596.555 164.784C596.147 164.568 595.823 164.248 595.583 163.824C595.351 163.4 595.235 162.884 595.235 162.276V158.424H596.315V162.132C596.315 162.78 596.479 163.28 596.807 163.632C597.135 163.976 597.583 164.148 598.151 164.148C598.735 164.148 599.195 163.968 599.531 163.608C599.867 163.248 600.035 162.724 600.035 162.036V158.424H601.127ZM604.063 159.492C604.255 159.116 604.527 158.824 604.879 158.616C605.239 158.408 605.675 158.304 606.187 158.304V159.432H605.899C604.675 159.432 604.063 160.096 604.063 161.424V165H602.971V158.424H604.063V159.492ZM607.039 161.688C607.039 161.016 607.175 160.428 607.447 159.924C607.719 159.412 608.091 159.016 608.563 158.736C609.043 158.456 609.575 158.316 610.159 158.316C610.735 158.316 611.235 158.44 611.659 158.688C612.083 158.936 612.399 159.248 612.607 159.624V158.424H613.711V165H612.607V163.776C612.391 164.16 612.067 164.48 611.635 164.736C611.211 164.984 610.715 165.108 610.147 165.108C609.563 165.108 609.035 164.964 608.563 164.676C608.091 164.388 607.719 163.984 607.447 163.464C607.175 162.944 607.039 162.352 607.039 161.688ZM612.607 161.7C612.607 161.204 612.507 160.772 612.307 160.404C612.107 160.036 611.835 159.756 611.491 159.564C611.155 159.364 610.783 159.264 610.375 159.264C609.967 159.264 609.595 159.36 609.259 159.552C608.923 159.744 608.655 160.024 608.455 160.392C608.255 160.76 608.155 161.192 608.155 161.688C608.155 162.192 608.255 162.632 608.455 163.008C608.655 163.376 608.923 163.66 609.259 163.86C609.595 164.052 609.967 164.148 610.375 164.148C610.783 164.148 611.155 164.052 611.491 163.86C611.835 163.66 612.107 163.376 612.307 163.008C612.507 162.632 612.607 162.196 612.607 161.7ZM618.761 158.304C619.561 158.304 620.209 158.548 620.705 159.036C621.201 159.516 621.449 160.212 621.449 161.124V165H620.369V161.28C620.369 160.624 620.205 160.124 619.877 159.78C619.549 159.428 619.101 159.252 618.533 159.252C617.957 159.252 617.497 159.432 617.153 159.792C616.817 160.152 616.649 160.676 616.649 161.364V165H615.557V158.424H616.649V159.36C616.865 159.024 617.157 158.764 617.525 158.58C617.901 158.396 618.313 158.304 618.761 158.304ZM622.825 161.7C622.825 161.02 622.961 160.428 623.233 159.924C623.505 159.412 623.881 159.016 624.361 158.736C624.849 158.456 625.405 158.316 626.029 158.316C626.837 158.316 627.501 158.512 628.021 158.904C628.549 159.296 628.897 159.84 629.065 160.536H627.889C627.777 160.136 627.557 159.82 627.229 159.588C626.909 159.356 626.509 159.24 626.029 159.24C625.405 159.24 624.901 159.456 624.517 159.888C624.133 160.312 623.941 160.916 623.941 161.7C623.941 162.492 624.133 163.104 624.517 163.536C624.901 163.968 625.405 164.184 626.029 164.184C626.509 164.184 626.909 164.072 627.229 163.848C627.549 163.624 627.769 163.304 627.889 162.888H629.065C628.889 163.56 628.537 164.1 628.009 164.508C627.481 164.908 626.821 165.108 626.029 165.108C625.405 165.108 624.849 164.968 624.361 164.688C623.881 164.408 623.505 164.012 623.233 163.5C622.961 162.988 622.825 162.388 622.825 161.7ZM636.522 161.46C636.522 161.668 636.51 161.888 636.486 162.12H631.23C631.27 162.768 631.49 163.276 631.89 163.644C632.298 164.004 632.79 164.184 633.366 164.184C633.838 164.184 634.23 164.076 634.542 163.86C634.862 163.636 635.086 163.34 635.214 162.972H636.39C636.214 163.604 635.862 164.12 635.334 164.52C634.806 164.912 634.15 165.108 633.366 165.108C632.742 165.108 632.182 164.968 631.686 164.688C631.198 164.408 630.814 164.012 630.534 163.5C630.254 162.98 630.114 162.38 630.114 161.7C630.114 161.02 630.25 160.424 630.522 159.912C630.794 159.4 631.174 159.008 631.662 158.736C632.158 158.456 632.726 158.316 633.366 158.316C633.99 158.316 634.542 158.452 635.022 158.724C635.502 158.996 635.87 159.372 636.126 159.852C636.39 160.324 636.522 160.86 636.522 161.46ZM635.394 161.232C635.394 160.816 635.302 160.46 635.118 160.164C634.934 159.86 634.682 159.632 634.362 159.48C634.05 159.32 633.702 159.24 633.318 159.24C632.766 159.24 632.294 159.416 631.902 159.768C631.518 160.12 631.298 160.608 631.242 161.232H635.394ZM640.291 165.108C639.787 165.108 639.335 165.024 638.935 164.856C638.535 164.68 638.219 164.44 637.987 164.136C637.755 163.824 637.627 163.468 637.603 163.068H638.731C638.763 163.396 638.915 163.664 639.187 163.872C639.467 164.08 639.831 164.184 640.279 164.184C640.695 164.184 641.023 164.092 641.263 163.908C641.503 163.724 641.623 163.492 641.623 163.212C641.623 162.924 641.495 162.712 641.239 162.576C640.983 162.432 640.587 162.292 640.051 162.156C639.563 162.028 639.163 161.9 638.851 161.772C638.547 161.636 638.283 161.44 638.059 161.184C637.843 160.92 637.735 160.576 637.735 160.152C637.735 159.816 637.835 159.508 638.035 159.228C638.235 158.948 638.519 158.728 638.887 158.568C639.255 158.4 639.675 158.316 640.147 158.316C640.875 158.316 641.463 158.5 641.911 158.868C642.359 159.236 642.599 159.74 642.631 160.38H641.539C641.515 160.036 641.375 159.76 641.119 159.552C640.871 159.344 640.535 159.24 640.111 159.24C639.719 159.24 639.407 159.324 639.175 159.492C638.943 159.66 638.827 159.88 638.827 160.152C638.827 160.368 638.895 160.548 639.031 160.692C639.175 160.828 639.351 160.94 639.559 161.028C639.775 161.108 640.071 161.2 640.447 161.304C640.919 161.432 641.303 161.56 641.599 161.688C641.895 161.808 642.147 161.992 642.355 162.24C642.571 162.488 642.683 162.812 642.691 163.212C642.691 163.572 642.591 163.896 642.391 164.184C642.191 164.472 641.907 164.7 641.539 164.868C641.179 165.028 640.763 165.108 640.291 165.108ZM647.024 161.7C647.024 161.02 647.16 160.428 647.432 159.924C647.704 159.412 648.08 159.016 648.56 158.736C649.048 158.456 649.604 158.316 650.228 158.316C651.036 158.316 651.7 158.512 652.22 158.904C652.748 159.296 653.096 159.84 653.264 160.536H652.088C651.976 160.136 651.756 159.82 651.428 159.588C651.108 159.356 650.708 159.24 650.228 159.24C649.604 159.24 649.1 159.456 648.716 159.888C648.332 160.312 648.14 160.916 648.14 161.7C648.14 162.492 648.332 163.104 648.716 163.536C649.1 163.968 649.604 164.184 650.228 164.184C650.708 164.184 651.108 164.072 651.428 163.848C651.748 163.624 651.968 163.304 652.088 162.888H653.264C653.088 163.56 652.736 164.1 652.208 164.508C651.68 164.908 651.02 165.108 650.228 165.108C649.604 165.108 649.048 164.968 648.56 164.688C648.08 164.408 647.704 164.012 647.432 163.5C647.16 162.988 647.024 162.388 647.024 161.7ZM657.589 165.108C656.973 165.108 656.413 164.968 655.909 164.688C655.413 164.408 655.021 164.012 654.733 163.5C654.453 162.98 654.313 162.38 654.313 161.7C654.313 161.028 654.457 160.436 654.745 159.924C655.041 159.404 655.441 159.008 655.945 158.736C656.449 158.456 657.013 158.316 657.637 158.316C658.261 158.316 658.825 158.456 659.329 158.736C659.833 159.008 660.229 159.4 660.517 159.912C660.813 160.424 660.961 161.02 660.961 161.7C660.961 162.38 660.809 162.98 660.505 163.5C660.209 164.012 659.805 164.408 659.293 164.688C658.781 164.968 658.213 165.108 657.589 165.108ZM657.589 164.148C657.981 164.148 658.349 164.056 658.693 163.872C659.037 163.688 659.313 163.412 659.521 163.044C659.737 162.676 659.845 162.228 659.845 161.7C659.845 161.172 659.741 160.724 659.533 160.356C659.325 159.988 659.053 159.716 658.717 159.54C658.381 159.356 658.017 159.264 657.625 159.264C657.225 159.264 656.857 159.356 656.521 159.54C656.193 159.716 655.929 159.988 655.729 160.356C655.529 160.724 655.429 161.172 655.429 161.7C655.429 162.236 655.525 162.688 655.717 163.056C655.917 163.424 656.181 163.7 656.509 163.884C656.837 164.06 657.197 164.148 657.589 164.148ZM664.725 165.108C664.221 165.108 663.769 165.024 663.369 164.856C662.969 164.68 662.653 164.44 662.421 164.136C662.189 163.824 662.061 163.468 662.037 163.068H663.165C663.197 163.396 663.349 163.664 663.621 163.872C663.901 164.08 664.265 164.184 664.713 164.184C665.129 164.184 665.457 164.092 665.697 163.908C665.937 163.724 666.057 163.492 666.057 163.212C666.057 162.924 665.929 162.712 665.673 162.576C665.417 162.432 665.021 162.292 664.485 162.156C663.997 162.028 663.597 161.9 663.285 161.772C662.981 161.636 662.717 161.44 662.493 161.184C662.277 160.92 662.169 160.576 662.169 160.152C662.169 159.816 662.269 159.508 662.469 159.228C662.669 158.948 662.953 158.728 663.321 158.568C663.689 158.4 664.109 158.316 664.581 158.316C665.309 158.316 665.897 158.5 666.345 158.868C666.793 159.236 667.033 159.74 667.065 160.38H665.973C665.949 160.036 665.809 159.76 665.553 159.552C665.305 159.344 664.969 159.24 664.545 159.24C664.153 159.24 663.841 159.324 663.609 159.492C663.377 159.66 663.261 159.88 663.261 160.152C663.261 160.368 663.329 160.548 663.465 160.692C663.609 160.828 663.785 160.94 663.993 161.028C664.209 161.108 664.505 161.2 664.881 161.304C665.353 161.432 665.737 161.56 666.033 161.688C666.329 161.808 666.581 161.992 666.789 162.24C667.005 162.488 667.117 162.812 667.125 163.212C667.125 163.572 667.025 163.896 666.825 164.184C666.625 164.472 666.341 164.7 665.973 164.868C665.613 165.028 665.197 165.108 664.725 165.108ZM669.998 159.324V163.2C669.998 163.52 670.066 163.748 670.202 163.884C670.338 164.012 670.574 164.076 670.91 164.076H671.714V165H670.73C670.122 165 669.666 164.86 669.362 164.58C669.058 164.3 668.906 163.84 668.906 163.2V159.324H668.054V158.424H668.906V156.768H669.998V158.424H671.714V159.324H669.998Z" fill="#646464"/>
</svg>
