<svg width="786" height="269" viewBox="0 0 786 269" fill="none" xmlns="http://www.w3.org/2000/svg">
<path d="M0 0H786V259C786 264.523 781.523 269 776 269H10C4.47717 269 0 264.523 0 259V0Z" fill="white"/>
<path d="M27.4064 7.628H22.8434V10.592C23.0428 10.3147 23.3374 10.0893 23.7274 9.916C24.1174 9.734 24.5378 9.643 24.9884 9.643C25.7078 9.643 26.2928 9.79467 26.7434 10.098C27.1941 10.3927 27.5148 10.7783 27.7054 11.255C27.9048 11.723 28.0044 12.2213 28.0044 12.75C28.0044 13.374 27.8874 13.933 27.6534 14.427C27.4194 14.921 27.0598 15.311 26.5744 15.597C26.0978 15.883 25.5041 16.026 24.7934 16.026C23.8834 16.026 23.1468 15.792 22.5834 15.324C22.0201 14.856 21.6778 14.232 21.5564 13.452H22.7134C22.8261 13.946 23.0644 14.3317 23.4284 14.609C23.7924 14.8863 24.2518 15.025 24.8064 15.025C25.4911 15.025 26.0068 14.8213 26.3534 14.414C26.7001 13.998 26.8734 13.452 26.8734 12.776C26.8734 12.1 26.7001 11.58 26.3534 11.216C26.0068 10.8433 25.4954 10.657 24.8194 10.657C24.3601 10.657 23.9571 10.7697 23.6104 10.995C23.2724 11.2117 23.0254 11.5107 22.8694 11.892H21.7514V6.588H27.4064V7.628ZM29.5765 11.203C29.5765 9.71233 29.8192 8.551 30.3045 7.719C30.7898 6.87833 31.6392 6.458 32.8525 6.458C34.0572 6.458 34.9022 6.87833 35.3875 7.719C35.8728 8.551 36.1155 9.71233 36.1155 11.203C36.1155 12.7197 35.8728 13.8983 35.3875 14.739C34.9022 15.5797 34.0572 16 32.8525 16C31.6392 16 30.7898 15.5797 30.3045 14.739C29.8192 13.8983 29.5765 12.7197 29.5765 11.203ZM34.9455 11.203C34.9455 10.449 34.8935 9.812 34.7895 9.292C34.6942 8.76333 34.4905 8.33867 34.1785 8.018C33.8752 7.69733 33.4332 7.537 32.8525 7.537C32.2632 7.537 31.8125 7.69733 31.5005 8.018C31.1972 8.33867 30.9935 8.76333 30.8895 9.292C30.7942 9.812 30.7465 10.449 30.7465 11.203C30.7465 11.983 30.7942 12.6373 30.8895 13.166C30.9935 13.6947 31.1972 14.1193 31.5005 14.44C31.8125 14.7607 32.2632 14.921 32.8525 14.921C33.4332 14.921 33.8752 14.7607 34.1785 14.44C34.4905 14.1193 34.6942 13.6947 34.7895 13.166C34.8935 12.6373 34.9455 11.983 34.9455 11.203ZM39.1566 14.362L37.7006 17.859H36.9076L37.8566 14.362H39.1566ZM40.3167 11.203C40.3167 9.71233 40.5594 8.551 41.0447 7.719C41.5301 6.87833 42.3794 6.458 43.5927 6.458C44.7974 6.458 45.6424 6.87833 46.1277 7.719C46.6131 8.551 46.8557 9.71233 46.8557 11.203C46.8557 12.7197 46.6131 13.8983 46.1277 14.739C45.6424 15.5797 44.7974 16 43.5927 16C42.3794 16 41.5301 15.5797 41.0447 14.739C40.5594 13.8983 40.3167 12.7197 40.3167 11.203ZM45.6857 11.203C45.6857 10.449 45.6337 9.812 45.5297 9.292C45.4344 8.76333 45.2307 8.33867 44.9187 8.018C44.6154 7.69733 44.1734 7.537 43.5927 7.537C43.0034 7.537 42.5527 7.69733 42.2407 8.018C41.9374 8.33867 41.7337 8.76333 41.6297 9.292C41.5344 9.812 41.4867 10.449 41.4867 11.203C41.4867 11.983 41.5344 12.6373 41.6297 13.166C41.7337 13.6947 41.9374 14.1193 42.2407 14.44C42.5527 14.7607 43.0034 14.921 43.5927 14.921C44.1734 14.921 44.6154 14.7607 44.9187 14.44C45.2307 14.1193 45.4344 13.6947 45.5297 13.166C45.6337 12.6373 45.6857 11.983 45.6857 11.203ZM48.4798 11.203C48.4798 9.71233 48.7225 8.551 49.2078 7.719C49.6932 6.87833 50.5425 6.458 51.7558 6.458C52.9605 6.458 53.8055 6.87833 54.2908 7.719C54.7762 8.551 55.0188 9.71233 55.0188 11.203C55.0188 12.7197 54.7762 13.8983 54.2908 14.739C53.8055 15.5797 52.9605 16 51.7558 16C50.5425 16 49.6932 15.5797 49.2078 14.739C48.7225 13.8983 48.4798 12.7197 48.4798 11.203ZM53.8488 11.203C53.8488 10.449 53.7968 9.812 53.6928 9.292C53.5975 8.76333 53.3938 8.33867 53.0818 8.018C52.7785 7.69733 52.3365 7.537 51.7558 7.537C51.1665 7.537 50.7158 7.69733 50.4038 8.018C50.1005 8.33867 49.8968 8.76333 49.7928 9.292C49.6975 9.812 49.6498 10.449 49.6498 11.203C49.6498 11.983 49.6975 12.6373 49.7928 13.166C49.8968 13.6947 50.1005 14.1193 50.4038 14.44C50.7158 14.7607 51.1665 14.921 51.7558 14.921C52.3365 14.921 52.7785 14.7607 53.0818 14.44C53.3938 14.1193 53.5975 13.6947 53.6928 13.166C53.7968 12.6373 53.8488 11.983 53.8488 11.203ZM56.6429 11.203C56.6429 9.71233 56.8856 8.551 57.3709 7.719C57.8562 6.87833 58.7056 6.458 59.9189 6.458C61.1236 6.458 61.9686 6.87833 62.4539 7.719C62.9392 8.551 63.1819 9.71233 63.1819 11.203C63.1819 12.7197 62.9392 13.8983 62.4539 14.739C61.9686 15.5797 61.1236 16 59.9189 16C58.7056 16 57.8562 15.5797 57.3709 14.739C56.8856 13.8983 56.6429 12.7197 56.6429 11.203ZM62.0119 11.203C62.0119 10.449 61.9599 9.812 61.8559 9.292C61.7606 8.76333 61.5569 8.33867 61.2449 8.018C60.9416 7.69733 60.4996 7.537 59.9189 7.537C59.3296 7.537 58.8789 7.69733 58.5669 8.018C58.2636 8.33867 58.0599 8.76333 57.9559 9.292C57.8606 9.812 57.8129 10.449 57.8129 11.203C57.8129 11.983 57.8606 12.6373 57.9559 13.166C58.0599 13.6947 58.2636 14.1193 58.5669 14.44C58.8789 14.7607 59.3296 14.921 59.9189 14.921C60.4996 14.921 60.9416 14.7607 61.2449 14.44C61.5569 14.1193 61.7606 13.6947 61.8559 13.166C61.9599 12.6373 62.0119 11.983 62.0119 11.203Z" fill="#BABABA"/>
<path d="M21.1147 46.907V46.01L25.6777 39.692H27.0947V45.88H28.3947V46.907H27.0947V49H25.9247V46.907H21.1147ZM25.9767 40.927L22.4797 45.88H25.9767V40.927ZM29.5765 44.203C29.5765 42.7123 29.8192 41.551 30.3045 40.719C30.7898 39.8783 31.6392 39.458 32.8525 39.458C34.0572 39.458 34.9022 39.8783 35.3875 40.719C35.8728 41.551 36.1155 42.7123 36.1155 44.203C36.1155 45.7197 35.8728 46.8983 35.3875 47.739C34.9022 48.5797 34.0572 49 32.8525 49C31.6392 49 30.7898 48.5797 30.3045 47.739C29.8192 46.8983 29.5765 45.7197 29.5765 44.203ZM34.9455 44.203C34.9455 43.449 34.8935 42.812 34.7895 42.292C34.6942 41.7633 34.4905 41.3387 34.1785 41.018C33.8752 40.6973 33.4332 40.537 32.8525 40.537C32.2632 40.537 31.8125 40.6973 31.5005 41.018C31.1972 41.3387 30.9935 41.7633 30.8895 42.292C30.7942 42.812 30.7465 43.449 30.7465 44.203C30.7465 44.983 30.7942 45.6373 30.8895 46.166C30.9935 46.6947 31.1972 47.1193 31.5005 47.44C31.8125 47.7607 32.2632 47.921 32.8525 47.921C33.4332 47.921 33.8752 47.7607 34.1785 47.44C34.4905 47.1193 34.6942 46.6947 34.7895 46.166C34.8935 45.6373 34.9455 44.983 34.9455 44.203ZM39.1566 47.362L37.7006 50.859H36.9076L37.8566 47.362H39.1566ZM40.3167 44.203C40.3167 42.7123 40.5594 41.551 41.0447 40.719C41.5301 39.8783 42.3794 39.458 43.5927 39.458C44.7974 39.458 45.6424 39.8783 46.1277 40.719C46.6131 41.551 46.8557 42.7123 46.8557 44.203C46.8557 45.7197 46.6131 46.8983 46.1277 47.739C45.6424 48.5797 44.7974 49 43.5927 49C42.3794 49 41.5301 48.5797 41.0447 47.739C40.5594 46.8983 40.3167 45.7197 40.3167 44.203ZM45.6857 44.203C45.6857 43.449 45.6337 42.812 45.5297 42.292C45.4344 41.7633 45.2307 41.3387 44.9187 41.018C44.6154 40.6973 44.1734 40.537 43.5927 40.537C43.0034 40.537 42.5527 40.6973 42.2407 41.018C41.9374 41.3387 41.7337 41.7633 41.6297 42.292C41.5344 42.812 41.4867 43.449 41.4867 44.203C41.4867 44.983 41.5344 45.6373 41.6297 46.166C41.7337 46.6947 41.9374 47.1193 42.2407 47.44C42.5527 47.7607 43.0034 47.921 43.5927 47.921C44.1734 47.921 44.6154 47.7607 44.9187 47.44C45.2307 47.1193 45.4344 46.6947 45.5297 46.166C45.6337 45.6373 45.6857 44.983 45.6857 44.203ZM48.4798 44.203C48.4798 42.7123 48.7225 41.551 49.2078 40.719C49.6932 39.8783 50.5425 39.458 51.7558 39.458C52.9605 39.458 53.8055 39.8783 54.2908 40.719C54.7762 41.551 55.0188 42.7123 55.0188 44.203C55.0188 45.7197 54.7762 46.8983 54.2908 47.739C53.8055 48.5797 52.9605 49 51.7558 49C50.5425 49 49.6932 48.5797 49.2078 47.739C48.7225 46.8983 48.4798 45.7197 48.4798 44.203ZM53.8488 44.203C53.8488 43.449 53.7968 42.812 53.6928 42.292C53.5975 41.7633 53.3938 41.3387 53.0818 41.018C52.7785 40.6973 52.3365 40.537 51.7558 40.537C51.1665 40.537 50.7158 40.6973 50.4038 41.018C50.1005 41.3387 49.8968 41.7633 49.7928 42.292C49.6975 42.812 49.6498 43.449 49.6498 44.203C49.6498 44.983 49.6975 45.6373 49.7928 46.166C49.8968 46.6947 50.1005 47.1193 50.4038 47.44C50.7158 47.7607 51.1665 47.921 51.7558 47.921C52.3365 47.921 52.7785 47.7607 53.0818 47.44C53.3938 47.1193 53.5975 46.6947 53.6928 46.166C53.7968 45.6373 53.8488 44.983 53.8488 44.203ZM56.6429 44.203C56.6429 42.7123 56.8856 41.551 57.3709 40.719C57.8562 39.8783 58.7056 39.458 59.9189 39.458C61.1236 39.458 61.9686 39.8783 62.4539 40.719C62.9392 41.551 63.1819 42.7123 63.1819 44.203C63.1819 45.7197 62.9392 46.8983 62.4539 47.739C61.9686 48.5797 61.1236 49 59.9189 49C58.7056 49 57.8562 48.5797 57.3709 47.739C56.8856 46.8983 56.6429 45.7197 56.6429 44.203ZM62.0119 44.203C62.0119 43.449 61.9599 42.812 61.8559 42.292C61.7606 41.7633 61.5569 41.3387 61.2449 41.018C60.9416 40.6973 60.4996 40.537 59.9189 40.537C59.3296 40.537 58.8789 40.6973 58.5669 41.018C58.2636 41.3387 58.0599 41.7633 57.9559 42.292C57.8606 42.812 57.8129 43.449 57.8129 44.203C57.8129 44.983 57.8606 45.6373 57.9559 46.166C58.0599 46.6947 58.2636 47.1193 58.5669 47.44C58.8789 47.7607 59.3296 47.921 59.9189 47.921C60.4996 47.921 60.9416 47.7607 61.2449 47.44C61.5569 47.1193 61.7606 46.6947 61.8559 46.166C61.9599 45.6373 62.0119 44.983 62.0119 44.203Z" fill="#BABABA"/>
<path d="M21.8952 74.967C21.9559 74.1697 22.2636 73.5457 22.8182 73.095C23.3729 72.6443 24.0922 72.419 24.9762 72.419C25.5656 72.419 26.0726 72.5273 26.4972 72.744C26.9306 72.952 27.2556 73.238 27.4722 73.602C27.6976 73.966 27.8102 74.3777 27.8102 74.837C27.8102 75.3743 27.6542 75.838 27.3422 76.228C27.0389 76.618 26.6402 76.8693 26.1462 76.982V77.047C26.7096 77.1857 27.1559 77.4587 27.4852 77.866C27.8146 78.2733 27.9792 78.8063 27.9792 79.465C27.9792 79.959 27.8666 80.4053 27.6412 80.804C27.4159 81.194 27.0779 81.5017 26.6272 81.727C26.1766 81.9523 25.6349 82.065 25.0022 82.065C24.0836 82.065 23.3296 81.8267 22.7402 81.35C22.1509 80.8647 21.8216 80.18 21.7522 79.296H22.8962C22.9569 79.816 23.1692 80.2407 23.5332 80.57C23.8972 80.8993 24.3826 81.064 24.9892 81.064C25.5959 81.064 26.0552 80.908 26.3672 80.596C26.6879 80.2753 26.8482 79.8637 26.8482 79.361C26.8482 78.711 26.6316 78.243 26.1982 77.957C25.7649 77.671 25.1106 77.528 24.2352 77.528H23.9362V76.54H24.2482C25.0456 76.5313 25.6479 76.4013 26.0552 76.15C26.4626 75.89 26.6662 75.4913 26.6662 74.954C26.6662 74.4947 26.5146 74.1263 26.2112 73.849C25.9166 73.5717 25.4919 73.433 24.9372 73.433C24.3999 73.433 23.9666 73.5717 23.6372 73.849C23.3079 74.1263 23.1129 74.499 23.0522 74.967H21.8952ZM29.5765 77.203C29.5765 75.7123 29.8192 74.551 30.3045 73.719C30.7898 72.8783 31.6392 72.458 32.8525 72.458C34.0572 72.458 34.9022 72.8783 35.3875 73.719C35.8728 74.551 36.1155 75.7123 36.1155 77.203C36.1155 78.7197 35.8728 79.8983 35.3875 80.739C34.9022 81.5797 34.0572 82 32.8525 82C31.6392 82 30.7898 81.5797 30.3045 80.739C29.8192 79.8983 29.5765 78.7197 29.5765 77.203ZM34.9455 77.203C34.9455 76.449 34.8935 75.812 34.7895 75.292C34.6942 74.7633 34.4905 74.3387 34.1785 74.018C33.8752 73.6973 33.4332 73.537 32.8525 73.537C32.2632 73.537 31.8125 73.6973 31.5005 74.018C31.1972 74.3387 30.9935 74.7633 30.8895 75.292C30.7942 75.812 30.7465 76.449 30.7465 77.203C30.7465 77.983 30.7942 78.6373 30.8895 79.166C30.9935 79.6947 31.1972 80.1193 31.5005 80.44C31.8125 80.7607 32.2632 80.921 32.8525 80.921C33.4332 80.921 33.8752 80.7607 34.1785 80.44C34.4905 80.1193 34.6942 79.6947 34.7895 79.166C34.8935 78.6373 34.9455 77.983 34.9455 77.203ZM39.1566 80.362L37.7006 83.859H36.9076L37.8566 80.362H39.1566ZM40.3167 77.203C40.3167 75.7123 40.5594 74.551 41.0447 73.719C41.5301 72.8783 42.3794 72.458 43.5927 72.458C44.7974 72.458 45.6424 72.8783 46.1277 73.719C46.6131 74.551 46.8557 75.7123 46.8557 77.203C46.8557 78.7197 46.6131 79.8983 46.1277 80.739C45.6424 81.5797 44.7974 82 43.5927 82C42.3794 82 41.5301 81.5797 41.0447 80.739C40.5594 79.8983 40.3167 78.7197 40.3167 77.203ZM45.6857 77.203C45.6857 76.449 45.6337 75.812 45.5297 75.292C45.4344 74.7633 45.2307 74.3387 44.9187 74.018C44.6154 73.6973 44.1734 73.537 43.5927 73.537C43.0034 73.537 42.5527 73.6973 42.2407 74.018C41.9374 74.3387 41.7337 74.7633 41.6297 75.292C41.5344 75.812 41.4867 76.449 41.4867 77.203C41.4867 77.983 41.5344 78.6373 41.6297 79.166C41.7337 79.6947 41.9374 80.1193 42.2407 80.44C42.5527 80.7607 43.0034 80.921 43.5927 80.921C44.1734 80.921 44.6154 80.7607 44.9187 80.44C45.2307 80.1193 45.4344 79.6947 45.5297 79.166C45.6337 78.6373 45.6857 77.983 45.6857 77.203ZM48.4798 77.203C48.4798 75.7123 48.7225 74.551 49.2078 73.719C49.6932 72.8783 50.5425 72.458 51.7558 72.458C52.9605 72.458 53.8055 72.8783 54.2908 73.719C54.7762 74.551 55.0188 75.7123 55.0188 77.203C55.0188 78.7197 54.7762 79.8983 54.2908 80.739C53.8055 81.5797 52.9605 82 51.7558 82C50.5425 82 49.6932 81.5797 49.2078 80.739C48.7225 79.8983 48.4798 78.7197 48.4798 77.203ZM53.8488 77.203C53.8488 76.449 53.7968 75.812 53.6928 75.292C53.5975 74.7633 53.3938 74.3387 53.0818 74.018C52.7785 73.6973 52.3365 73.537 51.7558 73.537C51.1665 73.537 50.7158 73.6973 50.4038 74.018C50.1005 74.3387 49.8968 74.7633 49.7928 75.292C49.6975 75.812 49.6498 76.449 49.6498 77.203C49.6498 77.983 49.6975 78.6373 49.7928 79.166C49.8968 79.6947 50.1005 80.1193 50.4038 80.44C50.7158 80.7607 51.1665 80.921 51.7558 80.921C52.3365 80.921 52.7785 80.7607 53.0818 80.44C53.3938 80.1193 53.5975 79.6947 53.6928 79.166C53.7968 78.6373 53.8488 77.983 53.8488 77.203ZM56.6429 77.203C56.6429 75.7123 56.8856 74.551 57.3709 73.719C57.8562 72.8783 58.7056 72.458 59.9189 72.458C61.1236 72.458 61.9686 72.8783 62.4539 73.719C62.9392 74.551 63.1819 75.7123 63.1819 77.203C63.1819 78.7197 62.9392 79.8983 62.4539 80.739C61.9686 81.5797 61.1236 82 59.9189 82C58.7056 82 57.8562 81.5797 57.3709 80.739C56.8856 79.8983 56.6429 78.7197 56.6429 77.203ZM62.0119 77.203C62.0119 76.449 61.9599 75.812 61.8559 75.292C61.7606 74.7633 61.5569 74.3387 61.2449 74.018C60.9416 73.6973 60.4996 73.537 59.9189 73.537C59.3296 73.537 58.8789 73.6973 58.5669 74.018C58.2636 74.3387 58.0599 74.7633 57.9559 75.292C57.8606 75.812 57.8129 76.449 57.8129 77.203C57.8129 77.983 57.8606 78.6373 57.9559 79.166C58.0599 79.6947 58.2636 80.1193 58.5669 80.44C58.8789 80.7607 59.3296 80.921 59.9189 80.921C60.4996 80.921 60.9416 80.7607 61.2449 80.44C61.5569 80.1193 61.7606 79.6947 61.8559 79.166C61.9599 78.6373 62.0119 77.983 62.0119 77.203Z" fill="#BABABA"/>
<path d="M21.956 114.051C23.0566 113.167 23.919 112.443 24.543 111.88C25.167 111.308 25.6913 110.714 26.116 110.099C26.5493 109.475 26.766 108.864 26.766 108.266C26.766 107.703 26.6273 107.261 26.35 106.94C26.0813 106.611 25.6436 106.446 25.037 106.446C24.4476 106.446 23.9883 106.632 23.659 107.005C23.3383 107.369 23.165 107.859 23.139 108.474H21.995C22.0296 107.503 22.3243 106.754 22.879 106.225C23.4336 105.696 24.1486 105.432 25.024 105.432C25.9166 105.432 26.623 105.679 27.143 106.173C27.6716 106.667 27.936 107.347 27.936 108.214C27.936 108.933 27.7193 109.635 27.286 110.32C26.8613 110.996 26.376 111.594 25.83 112.114C25.284 112.625 24.5863 113.223 23.737 113.908H28.209V114.896H21.956V114.051ZM29.5765 110.203C29.5765 108.712 29.8192 107.551 30.3045 106.719C30.7898 105.878 31.6392 105.458 32.8525 105.458C34.0572 105.458 34.9022 105.878 35.3875 106.719C35.8728 107.551 36.1155 108.712 36.1155 110.203C36.1155 111.72 35.8728 112.898 35.3875 113.739C34.9022 114.58 34.0572 115 32.8525 115C31.6392 115 30.7898 114.58 30.3045 113.739C29.8192 112.898 29.5765 111.72 29.5765 110.203ZM34.9455 110.203C34.9455 109.449 34.8935 108.812 34.7895 108.292C34.6942 107.763 34.4905 107.339 34.1785 107.018C33.8752 106.697 33.4332 106.537 32.8525 106.537C32.2632 106.537 31.8125 106.697 31.5005 107.018C31.1972 107.339 30.9935 107.763 30.8895 108.292C30.7942 108.812 30.7465 109.449 30.7465 110.203C30.7465 110.983 30.7942 111.637 30.8895 112.166C30.9935 112.695 31.1972 113.119 31.5005 113.44C31.8125 113.761 32.2632 113.921 32.8525 113.921C33.4332 113.921 33.8752 113.761 34.1785 113.44C34.4905 113.119 34.6942 112.695 34.7895 112.166C34.8935 111.637 34.9455 110.983 34.9455 110.203ZM39.1566 113.362L37.7006 116.859H36.9076L37.8566 113.362H39.1566ZM40.3167 110.203C40.3167 108.712 40.5594 107.551 41.0447 106.719C41.5301 105.878 42.3794 105.458 43.5927 105.458C44.7974 105.458 45.6424 105.878 46.1277 106.719C46.6131 107.551 46.8557 108.712 46.8557 110.203C46.8557 111.72 46.6131 112.898 46.1277 113.739C45.6424 114.58 44.7974 115 43.5927 115C42.3794 115 41.5301 114.58 41.0447 113.739C40.5594 112.898 40.3167 111.72 40.3167 110.203ZM45.6857 110.203C45.6857 109.449 45.6337 108.812 45.5297 108.292C45.4344 107.763 45.2307 107.339 44.9187 107.018C44.6154 106.697 44.1734 106.537 43.5927 106.537C43.0034 106.537 42.5527 106.697 42.2407 107.018C41.9374 107.339 41.7337 107.763 41.6297 108.292C41.5344 108.812 41.4867 109.449 41.4867 110.203C41.4867 110.983 41.5344 111.637 41.6297 112.166C41.7337 112.695 41.9374 113.119 42.2407 113.44C42.5527 113.761 43.0034 113.921 43.5927 113.921C44.1734 113.921 44.6154 113.761 44.9187 113.44C45.2307 113.119 45.4344 112.695 45.5297 112.166C45.6337 111.637 45.6857 110.983 45.6857 110.203ZM48.4798 110.203C48.4798 108.712 48.7225 107.551 49.2078 106.719C49.6932 105.878 50.5425 105.458 51.7558 105.458C52.9605 105.458 53.8055 105.878 54.2908 106.719C54.7762 107.551 55.0188 108.712 55.0188 110.203C55.0188 111.72 54.7762 112.898 54.2908 113.739C53.8055 114.58 52.9605 115 51.7558 115C50.5425 115 49.6932 114.58 49.2078 113.739C48.7225 112.898 48.4798 111.72 48.4798 110.203ZM53.8488 110.203C53.8488 109.449 53.7968 108.812 53.6928 108.292C53.5975 107.763 53.3938 107.339 53.0818 107.018C52.7785 106.697 52.3365 106.537 51.7558 106.537C51.1665 106.537 50.7158 106.697 50.4038 107.018C50.1005 107.339 49.8968 107.763 49.7928 108.292C49.6975 108.812 49.6498 109.449 49.6498 110.203C49.6498 110.983 49.6975 111.637 49.7928 112.166C49.8968 112.695 50.1005 113.119 50.4038 113.44C50.7158 113.761 51.1665 113.921 51.7558 113.921C52.3365 113.921 52.7785 113.761 53.0818 113.44C53.3938 113.119 53.5975 112.695 53.6928 112.166C53.7968 111.637 53.8488 110.983 53.8488 110.203ZM56.6429 110.203C56.6429 108.712 56.8856 107.551 57.3709 106.719C57.8562 105.878 58.7056 105.458 59.9189 105.458C61.1236 105.458 61.9686 105.878 62.4539 106.719C62.9392 107.551 63.1819 108.712 63.1819 110.203C63.1819 111.72 62.9392 112.898 62.4539 113.739C61.9686 114.58 61.1236 115 59.9189 115C58.7056 115 57.8562 114.58 57.3709 113.739C56.8856 112.898 56.6429 111.72 56.6429 110.203ZM62.0119 110.203C62.0119 109.449 61.9599 108.812 61.8559 108.292C61.7606 107.763 61.5569 107.339 61.2449 107.018C60.9416 106.697 60.4996 106.537 59.9189 106.537C59.3296 106.537 58.8789 106.697 58.5669 107.018C58.2636 107.339 58.0599 107.763 57.9559 108.292C57.8606 108.812 57.8129 109.449 57.8129 110.203C57.8129 110.983 57.8606 111.637 57.9559 112.166C58.0599 112.695 58.2636 113.119 58.5669 113.44C58.8789 113.761 59.3296 113.921 59.9189 113.921C60.4996 113.921 60.9416 113.761 61.2449 113.44C61.5569 113.119 61.7606 112.695 61.8559 112.166C61.9599 111.637 62.0119 110.983 62.0119 110.203Z" fill="#BABABA"/>
<path d="M25.1004 139.68V138.601H27.5444V148H26.3484V139.68H25.1004ZM29.5765 143.203C29.5765 141.712 29.8192 140.551 30.3045 139.719C30.7898 138.878 31.6392 138.458 32.8525 138.458C34.0572 138.458 34.9022 138.878 35.3875 139.719C35.8728 140.551 36.1155 141.712 36.1155 143.203C36.1155 144.72 35.8728 145.898 35.3875 146.739C34.9022 147.58 34.0572 148 32.8525 148C31.6392 148 30.7898 147.58 30.3045 146.739C29.8192 145.898 29.5765 144.72 29.5765 143.203ZM34.9455 143.203C34.9455 142.449 34.8935 141.812 34.7895 141.292C34.6942 140.763 34.4905 140.339 34.1785 140.018C33.8752 139.697 33.4332 139.537 32.8525 139.537C32.2632 139.537 31.8125 139.697 31.5005 140.018C31.1972 140.339 30.9935 140.763 30.8895 141.292C30.7942 141.812 30.7465 142.449 30.7465 143.203C30.7465 143.983 30.7942 144.637 30.8895 145.166C30.9935 145.695 31.1972 146.119 31.5005 146.44C31.8125 146.761 32.2632 146.921 32.8525 146.921C33.4332 146.921 33.8752 146.761 34.1785 146.44C34.4905 146.119 34.6942 145.695 34.7895 145.166C34.8935 144.637 34.9455 143.983 34.9455 143.203ZM39.1566 146.362L37.7006 149.859H36.9076L37.8566 146.362H39.1566ZM40.3167 143.203C40.3167 141.712 40.5594 140.551 41.0447 139.719C41.5301 138.878 42.3794 138.458 43.5927 138.458C44.7974 138.458 45.6424 138.878 46.1277 139.719C46.6131 140.551 46.8557 141.712 46.8557 143.203C46.8557 144.72 46.6131 145.898 46.1277 146.739C45.6424 147.58 44.7974 148 43.5927 148C42.3794 148 41.5301 147.58 41.0447 146.739C40.5594 145.898 40.3167 144.72 40.3167 143.203ZM45.6857 143.203C45.6857 142.449 45.6337 141.812 45.5297 141.292C45.4344 140.763 45.2307 140.339 44.9187 140.018C44.6154 139.697 44.1734 139.537 43.5927 139.537C43.0034 139.537 42.5527 139.697 42.2407 140.018C41.9374 140.339 41.7337 140.763 41.6297 141.292C41.5344 141.812 41.4867 142.449 41.4867 143.203C41.4867 143.983 41.5344 144.637 41.6297 145.166C41.7337 145.695 41.9374 146.119 42.2407 146.44C42.5527 146.761 43.0034 146.921 43.5927 146.921C44.1734 146.921 44.6154 146.761 44.9187 146.44C45.2307 146.119 45.4344 145.695 45.5297 145.166C45.6337 144.637 45.6857 143.983 45.6857 143.203ZM48.4798 143.203C48.4798 141.712 48.7225 140.551 49.2078 139.719C49.6932 138.878 50.5425 138.458 51.7558 138.458C52.9605 138.458 53.8055 138.878 54.2908 139.719C54.7762 140.551 55.0188 141.712 55.0188 143.203C55.0188 144.72 54.7762 145.898 54.2908 146.739C53.8055 147.58 52.9605 148 51.7558 148C50.5425 148 49.6932 147.58 49.2078 146.739C48.7225 145.898 48.4798 144.72 48.4798 143.203ZM53.8488 143.203C53.8488 142.449 53.7968 141.812 53.6928 141.292C53.5975 140.763 53.3938 140.339 53.0818 140.018C52.7785 139.697 52.3365 139.537 51.7558 139.537C51.1665 139.537 50.7158 139.697 50.4038 140.018C50.1005 140.339 49.8968 140.763 49.7928 141.292C49.6975 141.812 49.6498 142.449 49.6498 143.203C49.6498 143.983 49.6975 144.637 49.7928 145.166C49.8968 145.695 50.1005 146.119 50.4038 146.44C50.7158 146.761 51.1665 146.921 51.7558 146.921C52.3365 146.921 52.7785 146.761 53.0818 146.44C53.3938 146.119 53.5975 145.695 53.6928 145.166C53.7968 144.637 53.8488 143.983 53.8488 143.203ZM56.6429 143.203C56.6429 141.712 56.8856 140.551 57.3709 139.719C57.8562 138.878 58.7056 138.458 59.9189 138.458C61.1236 138.458 61.9686 138.878 62.4539 139.719C62.9392 140.551 63.1819 141.712 63.1819 143.203C63.1819 144.72 62.9392 145.898 62.4539 146.739C61.9686 147.58 61.1236 148 59.9189 148C58.7056 148 57.8562 147.58 57.3709 146.739C56.8856 145.898 56.6429 144.72 56.6429 143.203ZM62.0119 143.203C62.0119 142.449 61.9599 141.812 61.8559 141.292C61.7606 140.763 61.5569 140.339 61.2449 140.018C60.9416 139.697 60.4996 139.537 59.9189 139.537C59.3296 139.537 58.8789 139.697 58.5669 140.018C58.2636 140.339 58.0599 140.763 57.9559 141.292C57.8606 141.812 57.8129 142.449 57.8129 143.203C57.8129 143.983 57.8606 144.637 57.9559 145.166C58.0599 145.695 58.2636 146.119 58.5669 146.44C58.8789 146.761 59.3296 146.921 59.9189 146.921C60.4996 146.921 60.9416 146.761 61.2449 146.44C61.5569 146.119 61.7606 145.695 61.8559 145.166C61.9599 144.637 62.0119 143.983 62.0119 143.203Z" fill="#BABABA"/>
<path d="M56.6429 176.203C56.6429 174.712 56.8856 173.551 57.3709 172.719C57.8562 171.878 58.7056 171.458 59.9189 171.458C61.1236 171.458 61.9686 171.878 62.4539 172.719C62.9392 173.551 63.1819 174.712 63.1819 176.203C63.1819 177.72 62.9392 178.898 62.4539 179.739C61.9686 180.58 61.1236 181 59.9189 181C58.7056 181 57.8562 180.58 57.3709 179.739C56.8856 178.898 56.6429 177.72 56.6429 176.203ZM62.0119 176.203C62.0119 175.449 61.9599 174.812 61.8559 174.292C61.7606 173.763 61.5569 173.339 61.2449 173.018C60.9416 172.697 60.4996 172.537 59.9189 172.537C59.3296 172.537 58.8789 172.697 58.5669 173.018C58.2636 173.339 58.0599 173.763 57.9559 174.292C57.8606 174.812 57.8129 175.449 57.8129 176.203C57.8129 176.983 57.8606 177.637 57.9559 178.166C58.0599 178.695 58.2636 179.119 58.5669 179.44C58.8789 179.761 59.3296 179.921 59.9189 179.921C60.4996 179.921 60.9416 179.761 61.2449 179.44C61.5569 179.119 61.7606 178.695 61.8559 178.166C61.9599 177.637 62.0119 176.983 62.0119 176.203Z" fill="#BABABA"/>
<path d="M126.067 204.939V211.634C126.067 212.379 125.837 212.977 125.378 213.428C124.919 213.87 124.312 214.091 123.558 214.091C122.795 214.091 122.184 213.866 121.725 213.415C121.266 212.956 121.036 212.332 121.036 211.543H122.219C122.228 211.985 122.34 212.345 122.557 212.622C122.782 212.899 123.116 213.038 123.558 213.038C124 213.038 124.329 212.908 124.546 212.648C124.763 212.379 124.871 212.041 124.871 211.634V204.939H126.067ZM127.955 210.412C127.955 209.684 128.103 209.047 128.397 208.501C128.692 207.946 129.095 207.517 129.606 207.214C130.126 206.911 130.703 206.759 131.335 206.759C131.959 206.759 132.501 206.893 132.96 207.162C133.42 207.431 133.762 207.769 133.987 208.176V206.876H135.183V214H133.987V212.674C133.753 213.09 133.402 213.437 132.934 213.714C132.475 213.983 131.938 214.117 131.322 214.117C130.69 214.117 130.118 213.961 129.606 213.649C129.095 213.337 128.692 212.899 128.397 212.336C128.103 211.773 127.955 211.131 127.955 210.412ZM133.987 210.425C133.987 209.888 133.879 209.42 133.662 209.021C133.446 208.622 133.151 208.319 132.778 208.111C132.414 207.894 132.011 207.786 131.569 207.786C131.127 207.786 130.724 207.89 130.36 208.098C129.996 208.306 129.706 208.609 129.489 209.008C129.273 209.407 129.164 209.875 129.164 210.412C129.164 210.958 129.273 211.435 129.489 211.842C129.706 212.241 129.996 212.548 130.36 212.765C130.724 212.973 131.127 213.077 131.569 213.077C132.011 213.077 132.414 212.973 132.778 212.765C133.151 212.548 133.446 212.241 133.662 211.842C133.879 211.435 133.987 210.962 133.987 210.425ZM140.654 206.746C141.52 206.746 142.222 207.01 142.76 207.539C143.297 208.059 143.566 208.813 143.566 209.801V214H142.396V209.97C142.396 209.259 142.218 208.718 141.863 208.345C141.507 207.964 141.022 207.773 140.407 207.773C139.783 207.773 139.284 207.968 138.912 208.358C138.548 208.748 138.366 209.316 138.366 210.061V214H137.183V206.876H138.366V207.89C138.6 207.526 138.916 207.244 139.315 207.045C139.722 206.846 140.168 206.746 140.654 206.746Z" fill="#BABABA"/>
<path d="M182.924 204.939V205.901H178.985V208.956H182.183V209.918H178.985V214H177.802V204.939H182.924ZM190.853 210.165C190.853 210.39 190.84 210.629 190.814 210.88H185.12C185.163 211.582 185.402 212.132 185.835 212.531C186.277 212.921 186.81 213.116 187.434 213.116C187.945 213.116 188.37 212.999 188.708 212.765C189.055 212.522 189.297 212.202 189.436 211.803H190.71C190.519 212.488 190.138 213.047 189.566 213.48C188.994 213.905 188.283 214.117 187.434 214.117C186.758 214.117 186.151 213.965 185.614 213.662C185.085 213.359 184.669 212.93 184.366 212.375C184.063 211.812 183.911 211.162 183.911 210.425C183.911 209.688 184.058 209.043 184.353 208.488C184.648 207.933 185.059 207.509 185.588 207.214C186.125 206.911 186.741 206.759 187.434 206.759C188.11 206.759 188.708 206.906 189.228 207.201C189.748 207.496 190.147 207.903 190.424 208.423C190.71 208.934 190.853 209.515 190.853 210.165ZM189.631 209.918C189.631 209.467 189.531 209.082 189.332 208.761C189.133 208.432 188.86 208.185 188.513 208.02C188.175 207.847 187.798 207.76 187.382 207.76C186.784 207.76 186.273 207.951 185.848 208.332C185.432 208.713 185.194 209.242 185.133 209.918H189.631ZM193.598 208.202C193.84 207.777 194.196 207.431 194.664 207.162C195.132 206.893 195.665 206.759 196.263 206.759C196.904 206.759 197.48 206.911 197.992 207.214C198.503 207.517 198.906 207.946 199.201 208.501C199.495 209.047 199.643 209.684 199.643 210.412C199.643 211.131 199.495 211.773 199.201 212.336C198.906 212.899 198.499 213.337 197.979 213.649C197.467 213.961 196.895 214.117 196.263 214.117C195.647 214.117 195.106 213.983 194.638 213.714C194.178 213.445 193.832 213.103 193.598 212.687V214H192.415V204.38H193.598V208.202ZM198.434 210.412C198.434 209.875 198.325 209.407 198.109 209.008C197.892 208.609 197.597 208.306 197.225 208.098C196.861 207.89 196.458 207.786 196.016 207.786C195.582 207.786 195.179 207.894 194.807 208.111C194.443 208.319 194.148 208.627 193.923 209.034C193.706 209.433 193.598 209.896 193.598 210.425C193.598 210.962 193.706 211.435 193.923 211.842C194.148 212.241 194.443 212.548 194.807 212.765C195.179 212.973 195.582 213.077 196.016 213.077C196.458 213.077 196.861 212.973 197.225 212.765C197.597 212.548 197.892 212.241 198.109 211.842C198.325 211.435 198.434 210.958 198.434 210.412Z" fill="#BABABA"/>
<path d="M242.276 205.004V214H241.093V207.292L238.103 214H237.271L234.268 207.279V214H233.085V205.004H234.359L237.687 212.44L241.015 205.004H242.276ZM243.84 210.412C243.84 209.684 243.988 209.047 244.282 208.501C244.577 207.946 244.98 207.517 245.491 207.214C246.011 206.911 246.588 206.759 247.22 206.759C247.844 206.759 248.386 206.893 248.845 207.162C249.305 207.431 249.647 207.769 249.872 208.176V206.876H251.068V214H249.872V212.674C249.638 213.09 249.287 213.437 248.819 213.714C248.36 213.983 247.823 214.117 247.207 214.117C246.575 214.117 246.003 213.961 245.491 213.649C244.98 213.337 244.577 212.899 244.282 212.336C243.988 211.773 243.84 211.131 243.84 210.412ZM249.872 210.425C249.872 209.888 249.764 209.42 249.547 209.021C249.331 208.622 249.036 208.319 248.663 208.111C248.299 207.894 247.896 207.786 247.454 207.786C247.012 207.786 246.609 207.89 246.245 208.098C245.881 208.306 245.591 208.609 245.374 209.008C245.158 209.407 245.049 209.875 245.049 210.412C245.049 210.958 245.158 211.435 245.374 211.842C245.591 212.241 245.881 212.548 246.245 212.765C246.609 212.973 247.012 213.077 247.454 213.077C247.896 213.077 248.299 212.973 248.663 212.765C249.036 212.548 249.331 212.241 249.547 211.842C249.764 211.435 249.872 210.962 249.872 210.425ZM254.25 208.033C254.458 207.626 254.753 207.309 255.134 207.084C255.524 206.859 255.997 206.746 256.551 206.746V207.968H256.239C254.913 207.968 254.25 208.687 254.25 210.126V214H253.067V206.876H254.25V208.033Z" fill="#BABABA"/>
<path d="M295.66 211.985H291.708L290.98 214H289.732L293.008 204.991H294.373L297.636 214H296.388L295.66 211.985ZM295.322 211.023L293.684 206.447L292.046 211.023H295.322ZM300.247 208.189C300.481 207.782 300.827 207.444 301.287 207.175C301.755 206.898 302.296 206.759 302.912 206.759C303.544 206.759 304.116 206.911 304.627 207.214C305.147 207.517 305.555 207.946 305.85 208.501C306.144 209.047 306.292 209.684 306.292 210.412C306.292 211.131 306.144 211.773 305.85 212.336C305.555 212.899 305.147 213.337 304.627 213.649C304.116 213.961 303.544 214.117 302.912 214.117C302.305 214.117 301.768 213.983 301.3 213.714C300.84 213.437 300.489 213.094 300.247 212.687V217.38H299.064V206.876H300.247V208.189ZM305.083 210.412C305.083 209.875 304.974 209.407 304.758 209.008C304.541 208.609 304.246 208.306 303.874 208.098C303.51 207.89 303.107 207.786 302.665 207.786C302.231 207.786 301.828 207.894 301.456 208.111C301.092 208.319 300.797 208.627 300.572 209.034C300.355 209.433 300.247 209.896 300.247 210.425C300.247 210.962 300.355 211.435 300.572 211.842C300.797 212.241 301.092 212.548 301.456 212.765C301.828 212.973 302.231 213.077 302.665 213.077C303.107 213.077 303.51 212.973 303.874 212.765C304.246 212.548 304.541 212.241 304.758 211.842C304.974 211.435 305.083 210.958 305.083 210.412ZM309.032 208.033C309.24 207.626 309.534 207.309 309.916 207.084C310.306 206.859 310.778 206.746 311.333 206.746V207.968H311.021C309.695 207.968 309.032 208.687 309.032 210.126V214H307.849V206.876H309.032V208.033Z" fill="#BABABA"/>
<path d="M353.038 205.004V214H351.855V207.292L348.865 214H348.033L345.03 207.279V214H343.847V205.004H345.121L348.449 212.44L351.777 205.004H353.038ZM354.602 210.412C354.602 209.684 354.75 209.047 355.044 208.501C355.339 207.946 355.742 207.517 356.253 207.214C356.773 206.911 357.35 206.759 357.982 206.759C358.606 206.759 359.148 206.893 359.607 207.162C360.067 207.431 360.409 207.769 360.634 208.176V206.876H361.83V214H360.634V212.674C360.4 213.09 360.049 213.437 359.581 213.714C359.122 213.983 358.585 214.117 357.969 214.117C357.337 214.117 356.765 213.961 356.253 213.649C355.742 213.337 355.339 212.899 355.044 212.336C354.75 211.773 354.602 211.131 354.602 210.412ZM360.634 210.425C360.634 209.888 360.526 209.42 360.309 209.021C360.093 208.622 359.798 208.319 359.425 208.111C359.061 207.894 358.658 207.786 358.216 207.786C357.774 207.786 357.371 207.89 357.007 208.098C356.643 208.306 356.353 208.609 356.136 209.008C355.92 209.407 355.811 209.875 355.811 210.412C355.811 210.958 355.92 211.435 356.136 211.842C356.353 212.241 356.643 212.548 357.007 212.765C357.371 212.973 357.774 213.077 358.216 213.077C358.658 213.077 359.061 212.973 359.425 212.765C359.798 212.548 360.093 212.241 360.309 211.842C360.526 211.435 360.634 210.962 360.634 210.425ZM369.966 206.876L365.676 217.354H364.454L365.858 213.922L362.985 206.876H364.298L366.534 212.648L368.744 206.876H369.966Z" fill="#BABABA"/>
<path d="M406.302 204.939V211.634C406.302 212.379 406.072 212.977 405.613 213.428C405.153 213.87 404.547 214.091 403.793 214.091C403.03 214.091 402.419 213.866 401.96 213.415C401.5 212.956 401.271 212.332 401.271 211.543H402.454C402.462 211.985 402.575 212.345 402.792 212.622C403.017 212.899 403.351 213.038 403.793 213.038C404.235 213.038 404.564 212.908 404.781 212.648C404.997 212.379 405.106 212.041 405.106 211.634V204.939H406.302ZM414.95 206.876V214H413.767V212.947C413.542 213.311 413.226 213.597 412.818 213.805C412.42 214.004 411.978 214.104 411.492 214.104C410.938 214.104 410.439 213.991 409.997 213.766C409.555 213.532 409.204 213.185 408.944 212.726C408.693 212.267 408.567 211.708 408.567 211.049V206.876H409.737V210.893C409.737 211.595 409.915 212.137 410.27 212.518C410.626 212.891 411.111 213.077 411.726 213.077C412.359 213.077 412.857 212.882 413.221 212.492C413.585 212.102 413.767 211.534 413.767 210.789V206.876H414.95ZM420.419 206.746C421.285 206.746 421.987 207.01 422.525 207.539C423.062 208.059 423.331 208.813 423.331 209.801V214H422.161V209.97C422.161 209.259 421.983 208.718 421.628 208.345C421.272 207.964 420.787 207.773 420.172 207.773C419.548 207.773 419.049 207.968 418.677 208.358C418.313 208.748 418.131 209.316 418.131 210.061V214H416.948V206.876H418.131V207.89C418.365 207.526 418.681 207.244 419.08 207.045C419.487 206.846 419.933 206.746 420.419 206.746Z" fill="#BABABA"/>
<path d="M464.86 204.939V211.634C464.86 212.379 464.63 212.977 464.171 213.428C463.712 213.87 463.105 214.091 462.351 214.091C461.588 214.091 460.977 213.866 460.518 213.415C460.059 212.956 459.829 212.332 459.829 211.543H461.012C461.021 211.985 461.133 212.345 461.35 212.622C461.575 212.899 461.909 213.038 462.351 213.038C462.793 213.038 463.122 212.908 463.339 212.648C463.556 212.379 463.664 212.041 463.664 211.634V204.939H464.86ZM473.508 206.876V214H472.325V212.947C472.1 213.311 471.784 213.597 471.376 213.805C470.978 214.004 470.536 214.104 470.05 214.104C469.496 214.104 468.997 213.991 468.555 213.766C468.113 213.532 467.762 213.185 467.502 212.726C467.251 212.267 467.125 211.708 467.125 211.049V206.876H468.295V210.893C468.295 211.595 468.473 212.137 468.828 212.518C469.184 212.891 469.669 213.077 470.284 213.077C470.917 213.077 471.415 212.882 471.779 212.492C472.143 212.102 472.325 211.534 472.325 210.789V206.876H473.508ZM476.689 204.38V214H475.506V204.38H476.689Z" fill="#BABABA"/>
<path d="M517.927 211.985H513.975L513.247 214H511.999L515.275 204.991H516.64L519.903 214H518.655L517.927 211.985ZM517.589 211.023L515.951 206.447L514.313 211.023H517.589ZM527.649 206.876V214H526.466V212.947C526.24 213.311 525.924 213.597 525.517 213.805C525.118 214.004 524.676 214.104 524.191 214.104C523.636 214.104 523.138 213.991 522.696 213.766C522.254 213.532 521.903 213.185 521.643 212.726C521.391 212.267 521.266 211.708 521.266 211.049V206.876H522.436V210.893C522.436 211.595 522.613 212.137 522.969 212.518C523.324 212.891 523.809 213.077 524.425 213.077C525.057 213.077 525.556 212.882 525.92 212.492C526.284 212.102 526.466 211.534 526.466 210.789V206.876H527.649ZM532.584 206.759C533.199 206.759 533.737 206.893 534.196 207.162C534.664 207.431 535.011 207.769 535.236 208.176V206.876H536.432V214.156C536.432 214.806 536.293 215.382 536.016 215.885C535.739 216.396 535.34 216.795 534.82 217.081C534.309 217.367 533.711 217.51 533.026 217.51C532.09 217.51 531.31 217.289 530.686 216.847C530.062 216.405 529.694 215.803 529.581 215.04H530.751C530.881 215.473 531.15 215.82 531.557 216.08C531.964 216.349 532.454 216.483 533.026 216.483C533.676 216.483 534.205 216.279 534.612 215.872C535.028 215.465 535.236 214.893 535.236 214.156V212.661C535.002 213.077 534.655 213.424 534.196 213.701C533.737 213.978 533.199 214.117 532.584 214.117C531.951 214.117 531.375 213.961 530.855 213.649C530.344 213.337 529.941 212.899 529.646 212.336C529.351 211.773 529.204 211.131 529.204 210.412C529.204 209.684 529.351 209.047 529.646 208.501C529.941 207.946 530.344 207.517 530.855 207.214C531.375 206.911 531.951 206.759 532.584 206.759ZM535.236 210.425C535.236 209.888 535.128 209.42 534.911 209.021C534.694 208.622 534.4 208.319 534.027 208.111C533.663 207.894 533.26 207.786 532.818 207.786C532.376 207.786 531.973 207.89 531.609 208.098C531.245 208.306 530.955 208.609 530.738 209.008C530.521 209.407 530.413 209.875 530.413 210.412C530.413 210.958 530.521 211.435 530.738 211.842C530.955 212.241 531.245 212.548 531.609 212.765C531.973 212.973 532.376 213.077 532.818 213.077C533.26 213.077 533.663 212.973 534.027 212.765C534.4 212.548 534.694 212.241 534.911 211.842C535.128 211.435 535.236 210.962 535.236 210.425Z" fill="#BABABA"/>
<path d="M572.136 214.091C571.538 214.091 571 213.987 570.524 213.779C570.056 213.562 569.687 213.268 569.419 212.895C569.15 212.514 569.011 212.076 569.003 211.582H570.264C570.307 212.007 570.48 212.366 570.784 212.661C571.096 212.947 571.546 213.09 572.136 213.09C572.699 213.09 573.141 212.951 573.462 212.674C573.791 212.388 573.956 212.024 573.956 211.582C573.956 211.235 573.86 210.954 573.67 210.737C573.479 210.52 573.241 210.356 572.955 210.243C572.669 210.13 572.283 210.009 571.798 209.879C571.2 209.723 570.719 209.567 570.355 209.411C569.999 209.255 569.692 209.012 569.432 208.683C569.18 208.345 569.055 207.894 569.055 207.331C569.055 206.837 569.18 206.399 569.432 206.018C569.683 205.637 570.034 205.342 570.485 205.134C570.944 204.926 571.468 204.822 572.058 204.822C572.907 204.822 573.6 205.034 574.138 205.459C574.684 205.884 574.991 206.447 575.061 207.149H573.761C573.717 206.802 573.535 206.499 573.215 206.239C572.894 205.97 572.469 205.836 571.941 205.836C571.447 205.836 571.044 205.966 570.732 206.226C570.42 206.477 570.264 206.833 570.264 207.292C570.264 207.621 570.355 207.89 570.537 208.098C570.727 208.306 570.957 208.466 571.226 208.579C571.503 208.683 571.889 208.804 572.383 208.943C572.981 209.108 573.462 209.272 573.826 209.437C574.19 209.593 574.502 209.84 574.762 210.178C575.022 210.507 575.152 210.958 575.152 211.53C575.152 211.972 575.035 212.388 574.801 212.778C574.567 213.168 574.22 213.484 573.761 213.727C573.301 213.97 572.76 214.091 572.136 214.091ZM583.393 210.165C583.393 210.39 583.38 210.629 583.354 210.88H577.66C577.703 211.582 577.941 212.132 578.375 212.531C578.817 212.921 579.35 213.116 579.974 213.116C580.485 213.116 580.91 212.999 581.248 212.765C581.594 212.522 581.837 212.202 581.976 211.803H583.25C583.059 212.488 582.678 213.047 582.106 213.48C581.534 213.905 580.823 214.117 579.974 214.117C579.298 214.117 578.691 213.965 578.154 213.662C577.625 213.359 577.209 212.93 576.906 212.375C576.602 211.812 576.451 211.162 576.451 210.425C576.451 209.688 576.598 209.043 576.893 208.488C577.187 207.933 577.599 207.509 578.128 207.214C578.665 206.911 579.28 206.759 579.974 206.759C580.65 206.759 581.248 206.906 581.768 207.201C582.288 207.496 582.686 207.903 582.964 208.423C583.25 208.934 583.393 209.515 583.393 210.165ZM582.171 209.918C582.171 209.467 582.071 209.082 581.872 208.761C581.672 208.432 581.399 208.185 581.053 208.02C580.715 207.847 580.338 207.76 579.922 207.76C579.324 207.76 578.812 207.951 578.388 208.332C577.972 208.713 577.733 209.242 577.673 209.918H582.171ZM586.137 208.189C586.371 207.782 586.718 207.444 587.177 207.175C587.645 206.898 588.187 206.759 588.802 206.759C589.435 206.759 590.007 206.911 590.518 207.214C591.038 207.517 591.445 207.946 591.74 208.501C592.035 209.047 592.182 209.684 592.182 210.412C592.182 211.131 592.035 211.773 591.74 212.336C591.445 212.899 591.038 213.337 590.518 213.649C590.007 213.961 589.435 214.117 588.802 214.117C588.195 214.117 587.658 213.983 587.19 213.714C586.731 213.437 586.38 213.094 586.137 212.687V217.38H584.954V206.876H586.137V208.189ZM590.973 210.412C590.973 209.875 590.865 209.407 590.648 209.008C590.431 208.609 590.137 208.306 589.764 208.098C589.4 207.89 588.997 207.786 588.555 207.786C588.122 207.786 587.719 207.894 587.346 208.111C586.982 208.319 586.687 208.627 586.462 209.034C586.245 209.433 586.137 209.896 586.137 210.425C586.137 210.962 586.245 211.435 586.462 211.842C586.687 212.241 586.982 212.548 587.346 212.765C587.719 212.973 588.122 213.077 588.555 213.077C588.997 213.077 589.4 212.973 589.764 212.765C590.137 212.548 590.431 212.241 590.648 211.842C590.865 211.435 590.973 210.958 590.973 210.412Z" fill="#BABABA"/>
<path d="M630.183 214.091C629.343 214.091 628.576 213.896 627.882 213.506C627.189 213.107 626.639 212.557 626.231 211.855C625.833 211.144 625.633 210.347 625.633 209.463C625.633 208.579 625.833 207.786 626.231 207.084C626.639 206.373 627.189 205.823 627.882 205.433C628.576 205.034 629.343 204.835 630.183 204.835C631.033 204.835 631.804 205.034 632.497 205.433C633.191 205.823 633.737 206.369 634.135 207.071C634.534 207.773 634.733 208.57 634.733 209.463C634.733 210.356 634.534 211.153 634.135 211.855C633.737 212.557 633.191 213.107 632.497 213.506C631.804 213.896 631.033 214.091 630.183 214.091ZM630.183 213.064C630.816 213.064 631.384 212.917 631.886 212.622C632.398 212.327 632.796 211.907 633.082 211.361C633.377 210.815 633.524 210.182 633.524 209.463C633.524 208.735 633.377 208.102 633.082 207.565C632.796 207.019 632.402 206.599 631.899 206.304C631.397 206.009 630.825 205.862 630.183 205.862C629.542 205.862 628.97 206.009 628.467 206.304C627.965 206.599 627.566 207.019 627.271 207.565C626.985 208.102 626.842 208.735 626.842 209.463C626.842 210.182 626.985 210.815 627.271 211.361C627.566 211.907 627.965 212.327 628.467 212.622C628.979 212.917 629.551 213.064 630.183 213.064ZM635.853 210.425C635.853 209.688 636 209.047 636.295 208.501C636.59 207.946 636.997 207.517 637.517 207.214C638.046 206.911 638.648 206.759 639.324 206.759C640.199 206.759 640.919 206.971 641.482 207.396C642.054 207.821 642.431 208.41 642.613 209.164H641.339C641.218 208.731 640.979 208.388 640.624 208.137C640.277 207.886 639.844 207.76 639.324 207.76C638.648 207.76 638.102 207.994 637.686 208.462C637.27 208.921 637.062 209.576 637.062 210.425C637.062 211.283 637.27 211.946 637.686 212.414C638.102 212.882 638.648 213.116 639.324 213.116C639.844 213.116 640.277 212.995 640.624 212.752C640.971 212.509 641.209 212.163 641.339 211.712H642.613C642.422 212.44 642.041 213.025 641.469 213.467C640.897 213.9 640.182 214.117 639.324 214.117C638.648 214.117 638.046 213.965 637.517 213.662C636.997 213.359 636.59 212.93 636.295 212.375C636 211.82 635.853 211.17 635.853 210.425ZM645.634 207.851V212.05C645.634 212.397 645.708 212.644 645.855 212.791C646.003 212.93 646.258 212.999 646.622 212.999H647.493V214H646.427C645.769 214 645.275 213.848 644.945 213.545C644.616 213.242 644.451 212.743 644.451 212.05V207.851H643.528V206.876H644.451V205.082H645.634V206.876H647.493V207.851H645.634Z" fill="#BABABA"/>
<path d="M688.253 214H687.07L682.312 206.785V214H681.129V204.926H682.312L687.07 212.128V204.926H688.253V214ZM693.377 214.117C692.71 214.117 692.103 213.965 691.557 213.662C691.02 213.359 690.595 212.93 690.283 212.375C689.98 211.812 689.828 211.162 689.828 210.425C689.828 209.697 689.984 209.056 690.296 208.501C690.617 207.938 691.05 207.509 691.596 207.214C692.142 206.911 692.753 206.759 693.429 206.759C694.105 206.759 694.716 206.911 695.262 207.214C695.808 207.509 696.237 207.933 696.549 208.488C696.87 209.043 697.03 209.688 697.03 210.425C697.03 211.162 696.865 211.812 696.536 212.375C696.215 212.93 695.778 213.359 695.223 213.662C694.668 213.965 694.053 214.117 693.377 214.117ZM693.377 213.077C693.802 213.077 694.2 212.977 694.573 212.778C694.946 212.579 695.245 212.28 695.47 211.881C695.704 211.482 695.821 210.997 695.821 210.425C695.821 209.853 695.708 209.368 695.483 208.969C695.258 208.57 694.963 208.276 694.599 208.085C694.235 207.886 693.841 207.786 693.416 207.786C692.983 207.786 692.584 207.886 692.22 208.085C691.865 208.276 691.579 208.57 691.362 208.969C691.145 209.368 691.037 209.853 691.037 210.425C691.037 211.006 691.141 211.495 691.349 211.894C691.566 212.293 691.852 212.592 692.207 212.791C692.562 212.982 692.952 213.077 693.377 213.077ZM701.237 212.908L703.447 206.876H704.708L701.913 214H700.535L697.74 206.876H699.014L701.237 212.908Z" fill="#BABABA"/>
<path d="M739.747 204.939C740.735 204.939 741.589 205.125 742.308 205.498C743.036 205.862 743.591 206.386 743.972 207.071C744.362 207.756 744.557 208.562 744.557 209.489C744.557 210.416 744.362 211.222 743.972 211.907C743.591 212.583 743.036 213.103 742.308 213.467C741.589 213.822 740.735 214 739.747 214H736.926V204.939H739.747ZM739.747 213.025C740.917 213.025 741.81 212.717 742.425 212.102C743.041 211.478 743.348 210.607 743.348 209.489C743.348 208.362 743.036 207.483 742.412 206.85C741.797 206.217 740.909 205.901 739.747 205.901H738.109V213.025H739.747ZM752.618 210.165C752.618 210.39 752.605 210.629 752.579 210.88H746.885C746.928 211.582 747.166 212.132 747.6 212.531C748.042 212.921 748.575 213.116 749.199 213.116C749.71 213.116 750.135 212.999 750.473 212.765C750.819 212.522 751.062 212.202 751.201 211.803H752.475C752.284 212.488 751.903 213.047 751.331 213.48C750.759 213.905 750.048 214.117 749.199 214.117C748.523 214.117 747.916 213.965 747.379 213.662C746.85 213.359 746.434 212.93 746.131 212.375C745.827 211.812 745.676 211.162 745.676 210.425C745.676 209.688 745.823 209.043 746.118 208.488C746.412 207.933 746.824 207.509 747.353 207.214C747.89 206.911 748.505 206.759 749.199 206.759C749.875 206.759 750.473 206.906 750.993 207.201C751.513 207.496 751.911 207.903 752.189 208.423C752.475 208.934 752.618 209.515 752.618 210.165ZM751.396 209.918C751.396 209.467 751.296 209.082 751.097 208.761C750.897 208.432 750.624 208.185 750.278 208.02C749.94 207.847 749.563 207.76 749.147 207.76C748.549 207.76 748.037 207.951 747.613 208.332C747.197 208.713 746.958 209.242 746.898 209.918H751.396ZM753.737 210.425C753.737 209.688 753.885 209.047 754.179 208.501C754.474 207.946 754.881 207.517 755.401 207.214C755.93 206.911 756.532 206.759 757.208 206.759C758.084 206.759 758.803 206.971 759.366 207.396C759.938 207.821 760.315 208.41 760.497 209.164H759.223C759.102 208.731 758.864 208.388 758.508 208.137C758.162 207.886 757.728 207.76 757.208 207.76C756.532 207.76 755.986 207.994 755.57 208.462C755.154 208.921 754.946 209.576 754.946 210.425C754.946 211.283 755.154 211.946 755.57 212.414C755.986 212.882 756.532 213.116 757.208 213.116C757.728 213.116 758.162 212.995 758.508 212.752C758.855 212.509 759.093 212.163 759.223 211.712H760.497C760.307 212.44 759.925 213.025 759.353 213.467C758.781 213.9 758.066 214.117 757.208 214.117C756.532 214.117 755.93 213.965 755.401 213.662C754.881 213.359 754.474 212.93 754.179 212.375C753.885 211.82 753.737 211.17 753.737 210.425Z" fill="#BABABA"/>
<rect x="90.5" y="0.5" width="695" height="181" rx="9.5" stroke="#EBEBEB" stroke-dasharray="2 2"/>
<path d="M90 150H785" stroke="#EBEBEB" stroke-dasharray="2 2"/>
<path d="M90 113H785" stroke="#EBEBEB" stroke-dasharray="2 2"/>
<path d="M90 76H785" stroke="#EBEBEB" stroke-dasharray="2 2"/>
<path d="M90 39H785" stroke="#EBEBEB" stroke-dasharray="2 2"/>
<path d="M192 0L192 180" stroke="#EBEBEB" stroke-dasharray="2 2"/>
<path d="M247 0L247 180" stroke="#EBEBEB" stroke-dasharray="2 2"/>
<path d="M137 0L137 180" stroke="#EBEBEB" stroke-dasharray="2 2"/>
<path d="M302 0L302 181" stroke="#EBEBEB" stroke-dasharray="2 2"/>
<path d="M357 0L357 181" stroke="#EBEBEB" stroke-dasharray="2 2"/>
<path d="M412 0L412 181" stroke="#EBEBEB" stroke-dasharray="2 2"/>
<path d="M467 0L467 181" stroke="#EBEBEB" stroke-dasharray="2 2"/>
<path d="M522 0L522 181" stroke="#EBEBEB" stroke-dasharray="2 2"/>
<path d="M577 0L577 181" stroke="#EBEBEB" stroke-dasharray="2 2"/>
<path d="M632 0L632 181" stroke="#EBEBEB" stroke-dasharray="2 2"/>
<path d="M687 0L687 181" stroke="#EBEBEB" stroke-dasharray="2 2"/>
<path d="M742 0L742 180" stroke="#EBEBEB" stroke-dasharray="2 2"/>
<path d="M137.5 151.5C167.667 132.333 242.6 98.4 301 116C374 138 441 61.4992 505 82.4992C569 103.499 648.5 2.00022 739.5 55.5002" stroke="#19A526" stroke-width="2" stroke-linecap="round"/>
<path d="M138 167.5C168.333 166.5 237.2 160 270 142C311 119.5 338.5 85.5003 403 122.5C467.5 159.5 522 92.5002 551 100.5C580 108.5 648 158.5 720.5 100.5" stroke="#FF8500" stroke-width="2" stroke-linecap="round"/>
<rect x="187.957" y="251" width="16" height="16" rx="2" fill="#19A526"/>
<path d="M215.535 254.939V255.901H213.065V264H211.882V255.901H209.399V254.939H215.535ZM220.098 264.117C219.431 264.117 218.824 263.965 218.278 263.662C217.741 263.359 217.316 262.93 217.004 262.375C216.701 261.812 216.549 261.162 216.549 260.425C216.549 259.697 216.705 259.056 217.017 258.501C217.338 257.938 217.771 257.509 218.317 257.214C218.863 256.911 219.474 256.759 220.15 256.759C220.826 256.759 221.437 256.911 221.983 257.214C222.529 257.509 222.958 257.933 223.27 258.488C223.591 259.043 223.751 259.688 223.751 260.425C223.751 261.162 223.587 261.812 223.257 262.375C222.937 262.93 222.499 263.359 221.944 263.662C221.39 263.965 220.774 264.117 220.098 264.117ZM220.098 263.077C220.523 263.077 220.922 262.977 221.294 262.778C221.667 262.579 221.966 262.28 222.191 261.881C222.425 261.482 222.542 260.997 222.542 260.425C222.542 259.853 222.43 259.368 222.204 258.969C221.979 258.57 221.684 258.276 221.32 258.085C220.956 257.886 220.562 257.786 220.137 257.786C219.704 257.786 219.305 257.886 218.941 258.085C218.586 258.276 218.3 258.57 218.083 258.969C217.867 259.368 217.758 259.853 217.758 260.425C217.758 261.006 217.862 261.495 218.07 261.894C218.287 262.293 218.573 262.592 218.928 262.791C219.284 262.982 219.674 263.077 220.098 263.077ZM226.75 257.851V262.05C226.75 262.397 226.823 262.644 226.971 262.791C227.118 262.93 227.374 262.999 227.738 262.999H228.609V264H227.543C226.884 264 226.39 263.848 226.061 263.545C225.731 263.242 225.567 262.743 225.567 262.05V257.851H224.644V256.876H225.567V255.082H226.75V256.876H228.609V257.851H226.75ZM229.6 260.412C229.6 259.684 229.747 259.047 230.042 258.501C230.337 257.946 230.74 257.517 231.251 257.214C231.771 256.911 232.347 256.759 232.98 256.759C233.604 256.759 234.146 256.893 234.605 257.162C235.064 257.431 235.407 257.769 235.632 258.176V256.876H236.828V264H235.632V262.674C235.398 263.09 235.047 263.437 234.579 263.714C234.12 263.983 233.582 264.117 232.967 264.117C232.334 264.117 231.762 263.961 231.251 263.649C230.74 263.337 230.337 262.899 230.042 262.336C229.747 261.773 229.6 261.131 229.6 260.412ZM235.632 260.425C235.632 259.888 235.524 259.42 235.307 259.021C235.09 258.622 234.796 258.319 234.423 258.111C234.059 257.894 233.656 257.786 233.214 257.786C232.772 257.786 232.369 257.89 232.005 258.098C231.641 258.306 231.351 258.609 231.134 259.008C230.917 259.407 230.809 259.875 230.809 260.412C230.809 260.958 230.917 261.435 231.134 261.842C231.351 262.241 231.641 262.548 232.005 262.765C232.369 262.973 232.772 263.077 233.214 263.077C233.656 263.077 234.059 262.973 234.423 262.765C234.796 262.548 235.09 262.241 235.307 261.842C235.524 261.435 235.632 260.962 235.632 260.425ZM240.01 254.38V264H238.827V254.38H240.01ZM250.263 264L248.105 260.295H246.675V264H245.492V254.939H248.417C249.102 254.939 249.678 255.056 250.146 255.29C250.623 255.524 250.978 255.84 251.212 256.239C251.446 256.638 251.563 257.093 251.563 257.604C251.563 258.228 251.381 258.778 251.017 259.255C250.662 259.732 250.125 260.048 249.405 260.204L251.68 264H250.263ZM246.675 259.346H248.417C249.059 259.346 249.54 259.19 249.86 258.878C250.181 258.557 250.341 258.133 250.341 257.604C250.341 257.067 250.181 256.651 249.86 256.356C249.548 256.061 249.067 255.914 248.417 255.914H246.675V259.346ZM259.901 260.165C259.901 260.39 259.888 260.629 259.862 260.88H254.168C254.212 261.582 254.45 262.132 254.883 262.531C255.325 262.921 255.858 263.116 256.482 263.116C256.994 263.116 257.418 262.999 257.756 262.765C258.103 262.522 258.346 262.202 258.484 261.803H259.758C259.568 262.488 259.186 263.047 258.614 263.48C258.042 263.905 257.332 264.117 256.482 264.117C255.806 264.117 255.2 263.965 254.662 263.662C254.134 263.359 253.718 262.93 253.414 262.375C253.111 261.812 252.959 261.162 252.959 260.425C252.959 259.688 253.107 259.043 253.401 258.488C253.696 257.933 254.108 257.509 254.636 257.214C255.174 256.911 255.789 256.759 256.482 256.759C257.158 256.759 257.756 256.906 258.276 257.201C258.796 257.496 259.195 257.903 259.472 258.423C259.758 258.934 259.901 259.515 259.901 260.165ZM258.679 259.918C258.679 259.467 258.58 259.082 258.38 258.761C258.181 258.432 257.908 258.185 257.561 258.02C257.223 257.847 256.846 257.76 256.43 257.76C255.832 257.76 255.321 257.951 254.896 258.332C254.48 258.713 254.242 259.242 254.181 259.918H258.679ZM264.115 262.908L266.325 256.876H267.586L264.791 264H263.413L260.618 256.876H261.892L264.115 262.908ZM275.25 260.165C275.25 260.39 275.237 260.629 275.211 260.88H269.517C269.56 261.582 269.799 262.132 270.232 262.531C270.674 262.921 271.207 263.116 271.831 263.116C272.342 263.116 272.767 262.999 273.105 262.765C273.452 262.522 273.694 262.202 273.833 261.803H275.107C274.916 262.488 274.535 263.047 273.963 263.48C273.391 263.905 272.68 264.117 271.831 264.117C271.155 264.117 270.548 263.965 270.011 263.662C269.482 263.359 269.066 262.93 268.763 262.375C268.46 261.812 268.308 261.162 268.308 260.425C268.308 259.688 268.455 259.043 268.75 258.488C269.045 257.933 269.456 257.509 269.985 257.214C270.522 256.911 271.138 256.759 271.831 256.759C272.507 256.759 273.105 256.906 273.625 257.201C274.145 257.496 274.544 257.903 274.821 258.423C275.107 258.934 275.25 259.515 275.25 260.165ZM274.028 259.918C274.028 259.467 273.928 259.082 273.729 258.761C273.53 258.432 273.257 258.185 272.91 258.02C272.572 257.847 272.195 257.76 271.779 257.76C271.181 257.76 270.67 257.951 270.245 258.332C269.829 258.713 269.591 259.242 269.53 259.918H274.028ZM280.283 256.746C281.149 256.746 281.851 257.01 282.389 257.539C282.926 258.059 283.195 258.813 283.195 259.801V264H282.025V259.97C282.025 259.259 281.847 258.718 281.492 258.345C281.136 257.964 280.651 257.773 280.036 257.773C279.412 257.773 278.913 257.968 278.541 258.358C278.177 258.748 277.995 259.316 277.995 260.061V264H276.812V256.876H277.995V257.89C278.229 257.526 278.545 257.244 278.944 257.045C279.351 256.846 279.797 256.746 280.283 256.746ZM291.445 256.876V264H290.262V262.947C290.037 263.311 289.72 263.597 289.313 263.805C288.914 264.004 288.472 264.104 287.987 264.104C287.432 264.104 286.934 263.991 286.492 263.766C286.05 263.532 285.699 263.185 285.439 262.726C285.188 262.267 285.062 261.708 285.062 261.049V256.876H286.232V260.893C286.232 261.595 286.41 262.137 286.765 262.518C287.12 262.891 287.606 263.077 288.221 263.077C288.854 263.077 289.352 262.882 289.716 262.492C290.08 262.102 290.262 261.534 290.262 260.789V256.876H291.445ZM299.942 260.165C299.942 260.39 299.929 260.629 299.903 260.88H294.209C294.253 261.582 294.491 262.132 294.924 262.531C295.366 262.921 295.899 263.116 296.523 263.116C297.035 263.116 297.459 262.999 297.797 262.765C298.144 262.522 298.387 262.202 298.525 261.803H299.799C299.609 262.488 299.227 263.047 298.655 263.48C298.083 263.905 297.373 264.117 296.523 264.117C295.847 264.117 295.241 263.965 294.703 263.662C294.175 263.359 293.759 262.93 293.455 262.375C293.152 261.812 293 261.162 293 260.425C293 259.688 293.148 259.043 293.442 258.488C293.737 257.933 294.149 257.509 294.677 257.214C295.215 256.911 295.83 256.759 296.523 256.759C297.199 256.759 297.797 256.906 298.317 257.201C298.837 257.496 299.236 257.903 299.513 258.423C299.799 258.934 299.942 259.515 299.942 260.165ZM298.72 259.918C298.72 259.467 298.621 259.082 298.421 258.761C298.222 258.432 297.949 258.185 297.602 258.02C297.264 257.847 296.887 257.76 296.471 257.76C295.873 257.76 295.362 257.951 294.937 258.332C294.521 258.713 294.283 259.242 294.222 259.918H298.72ZM301.881 264.078C301.656 264.078 301.465 264 301.309 263.844C301.153 263.688 301.075 263.497 301.075 263.272C301.075 263.047 301.153 262.856 301.309 262.7C301.465 262.544 301.656 262.466 301.881 262.466C302.098 262.466 302.28 262.544 302.427 262.7C302.583 262.856 302.661 263.047 302.661 263.272C302.661 263.497 302.583 263.688 302.427 263.844C302.28 264 302.098 264.078 301.881 264.078ZM301.881 258.514C301.656 258.514 301.465 258.436 301.309 258.28C301.153 258.124 301.075 257.933 301.075 257.708C301.075 257.483 301.153 257.292 301.309 257.136C301.465 256.98 301.656 256.902 301.881 256.902C302.098 256.902 302.28 256.98 302.427 257.136C302.583 257.292 302.661 257.483 302.661 257.708C302.661 257.933 302.583 258.124 302.427 258.28C302.28 258.436 302.098 258.514 301.881 258.514Z" fill="#BABABA"/>
<path d="M309.957 264.004V264.428H314.241V264.004C313.197 264.004 312.936 263.202 312.936 262.801V259.929H317.064V259.355H312.936V258.507H317.064V257.933H312.936V254.336H315.929C317.155 254.336 317.527 255.476 317.56 256.046H318V253.57H309.971V254.008C310.981 254.008 311.253 254.683 311.262 255.02V257.933H310.071V258.507H311.262V259.355H310.071V259.929H311.262V262.801C311.262 263.764 310.392 264.004 309.957 264.004Z" fill="#919191"/>
<path d="M326.799 255.628H322.236V258.592C322.435 258.315 322.73 258.089 323.12 257.916C323.51 257.734 323.93 257.643 324.381 257.643C325.1 257.643 325.685 257.795 326.136 258.098C326.587 258.393 326.907 258.778 327.098 259.255C327.297 259.723 327.397 260.221 327.397 260.75C327.397 261.374 327.28 261.933 327.046 262.427C326.812 262.921 326.452 263.311 325.967 263.597C325.49 263.883 324.897 264.026 324.186 264.026C323.276 264.026 322.539 263.792 321.976 263.324C321.413 262.856 321.07 262.232 320.949 261.452H322.106C322.219 261.946 322.457 262.332 322.821 262.609C323.185 262.886 323.644 263.025 324.199 263.025C324.884 263.025 325.399 262.821 325.746 262.414C326.093 261.998 326.266 261.452 326.266 260.776C326.266 260.1 326.093 259.58 325.746 259.216C325.399 258.843 324.888 258.657 324.212 258.657C323.753 258.657 323.35 258.77 323.003 258.995C322.665 259.212 322.418 259.511 322.262 259.892H321.144V254.588H326.799V255.628ZM328.943 256.967C329.004 256.17 329.311 255.546 329.866 255.095C330.421 254.644 331.14 254.419 332.024 254.419C332.613 254.419 333.12 254.527 333.545 254.744C333.978 254.952 334.303 255.238 334.52 255.602C334.745 255.966 334.858 256.378 334.858 256.837C334.858 257.374 334.702 257.838 334.39 258.228C334.087 258.618 333.688 258.869 333.194 258.982V259.047C333.757 259.186 334.204 259.459 334.533 259.866C334.862 260.273 335.027 260.806 335.027 261.465C335.027 261.959 334.914 262.405 334.689 262.804C334.464 263.194 334.126 263.502 333.675 263.727C333.224 263.952 332.683 264.065 332.05 264.065C331.131 264.065 330.377 263.827 329.788 263.35C329.199 262.865 328.869 262.18 328.8 261.296H329.944C330.005 261.816 330.217 262.241 330.581 262.57C330.945 262.899 331.43 263.064 332.037 263.064C332.644 263.064 333.103 262.908 333.415 262.596C333.736 262.275 333.896 261.864 333.896 261.361C333.896 260.711 333.679 260.243 333.246 259.957C332.813 259.671 332.158 259.528 331.283 259.528H330.984V258.54H331.296C332.093 258.531 332.696 258.401 333.103 258.15C333.51 257.89 333.714 257.491 333.714 256.954C333.714 256.495 333.562 256.126 333.259 255.849C332.964 255.572 332.54 255.433 331.985 255.433C331.448 255.433 331.014 255.572 330.685 255.849C330.356 256.126 330.161 256.499 330.1 256.967H328.943ZM338.041 262.362L336.585 265.859H335.792L336.741 262.362H338.041ZM339.202 259.203C339.202 257.712 339.444 256.551 339.93 255.719C340.415 254.878 341.264 254.458 342.478 254.458C343.682 254.458 344.527 254.878 345.013 255.719C345.498 256.551 345.741 257.712 345.741 259.203C345.741 260.72 345.498 261.898 345.013 262.739C344.527 263.58 343.682 264 342.478 264C341.264 264 340.415 263.58 339.93 262.739C339.444 261.898 339.202 260.72 339.202 259.203ZM344.571 259.203C344.571 258.449 344.519 257.812 344.415 257.292C344.319 256.763 344.116 256.339 343.804 256.018C343.5 255.697 343.058 255.537 342.478 255.537C341.888 255.537 341.438 255.697 341.126 256.018C340.822 256.339 340.619 256.763 340.515 257.292C340.419 257.812 340.372 258.449 340.372 259.203C340.372 259.983 340.419 260.637 340.515 261.166C340.619 261.695 340.822 262.119 341.126 262.44C341.438 262.761 341.888 262.921 342.478 262.921C343.058 262.921 343.5 262.761 343.804 262.44C344.116 262.119 344.319 261.695 344.415 261.166C344.519 260.637 344.571 259.983 344.571 259.203ZM347.365 259.203C347.365 257.712 347.607 256.551 348.093 255.719C348.578 254.878 349.427 254.458 350.641 254.458C351.845 254.458 352.69 254.878 353.176 255.719C353.661 256.551 353.904 257.712 353.904 259.203C353.904 260.72 353.661 261.898 353.176 262.739C352.69 263.58 351.845 264 350.641 264C349.427 264 348.578 263.58 348.093 262.739C347.607 261.898 347.365 260.72 347.365 259.203ZM352.734 259.203C352.734 258.449 352.682 257.812 352.578 257.292C352.482 256.763 352.279 256.339 351.967 256.018C351.663 255.697 351.221 255.537 350.641 255.537C350.051 255.537 349.601 255.697 349.289 256.018C348.985 256.339 348.782 256.763 348.678 257.292C348.582 257.812 348.535 258.449 348.535 259.203C348.535 259.983 348.582 260.637 348.678 261.166C348.782 261.695 348.985 262.119 349.289 262.44C349.601 262.761 350.051 262.921 350.641 262.921C351.221 262.921 351.663 262.761 351.967 262.44C352.279 262.119 352.482 261.695 352.578 261.166C352.682 260.637 352.734 259.983 352.734 259.203ZM356.945 262.362L355.489 265.859H354.696L355.645 262.362H356.945ZM358.105 259.203C358.105 257.712 358.347 256.551 358.833 255.719C359.318 254.878 360.167 254.458 361.381 254.458C362.585 254.458 363.43 254.878 363.916 255.719C364.401 256.551 364.644 257.712 364.644 259.203C364.644 260.72 364.401 261.898 363.916 262.739C363.43 263.58 362.585 264 361.381 264C360.167 264 359.318 263.58 358.833 262.739C358.347 261.898 358.105 260.72 358.105 259.203ZM363.474 259.203C363.474 258.449 363.422 257.812 363.318 257.292C363.222 256.763 363.019 256.339 362.707 256.018C362.403 255.697 361.961 255.537 361.381 255.537C360.791 255.537 360.341 255.697 360.029 256.018C359.725 256.339 359.522 256.763 359.418 257.292C359.322 257.812 359.275 258.449 359.275 259.203C359.275 259.983 359.322 260.637 359.418 261.166C359.522 261.695 359.725 262.119 360.029 262.44C360.341 262.761 360.791 262.921 361.381 262.921C361.961 262.921 362.403 262.761 362.707 262.44C363.019 262.119 363.222 261.695 363.318 261.166C363.422 260.637 363.474 259.983 363.474 259.203ZM366.268 259.203C366.268 257.712 366.511 256.551 366.996 255.719C367.481 254.878 368.331 254.458 369.544 254.458C370.749 254.458 371.594 254.878 372.079 255.719C372.564 256.551 372.807 257.712 372.807 259.203C372.807 260.72 372.564 261.898 372.079 262.739C371.594 263.58 370.749 264 369.544 264C368.331 264 367.481 263.58 366.996 262.739C366.511 261.898 366.268 260.72 366.268 259.203ZM371.637 259.203C371.637 258.449 371.585 257.812 371.481 257.292C371.386 256.763 371.182 256.339 370.87 256.018C370.567 255.697 370.125 255.537 369.544 255.537C368.955 255.537 368.504 255.697 368.192 256.018C367.889 256.339 367.685 256.763 367.581 257.292C367.486 257.812 367.438 258.449 367.438 259.203C367.438 259.983 367.486 260.637 367.581 261.166C367.685 261.695 367.889 262.119 368.192 262.44C368.504 262.761 368.955 262.921 369.544 262.921C370.125 262.921 370.567 262.761 370.87 262.44C371.182 262.119 371.386 261.695 371.481 261.166C371.585 260.637 371.637 259.983 371.637 259.203ZM374.431 259.203C374.431 257.712 374.674 256.551 375.159 255.719C375.644 254.878 376.494 254.458 377.707 254.458C378.912 254.458 379.757 254.878 380.242 255.719C380.727 256.551 380.97 257.712 380.97 259.203C380.97 260.72 380.727 261.898 380.242 262.739C379.757 263.58 378.912 264 377.707 264C376.494 264 375.644 263.58 375.159 262.739C374.674 261.898 374.431 260.72 374.431 259.203ZM379.8 259.203C379.8 258.449 379.748 257.812 379.644 257.292C379.549 256.763 379.345 256.339 379.033 256.018C378.73 255.697 378.288 255.537 377.707 255.537C377.118 255.537 376.667 255.697 376.355 256.018C376.052 256.339 375.848 256.763 375.744 257.292C375.649 257.812 375.601 258.449 375.601 259.203C375.601 259.983 375.649 260.637 375.744 261.166C375.848 261.695 376.052 262.119 376.355 262.44C376.667 262.761 377.118 262.921 377.707 262.921C378.288 262.921 378.73 262.761 379.033 262.44C379.345 262.119 379.549 261.695 379.644 261.166C379.748 260.637 379.8 259.983 379.8 259.203Z" fill="#646464"/>
<rect x="412" y="251" width="16" height="16" rx="2" fill="#FF8500"/>
<path d="M439.578 254.939V255.901H437.108V264H435.925V255.901H433.442V254.939H439.578ZM444.141 264.117C443.474 264.117 442.867 263.965 442.321 263.662C441.784 263.359 441.359 262.93 441.047 262.375C440.744 261.812 440.592 261.162 440.592 260.425C440.592 259.697 440.748 259.056 441.06 258.501C441.381 257.938 441.814 257.509 442.36 257.214C442.906 256.911 443.517 256.759 444.193 256.759C444.869 256.759 445.48 256.911 446.026 257.214C446.572 257.509 447.001 257.933 447.313 258.488C447.634 259.043 447.794 259.688 447.794 260.425C447.794 261.162 447.63 261.812 447.3 262.375C446.98 262.93 446.542 263.359 445.987 263.662C445.433 263.965 444.817 264.117 444.141 264.117ZM444.141 263.077C444.566 263.077 444.965 262.977 445.337 262.778C445.71 262.579 446.009 262.28 446.234 261.881C446.468 261.482 446.585 260.997 446.585 260.425C446.585 259.853 446.473 259.368 446.247 258.969C446.022 258.57 445.727 258.276 445.363 258.085C444.999 257.886 444.605 257.786 444.18 257.786C443.747 257.786 443.348 257.886 442.984 258.085C442.629 258.276 442.343 258.57 442.126 258.969C441.91 259.368 441.801 259.853 441.801 260.425C441.801 261.006 441.905 261.495 442.113 261.894C442.33 262.293 442.616 262.592 442.971 262.791C443.327 262.982 443.717 263.077 444.141 263.077ZM450.793 257.851V262.05C450.793 262.397 450.866 262.644 451.014 262.791C451.161 262.93 451.417 262.999 451.781 262.999H452.652V264H451.586C450.927 264 450.433 263.848 450.104 263.545C449.774 263.242 449.61 262.743 449.61 262.05V257.851H448.687V256.876H449.61V255.082H450.793V256.876H452.652V257.851H450.793ZM453.643 260.412C453.643 259.684 453.79 259.047 454.085 258.501C454.38 257.946 454.783 257.517 455.294 257.214C455.814 256.911 456.39 256.759 457.023 256.759C457.647 256.759 458.189 256.893 458.648 257.162C459.107 257.431 459.45 257.769 459.675 258.176V256.876H460.871V264H459.675V262.674C459.441 263.09 459.09 263.437 458.622 263.714C458.163 263.983 457.625 264.117 457.01 264.117C456.377 264.117 455.805 263.961 455.294 263.649C454.783 263.337 454.38 262.899 454.085 262.336C453.79 261.773 453.643 261.131 453.643 260.412ZM459.675 260.425C459.675 259.888 459.567 259.42 459.35 259.021C459.133 258.622 458.839 258.319 458.466 258.111C458.102 257.894 457.699 257.786 457.257 257.786C456.815 257.786 456.412 257.89 456.048 258.098C455.684 258.306 455.394 258.609 455.177 259.008C454.96 259.407 454.852 259.875 454.852 260.412C454.852 260.958 454.96 261.435 455.177 261.842C455.394 262.241 455.684 262.548 456.048 262.765C456.412 262.973 456.815 263.077 457.257 263.077C457.699 263.077 458.102 262.973 458.466 262.765C458.839 262.548 459.133 262.241 459.35 261.842C459.567 261.435 459.675 260.962 459.675 260.425ZM464.053 254.38V264H462.87V254.38H464.053ZM470.718 255.901V258.93H474.02V259.905H470.718V263.025H474.41V264H469.535V254.926H474.41V255.901H470.718ZM479.918 264L478.228 261.348L476.603 264H475.368L477.669 260.464L475.368 256.876H476.707L478.397 259.515L480.009 256.876H481.244L478.956 260.399L481.257 264H479.918ZM483.604 258.189C483.838 257.782 484.185 257.444 484.644 257.175C485.112 256.898 485.654 256.759 486.269 256.759C486.902 256.759 487.474 256.911 487.985 257.214C488.505 257.517 488.912 257.946 489.207 258.501C489.502 259.047 489.649 259.684 489.649 260.412C489.649 261.131 489.502 261.773 489.207 262.336C488.912 262.899 488.505 263.337 487.985 263.649C487.474 263.961 486.902 264.117 486.269 264.117C485.662 264.117 485.125 263.983 484.657 263.714C484.198 263.437 483.847 263.094 483.604 262.687V267.38H482.421V256.876H483.604V258.189ZM488.44 260.412C488.44 259.875 488.332 259.407 488.115 259.008C487.898 258.609 487.604 258.306 487.231 258.098C486.867 257.89 486.464 257.786 486.022 257.786C485.589 257.786 485.186 257.894 484.813 258.111C484.449 258.319 484.154 258.627 483.929 259.034C483.712 259.433 483.604 259.896 483.604 260.425C483.604 260.962 483.712 261.435 483.929 261.842C484.154 262.241 484.449 262.548 484.813 262.765C485.186 262.973 485.589 263.077 486.022 263.077C486.464 263.077 486.867 262.973 487.231 262.765C487.604 262.548 487.898 262.241 488.115 261.842C488.332 261.435 488.44 260.958 488.44 260.412ZM497.706 260.165C497.706 260.39 497.693 260.629 497.667 260.88H491.973C492.016 261.582 492.255 262.132 492.688 262.531C493.13 262.921 493.663 263.116 494.287 263.116C494.798 263.116 495.223 262.999 495.561 262.765C495.908 262.522 496.15 262.202 496.289 261.803H497.563C497.372 262.488 496.991 263.047 496.419 263.48C495.847 263.905 495.136 264.117 494.287 264.117C493.611 264.117 493.004 263.965 492.467 263.662C491.938 263.359 491.522 262.93 491.219 262.375C490.916 261.812 490.764 261.162 490.764 260.425C490.764 259.688 490.911 259.043 491.206 258.488C491.501 257.933 491.912 257.509 492.441 257.214C492.978 256.911 493.594 256.759 494.287 256.759C494.963 256.759 495.561 256.906 496.081 257.201C496.601 257.496 497 257.903 497.277 258.423C497.563 258.934 497.706 259.515 497.706 260.165ZM496.484 259.918C496.484 259.467 496.384 259.082 496.185 258.761C495.986 258.432 495.713 258.185 495.366 258.02C495.028 257.847 494.651 257.76 494.235 257.76C493.637 257.76 493.126 257.951 492.701 258.332C492.285 258.713 492.047 259.242 491.986 259.918H496.484ZM502.739 256.746C503.605 256.746 504.307 257.01 504.845 257.539C505.382 258.059 505.651 258.813 505.651 259.801V264H504.481V259.97C504.481 259.259 504.303 258.718 503.948 258.345C503.592 257.964 503.107 257.773 502.492 257.773C501.868 257.773 501.369 257.968 500.997 258.358C500.633 258.748 500.451 259.316 500.451 260.061V264H499.268V256.876H500.451V257.89C500.685 257.526 501.001 257.244 501.4 257.045C501.807 256.846 502.253 256.746 502.739 256.746ZM510.105 264.117C509.559 264.117 509.069 264.026 508.636 263.844C508.203 263.653 507.86 263.393 507.609 263.064C507.358 262.726 507.219 262.34 507.193 261.907H508.415C508.45 262.262 508.614 262.553 508.909 262.778C509.212 263.003 509.607 263.116 510.092 263.116C510.543 263.116 510.898 263.016 511.158 262.817C511.418 262.618 511.548 262.366 511.548 262.063C511.548 261.751 511.409 261.521 511.132 261.374C510.855 261.218 510.426 261.066 509.845 260.919C509.316 260.78 508.883 260.642 508.545 260.503C508.216 260.356 507.93 260.143 507.687 259.866C507.453 259.58 507.336 259.207 507.336 258.748C507.336 258.384 507.444 258.05 507.661 257.747C507.878 257.444 508.185 257.205 508.584 257.032C508.983 256.85 509.438 256.759 509.949 256.759C510.738 256.759 511.375 256.958 511.86 257.357C512.345 257.756 512.605 258.302 512.64 258.995H511.457C511.431 258.622 511.279 258.323 511.002 258.098C510.733 257.873 510.369 257.76 509.91 257.76C509.485 257.76 509.147 257.851 508.896 258.033C508.645 258.215 508.519 258.453 508.519 258.748C508.519 258.982 508.593 259.177 508.74 259.333C508.896 259.48 509.087 259.602 509.312 259.697C509.546 259.784 509.867 259.883 510.274 259.996C510.785 260.135 511.201 260.273 511.522 260.412C511.843 260.542 512.116 260.741 512.341 261.01C512.575 261.279 512.696 261.63 512.705 262.063C512.705 262.453 512.597 262.804 512.38 263.116C512.163 263.428 511.856 263.675 511.457 263.857C511.067 264.03 510.616 264.117 510.105 264.117ZM520.875 260.165C520.875 260.39 520.862 260.629 520.836 260.88H515.142C515.185 261.582 515.424 262.132 515.857 262.531C516.299 262.921 516.832 263.116 517.456 263.116C517.967 263.116 518.392 262.999 518.73 262.765C519.077 262.522 519.319 262.202 519.458 261.803H520.732C520.541 262.488 520.16 263.047 519.588 263.48C519.016 263.905 518.305 264.117 517.456 264.117C516.78 264.117 516.173 263.965 515.636 263.662C515.107 263.359 514.691 262.93 514.388 262.375C514.085 261.812 513.933 261.162 513.933 260.425C513.933 259.688 514.08 259.043 514.375 258.488C514.67 257.933 515.081 257.509 515.61 257.214C516.147 256.911 516.763 256.759 517.456 256.759C518.132 256.759 518.73 256.906 519.25 257.201C519.77 257.496 520.169 257.903 520.446 258.423C520.732 258.934 520.875 259.515 520.875 260.165ZM519.653 259.918C519.653 259.467 519.553 259.082 519.354 258.761C519.155 258.432 518.882 258.185 518.535 258.02C518.197 257.847 517.82 257.76 517.404 257.76C516.806 257.76 516.295 257.951 515.87 258.332C515.454 258.713 515.216 259.242 515.155 259.918H519.653ZM522.814 264.078C522.588 264.078 522.398 264 522.242 263.844C522.086 263.688 522.008 263.497 522.008 263.272C522.008 263.047 522.086 262.856 522.242 262.7C522.398 262.544 522.588 262.466 522.814 262.466C523.03 262.466 523.212 262.544 523.36 262.7C523.516 262.856 523.594 263.047 523.594 263.272C523.594 263.497 523.516 263.688 523.36 263.844C523.212 264 523.03 264.078 522.814 264.078ZM522.814 258.514C522.588 258.514 522.398 258.436 522.242 258.28C522.086 258.124 522.008 257.933 522.008 257.708C522.008 257.483 522.086 257.292 522.242 257.136C522.398 256.98 522.588 256.902 522.814 256.902C523.03 256.902 523.212 256.98 523.36 257.136C523.516 257.292 523.594 257.483 523.594 257.708C523.594 257.933 523.516 258.124 523.36 258.28C523.212 258.436 523.03 258.514 522.814 258.514Z" fill="#BABABA"/>
<path d="M530 264.004V264.428H534.284V264.004C533.24 264.004 532.979 263.202 532.979 262.801V259.929H537.107V259.355H532.979V258.507H537.107V257.933H532.979V254.336H535.972C537.198 254.336 537.57 255.476 537.603 256.046H538.043V253.57H530.014V254.008C531.024 254.008 531.296 254.683 531.305 255.02V257.933H530.113V258.507H531.305V259.355H530.113V259.929H531.305V262.801C531.305 263.764 530.435 264.004 530 264.004Z" fill="#919191"/>
<path d="M540.537 255.68V254.601H542.981V264H541.785V255.68H540.537ZM550.798 255.524L547.184 264H545.988L549.654 255.641H544.636V254.627H550.798V255.524ZM553.527 262.362L552.071 265.859H551.278L552.227 262.362H553.527ZM554.687 259.203C554.687 257.712 554.93 256.551 555.415 255.719C555.9 254.878 556.75 254.458 557.963 254.458C559.168 254.458 560.013 254.878 560.498 255.719C560.983 256.551 561.226 257.712 561.226 259.203C561.226 260.72 560.983 261.898 560.498 262.739C560.013 263.58 559.168 264 557.963 264C556.75 264 555.9 263.58 555.415 262.739C554.93 261.898 554.687 260.72 554.687 259.203ZM560.056 259.203C560.056 258.449 560.004 257.812 559.9 257.292C559.805 256.763 559.601 256.339 559.289 256.018C558.986 255.697 558.544 255.537 557.963 255.537C557.374 255.537 556.923 255.697 556.611 256.018C556.308 256.339 556.104 256.763 556 257.292C555.905 257.812 555.857 258.449 555.857 259.203C555.857 259.983 555.905 260.637 556 261.166C556.104 261.695 556.308 262.119 556.611 262.44C556.923 262.761 557.374 262.921 557.963 262.921C558.544 262.921 558.986 262.761 559.289 262.44C559.601 262.119 559.805 261.695 559.9 261.166C560.004 260.637 560.056 259.983 560.056 259.203ZM562.85 259.203C562.85 257.712 563.093 256.551 563.578 255.719C564.063 254.878 564.913 254.458 566.126 254.458C567.331 254.458 568.176 254.878 568.661 255.719C569.146 256.551 569.389 257.712 569.389 259.203C569.389 260.72 569.146 261.898 568.661 262.739C568.176 263.58 567.331 264 566.126 264C564.913 264 564.063 263.58 563.578 262.739C563.093 261.898 562.85 260.72 562.85 259.203ZM568.219 259.203C568.219 258.449 568.167 257.812 568.063 257.292C567.968 256.763 567.764 256.339 567.452 256.018C567.149 255.697 566.707 255.537 566.126 255.537C565.537 255.537 565.086 255.697 564.774 256.018C564.471 256.339 564.267 256.763 564.163 257.292C564.068 257.812 564.02 258.449 564.02 259.203C564.02 259.983 564.068 260.637 564.163 261.166C564.267 261.695 564.471 262.119 564.774 262.44C565.086 262.761 565.537 262.921 566.126 262.921C566.707 262.921 567.149 262.761 567.452 262.44C567.764 262.119 567.968 261.695 568.063 261.166C568.167 260.637 568.219 259.983 568.219 259.203ZM572.43 262.362L570.974 265.859H570.181L571.13 262.362H572.43ZM573.59 259.203C573.59 257.712 573.833 256.551 574.318 255.719C574.804 254.878 575.653 254.458 576.866 254.458C578.071 254.458 578.916 254.878 579.401 255.719C579.887 256.551 580.129 257.712 580.129 259.203C580.129 260.72 579.887 261.898 579.401 262.739C578.916 263.58 578.071 264 576.866 264C575.653 264 574.804 263.58 574.318 262.739C573.833 261.898 573.59 260.72 573.59 259.203ZM578.959 259.203C578.959 258.449 578.907 257.812 578.803 257.292C578.708 256.763 578.504 256.339 578.192 256.018C577.889 255.697 577.447 255.537 576.866 255.537C576.277 255.537 575.826 255.697 575.514 256.018C575.211 256.339 575.007 256.763 574.903 257.292C574.808 257.812 574.76 258.449 574.76 259.203C574.76 259.983 574.808 260.637 574.903 261.166C575.007 261.695 575.211 262.119 575.514 262.44C575.826 262.761 576.277 262.921 576.866 262.921C577.447 262.921 577.889 262.761 578.192 262.44C578.504 262.119 578.708 261.695 578.803 261.166C578.907 260.637 578.959 259.983 578.959 259.203ZM581.753 259.203C581.753 257.712 581.996 256.551 582.481 255.719C582.967 254.878 583.816 254.458 585.029 254.458C586.234 254.458 587.079 254.878 587.564 255.719C588.05 256.551 588.292 257.712 588.292 259.203C588.292 260.72 588.05 261.898 587.564 262.739C587.079 263.58 586.234 264 585.029 264C583.816 264 582.967 263.58 582.481 262.739C581.996 261.898 581.753 260.72 581.753 259.203ZM587.122 259.203C587.122 258.449 587.07 257.812 586.966 257.292C586.871 256.763 586.667 256.339 586.355 256.018C586.052 255.697 585.61 255.537 585.029 255.537C584.44 255.537 583.989 255.697 583.677 256.018C583.374 256.339 583.17 256.763 583.066 257.292C582.971 257.812 582.923 258.449 582.923 259.203C582.923 259.983 582.971 260.637 583.066 261.166C583.17 261.695 583.374 262.119 583.677 262.44C583.989 262.761 584.44 262.921 585.029 262.921C585.61 262.921 586.052 262.761 586.355 262.44C586.667 262.119 586.871 261.695 586.966 261.166C587.07 260.637 587.122 259.983 587.122 259.203ZM589.916 259.203C589.916 257.712 590.159 256.551 590.644 255.719C591.13 254.878 591.979 254.458 593.192 254.458C594.397 254.458 595.242 254.878 595.727 255.719C596.213 256.551 596.455 257.712 596.455 259.203C596.455 260.72 596.213 261.898 595.727 262.739C595.242 263.58 594.397 264 593.192 264C591.979 264 591.13 263.58 590.644 262.739C590.159 261.898 589.916 260.72 589.916 259.203ZM595.285 259.203C595.285 258.449 595.233 257.812 595.129 257.292C595.034 256.763 594.83 256.339 594.518 256.018C594.215 255.697 593.773 255.537 593.192 255.537C592.603 255.537 592.152 255.697 591.84 256.018C591.537 256.339 591.333 256.763 591.229 257.292C591.134 257.812 591.086 258.449 591.086 259.203C591.086 259.983 591.134 260.637 591.229 261.166C591.333 261.695 591.537 262.119 591.84 262.44C592.152 262.761 592.603 262.921 593.192 262.921C593.773 262.921 594.215 262.761 594.518 262.44C594.83 262.119 595.034 261.695 595.129 261.166C595.233 260.637 595.285 259.983 595.285 259.203Z" fill="#646464"/>
</svg>
